<?xml version="1.0" encoding="UTF-8"?><svg id="Ebene_1" xmlns="http://www.w3.org/2000/svg" xmlns:xlink="http://www.w3.org/1999/xlink" viewBox="0 0 144 144"><defs><style>.cls-1{fill:#697a97;}.cls-2{fill:url(#Unbenannter_Verlauf_68);}</style><linearGradient id="Unbenannter_Verlauf_68" x1="13.21" y1="70.83" x2="130.44" y2="70.83" gradientUnits="userSpaceOnUse"><stop offset="0" stop-color="#1f3451"/><stop offset="1" stop-color="#1f477f"/></linearGradient></defs><rect class="cls-2" x="13.21" y="13.54" width="117.23" height="114.58" rx="37.66" ry="37.66"/><path class="cls-1" d="M72,57.68c6.08,0,11-4.93,11-11s-4.93-11-11-11-11,4.93-11,11,4.93,11,11,11Z"/><path class="cls-1" d="M72,0C32.24,0,0,32.24,0,72s32.24,72,72,72,72-32.24,72-72S111.76,0,72,0ZM72,21.67c13.81,0,25,11.19,25,25s-11.19,25-25,25-25-11.19-25-25,11.19-25,25-25ZM115,112.5c0,3.87-3.13,7-7,7s-7-3.13-7-7v-9c0-2.92-1.16-5.72-3.22-7.78s-4.86-3.22-7.78-3.22h-36c-2.92,0-5.72,1.16-7.78,3.22-2.06,2.06-3.22,4.86-3.22,7.78v9c0,3.87-3.13,7-7,7s-7-3.13-7-7v-9c0-6.63,2.63-12.99,7.32-17.68s11.05-7.32,17.68-7.32h36c6.63,0,12.99,2.63,17.68,7.32,4.69,4.69,7.32,11.05,7.32,17.68v9Z"/></svg>