<?xml version="1.0" encoding="UTF-8"?><svg id="Ebene_1" xmlns="http://www.w3.org/2000/svg" viewBox="0 0 288 288"><defs><style>.cls-1{fill:#dfdfdf;}</style></defs><path class="cls-1" d="M81.29,208.27c-35.43,0-64.27-28.83-64.27-64.27s28.83-64.27,64.27-64.27c21.44,0,40.46,10.55,52.13,26.73,1.7-3.32,3.64-6.52,5.77-9.56-13.7-16.8-34.54-27.52-57.9-27.52-41.22,0-74.63,33.4-74.63,74.63s33.4,74.63,74.63,74.63c23.36,0,44.2-10.73,57.88-27.54-2.12-3.03-4.06-6.23-5.76-9.55-11.67,16.18-30.69,26.73-52.13,26.73ZM154.23,128.23c-1.29,4.93-1.98,10.09-1.98,15.41s.72,10.72,2.08,15.73c1.05-4.96,1.59-10.09,1.59-15.37s-.58-10.69-1.69-15.77Z"/><path class="cls-1" d="M206.7,79.74c35.43,0,64.26,28.83,64.26,64.26s-28.83,64.26-64.26,64.26-64.26-28.83-64.26-64.26,28.83-64.26,64.26-64.26h0ZM206.7,69.37c-41.22,0-74.63,33.41-74.63,74.63s33.41,74.63,74.63,74.63,74.63-33.41,74.63-74.63-33.41-74.63-74.63-74.63h0Z"/><path class="cls-1" d="M244.14,172.45v7.83c0,3.37-2.72,6.09-6.09,6.09s-6.09-2.72-6.09-6.09v-7.83c0-2.54-1.01-4.98-2.8-6.77s-4.23-2.8-6.77-2.8h-31.34c-2.54,0-4.98,1.01-6.77,2.8-1.8,1.79-2.81,4.23-2.81,6.77v7.83c0,3.37-2.72,6.09-6.09,6.09s-6.09-2.72-6.09-6.09v-7.83c0-5.77,2.3-11.31,6.38-15.39s9.61-6.37,15.39-6.37h31.34c5.77,0,11.31,2.29,15.39,6.37,4.08,4.08,6.37,9.62,6.37,15.39Z"/><path class="cls-1" d="M206.71,101.22c-12.02,0-21.76,9.74-21.76,21.76s9.74,21.76,21.76,21.76,21.76-9.74,21.76-21.76-9.74-21.76-21.76-21.76ZM206.71,132.56c-5.29,0-9.58-4.28-9.58-9.58s4.28-9.58,9.58-9.58,9.58,4.29,9.58,9.58-4.29,9.58-9.58,9.58Z"/><path class="cls-1" d="M118.73,172.45v7.83c0,3.37-2.72,6.09-6.09,6.09s-6.09-2.72-6.09-6.09v-7.83c0-2.54-1.01-4.98-2.8-6.77s-4.23-2.8-6.77-2.8h-31.34c-2.54,0-4.98,1.01-6.77,2.8-1.8,1.79-2.81,4.23-2.81,6.77v7.83c0,3.37-2.72,6.09-6.09,6.09s-6.09-2.72-6.09-6.09v-7.83c0-5.77,2.3-11.31,6.38-15.39s9.61-6.37,15.39-6.37h31.34c5.77,0,11.31,2.29,15.39,6.37,4.08,4.08,6.37,9.62,6.37,15.39Z"/><path class="cls-1" d="M81.29,101.22c-12.02,0-21.76,9.74-21.76,21.76s9.74,21.76,21.76,21.76,21.76-9.74,21.76-21.76-9.74-21.76-21.76-21.76ZM81.29,132.56c-5.29,0-9.58-4.28-9.58-9.58s4.28-9.58,9.58-9.58,9.58,4.29,9.58,9.58-4.29,9.58-9.58,9.58Z"/></svg>