<?xml version="1.0" encoding="UTF-8"?><svg id="Ebene_1" xmlns="http://www.w3.org/2000/svg" viewBox="0 0 288 288"><defs><style>.cls-1,.cls-2{fill:#efefef;}.cls-2{fill-rule:evenodd;}</style></defs><path class="cls-2" d="m82.4957200739,88.050504912c-5.5963321628,17.4677701261-8.9208909586,36.3069124162-8.9208909586,55.9494967393s3.3245587958,38.4817266132,8.9208909586,55.949490134l-13.7553482291-2.1055444364c-12.8549470262,0-23.2995910721-24.1307258171-23.2995910721-53.8439456976s10.4446440459-53.8439456976,23.2995910721-53.8439456976l13.7553482291-2.1055510417Z"/><path class="cls-2" d="m180.3900219275,5.6153846154c31.8326222322,0,62.1691972998,62.0029584612,62.1691972998,138.3846170359s-30.3365750675,138.3846137333-62.1691972998,138.3846137333-89.0842279803-62.0029551586-89.0842279803-138.3846137333S148.5573996953,5.6153846154,180.3900219275,5.6153846154Zm-1.4129393047,22.4407504045c27.1920965123,0,49.2588384283,51.9600288265,49.2588384283,115.9438666315,0,63.9838444103-22.066741916,115.9438798421-49.2588384283,115.9438798421-27.1920833017,0-49.2726699224-51.9600354318-49.2726699224-115.9438798421,0-63.983837805,22.0805866207-115.9438666315,49.2726699224-115.9438666315Z"/><ellipse class="cls-1" cx="178.6169221417" cy="144.3601604812" rx="20.9031394019" ry="51.502897616"/></svg>