<?xml version="1.0" encoding="UTF-8"?><svg id="Ebene_1" xmlns="http://www.w3.org/2000/svg" viewBox="0 0 288 288"><defs><style>.cls-1{fill-rule:evenodd;}.cls-1,.cls-2{fill:#dfdfdf;}</style></defs><path class="cls-1" d="M179.5,9c-23.04,0-59.71,33.29-77.12,80.89l-31.8,1.59c-12.54,0-22.73,23.54-22.73,52.53s10.19,52.53,22.73,52.53l31.8,1.59c17.41,47.6,54.08,80.89,77.12,80.89,31.05,0,60.65-60.49,60.65-135S210.55,9,179.5,9ZM178.12,257.11c-26.53,0-48.07-50.69-48.07-113.11s21.54-113.11,48.07-113.11,48.05,50.69,48.05,113.11-21.53,113.11-48.05,113.11Z"/><ellipse class="cls-2" cx="177.77" cy="144.35" rx="20.39" ry="50.24"/></svg>