<?xml version="1.0" encoding="UTF-8"?><svg id="Ebene_1" xmlns="http://www.w3.org/2000/svg" xmlns:xlink="http://www.w3.org/1999/xlink" viewBox="0 0 288 288"><defs><style>.cls-1,.cls-2{fill:#e0e0e0;}.cls-2{fill-rule:evenodd;}.cls-3{fill:url(#Unbenannter_Verlauf_68);}</style><linearGradient id="Unbenannter_Verlauf_68" x1="0" y1="288" x2="288" y2="0" gradientUnits="userSpaceOnUse"><stop offset="0" stop-color="#1f3451"/><stop offset="1" stop-color="#1f477f"/></linearGradient></defs><rect class="cls-3" width="288" height="288"/><path class="cls-2" d="M172.27,36.5c-18.34,0-47.55,26.51-61.41,64.41l-25.33,1.26c-9.99,0-18.1,18.75-18.1,41.83s8.11,41.83,18.1,41.83l25.33,1.26c13.86,37.9,43.06,64.41,61.41,64.41,24.73,0,48.29-48.17,48.29-107.5s-23.57-107.5-48.29-107.5ZM171.17,234.07c-21.12,0-38.28-40.36-38.28-90.07s17.15-90.07,38.28-90.07,38.27,40.36,38.27,90.07-17.14,90.07-38.27,90.07Z"/><ellipse class="cls-1" cx="170.89" cy="144.28" rx="16.24" ry="40.01"/></svg>