<?xml version="1.0" encoding="UTF-8"?><svg id="Ebene_1" xmlns="http://www.w3.org/2000/svg" xmlns:xlink="http://www.w3.org/1999/xlink" viewBox="0 0 288 288"><defs><style>.cls-1{fill:#e0e0e0;fill-rule:evenodd;}.cls-2{fill:url(#Unbenannter_Verlauf_68);}.cls-3{fill:#cc3838;}</style><linearGradient id="Unbenannter_Verlauf_68" x1="0" y1="288" x2="288" y2="0" gradientUnits="userSpaceOnUse"><stop offset="0" stop-color="#1f3451"/><stop offset="1" stop-color="#1f477f"/></linearGradient></defs><rect class="cls-2" y="0" width="288" height="288"/><path class="cls-3" d="M224.75,70.56c6.83,6.83,7,17.73.38,24.35l-122.91,122.91c-6.62,6.62-17.52,6.45-24.35-.38-6.83-6.83-7-17.73-.38-24.35l122.91-122.91c6.62-6.62,17.52-6.45,24.35.38Z"/><path class="cls-1" d="M154.48,180.4c2.12,2.49,4.49,3.89,6.99,3.89,6.98,0,12.94-10.86,15.23-26.11l-22.22,22.22Z"/><path class="cls-1" d="M199.83,135.05c.12,2.94.19,5.93.19,8.95,0,49.7-17.14,90.07-38.27,90.07-11.68,0-22.14-12.34-29.16-31.77l-15.3,15.3c14.51,20.86,32.7,33.9,45.57,33.9,24.73,0,48.29-48.17,48.29-107.5,0-6.63-.3-13.11-.85-19.41l-10.46,10.46Z"/><path class="cls-1" d="M71.37,184.36l52.45-52.45c2.52-43.99,18.55-77.97,37.93-77.97,8.46,0,16.28,6.48,22.61,17.43l8.61-8.61c.15-.15.31-.3.47-.44-8.61-16.09-19.48-25.81-30.59-25.81-18.34,0-47.55,26.51-61.41,64.41l-25.33,1.26c-9.99,0-18.1,18.75-18.1,41.83,0,19.28,5.66,35.53,13.35,40.36Z"/></svg>