<?xml version="1.0" encoding="UTF-8"?><svg id="Ebene_1" xmlns="http://www.w3.org/2000/svg" xmlns:xlink="http://www.w3.org/1999/xlink" viewBox="0 0 288 288"><defs><style>.cls-1{fill:rgba(25,28,30,.5500000119);}.cls-1,.cls-2,.cls-3,.cls-4,.cls-5,.cls-6,.cls-7,.cls-8,.cls-9,.cls-10,.cls-11,.cls-12,.cls-13,.cls-14,.cls-15,.cls-16{fill-rule:evenodd;}.cls-1,.cls-17,.cls-8,.cls-14{opacity:.6;}.cls-2{fill:rgba(25,28,30,.7200000286);}.cls-2,.cls-4,.cls-5,.cls-6,.cls-10,.cls-11,.cls-15,.cls-16{opacity:.4;}.cls-3{fill:rgba(25,28,30,.9900000095);opacity:.5;}.cls-4,.cls-9{fill:rgba(25,28,30,.8799999952);}.cls-5{fill:rgba(25,28,30,.7599999905);}.cls-6{fill:rgba(25,28,30,.4799999893);}.cls-18,.cls-13{fill:#e0e0e0;}.cls-7{opacity:.8;}.cls-7,.cls-10{fill:#191c1e;}.cls-8{fill:rgba(25,28,30,.6200000048);}.cls-9{opacity:.7;}.cls-11{fill:rgba(25,28,30,.5400000215);}.cls-12{fill:url(#Unbenannter_Verlauf_119);fill-opacity:.6600000262;}.cls-19{fill:#16bcfb;}.cls-20{fill:#486e4c;}.cls-14{fill:rgba(25,28,30,.6600000262);}.cls-15{fill:rgba(25,28,30,.4499999881);}.cls-16{fill:rgba(25,28,30,.3600000143);}</style><linearGradient id="Unbenannter_Verlauf_119" x1="5.7551258026" y1="297.8584088742" x2="119.3471603644" y2="184.2663743123" gradientUnits="userSpaceOnUse"><stop offset=".0000000031" stop-color="#3758bb"/><stop offset=".9999997066" stop-color="#2cffb2"/></linearGradient></defs><rect class="cls-20" width="288" height="288.0000000388"/><path class="cls-12" d="m-2.1910605484,260.7231721193l-.0000000013,29.1890504026h25.0188327398l.0000000013-14.7443138276c-8.3397614343-4.8150715669-16.6794963061-9.6296915706-25.0188327398-14.4447365749Zm26.7596354555-46.3488855122l-.0000000013,28.8894864289,25.0183811766,14.4443115743.0000000013-28.889048147c-8.3393098711-4.8150582856-16.6790713055-9.6296915706-25.0183811766-14.4447498562Zm-1.7408027129,0l-25.0188327411,14.444749854-.0000000013,28.889048147,25.0188327411-14.444311572.0000000013-28.8894864289Zm.8704013551,30.3970434659l-25.0188327411,14.4442850095,25.0188327398,14.4447631375,25.0188061786-14.4447631352c-8.3397348718-4.8146200037-16.6794963061-9.629665008-25.0188061773-14.4442850117Zm.870401362-123.09478793l-.0000000013,28.8894997102,25.0188061773,14.4443115743.0000000013-28.8890614282c-8.3397348718-4.8150582856-16.6794963061-9.6296915706-25.0188061773-14.4447498562Zm-1.7408027129,0l-25.0188327411,14.444749854-.0000000013,28.8890614282,25.0188327411-14.444311572.0000000013-28.8894997102Zm.8704013551,30.3970301846l-25.0188327411,14.444311572,25.0188327398,14.4447498562,25.0188061786-14.444749854c-8.3397348718-4.8146200037-16.6794963061-9.6296915706-25.0188061773-14.4443115743Zm54.3891941347,62.3007142821l-.0000000013,28.8894864289,25.0188327398,14.4443115743.0000000013-28.889048147c-8.3397614343-4.8150582856-16.6790713055-9.6296915706-25.0188327398-14.4447498562Zm-1.7408027129,0l-25.0188061786,14.444749854-.0000000013,28.889048147,25.0188061786-14.444311572.0000000013-28.8894864289Zm.8704013551,30.3970434659l-25.0188061786,14.4442850095,25.0188061773,14.4447631375,25.0188327411-14.4447631352c-8.3397614343-4.8146200037-16.6790713055-9.629665008-25.0188327398-14.4442850117Zm52.6488429891-30.3970434635l-25.0188061786,14.444749854-.0000000013,28.889048147,25.0188061786-14.444311572.0000000013-28.8894864289Zm.8704013551,30.3970434659l-25.0188194598,14.4442850095,25.0188194585,14.4447631375,25.0188194598-14.4447631352c-8.3397481531-4.8146200037-16.6795095874-9.629665008-25.0188194585-14.4442850117Zm-79.4084518793,15.951842044l-.0000000013,29.1890504002h25.0188061773l.0000000013-14.7443138252c-8.3393098711-4.8150715669-16.6790713055-9.6296915706-25.0188061773-14.4447365749Zm-1.7408027129,0l-25.0183811779,14.4447365727-.0000000013,14.7443138276h25.0183811779l.0000000013-29.1890504002Zm55.2600470572.0000000025l-.0000000013,29.1890503978h25.0188061773l.0000000013-14.7443138228c-8.3397481531-4.8150715669-16.6790713055-9.6296915706-25.0188061773-14.4447365749Zm-1.7408027129,0l-25.0188327411,14.4447365727-.0000000013,14.7443138251h25.0188327411l.0000000013-29.1890503978Zm55.2600337759.0000000025l-.0000000013,29.1890503953h25.0183811766l.0000000013-14.7443138204c-8.3393231524-4.8150715669-16.6790713055-9.6296915706-25.0183811766-14.4447365749Zm-1.7408027129,0l-25.0188194598,14.4447365727-.0000000013,14.7443138227h25.0188194598l.0000000013-29.1890503954ZM-2.1910605442,168.0254143738l-.0000000013,28.8894997102,25.0188327398,14.4443115743.0000000013-28.8890614282c-8.3397614343-4.8150582856-16.6794963061-9.6296915706-25.0188327398-14.4447498562Zm.0000000043,30.8995604569l-.0000000084,27.8840047133,24.148431386-13.9422234114c-8.3397614343-4.8146200037-15.8090949439-9.1271612982-24.1484313776-13.9417813019Zm53.5188193392-30.8995604545l-.0000000013,28.8894997102,25.0188061773,14.4443115743.0000000013-28.8890614282c-8.3393098711-4.8150582856-16.6790713055-9.6296915706-25.0188061773-14.4447498562Zm-1.7408027129,0l-25.0183811779,14.444749854-.0000000013,28.8890614282,25.0183811779-14.444311572.0000000013-28.8894997102Zm.8704013551,30.3970301846l-25.0183811779,14.444311572,25.0183811766,14.4447498562,25.0188061786-14.444749854c-8.3393098711-4.8146200037-16.6790713055-9.6296915706-25.0188061773-14.4443115743Zm52.6488429891-30.3970301822l-25.0188327411,14.444749854-.0000000013,28.8890614282,25.0188327411-14.444311572.0000000013-28.8894997102Zm.8704013551,30.3970301846l-25.0188327411,14.444311572,25.0188327398,14.4447498562,25.0188061786-14.444749854c-8.3397481531-4.8146200037-16.6790713055-9.6296915706-25.0188061773-14.4443115743Z"/><g class="cls-17"><path class="cls-14" d="m-2.1910605428,260.7231853934l-.0000000013,29.1890371285h25.0188327398l.0000000013-14.7443005536c-8.3397614343-4.8150715669-16.6794963061-9.6296915706-25.0188327398-14.4447365749Z"/><path class="cls-1" d="m24.5685749127,214.3742998812l-.0000000013,28.8894864289,25.0183811766,14.4443115743.0000000013-28.889048147c-8.3393098711-4.8150582856-16.6790713055-9.6296915706-25.0183811766-14.4447498562Z"/><path class="cls-7" d="m22.8277721998,214.3742998811l-25.0188327411,14.444749854-.0000000013,28.889048147,25.0188327411-14.444311572.0000000013-28.8894864289Z"/><path class="cls-5" d="m23.6981735549,244.771343347l-25.0188327411,14.4442850095,25.0188327398,14.4447631375,25.0188061786-14.4447631352c-8.3397348718-4.8146200037-16.6794963061-9.629665008-25.0188061773-14.4442850117Z"/><path class="cls-8" d="m24.5685749169,121.6765554169l-.0000000013,28.8894997102,25.0188061773,14.4443115743.0000000013-28.8890614282c-8.3397348718-4.8150582856-16.6794963061-9.6296915706-25.0188061773-14.4447498562Z"/><path class="cls-3" d="m22.8277722039,121.6765554169l-25.0188327411,14.444749854-.0000000013,28.8890614282,25.0188327411-14.444311572.0000000013-28.8894997102Z"/><path class="cls-5" d="m23.698173559,152.0735856015l-25.0188327411,14.444311572,25.0188327398,14.4447498562,25.0188061786-14.444749854c-8.3397348718-4.8146200037-16.6794963061-9.6296915706-25.0188061773-14.4443115743Z"/><path class="cls-2" d="m78.0873676937,214.3742998836l-.0000000013,28.8894864289,25.0188327398,14.4443115743.0000000013-28.889048147c-8.3397614343-4.8150582856-16.6790713055-9.6296915706-25.0188327398-14.4447498562Z"/><path class="cls-7" d="m76.3465649808,214.3742998835l-25.0188061786,14.444749854-.0000000013,28.889048147,25.0188061786-14.444311572.0000000013-28.8894864289Z"/><path class="cls-5" d="m77.2169663359,244.7713433494l-25.0188061786,14.4442850095,25.0188061773,14.4447631375,25.0188327411-14.4447631352c-8.3397614343-4.8146200037-16.6790713055-9.629665008-25.0188327398-14.4442850117Z"/><path class="cls-15" d="m129.865809325,214.3742998859l-25.0188061786,14.444749854-.0000000013,28.889048147,25.0188061786-14.444311572.0000000013-28.8894864289Z"/><path class="cls-6" d="m130.7362106801,244.7713433518l-25.0188194598,14.4442850095,25.0188194585,14.4447631375,25.0188194598-14.4447631352c-8.3397481531-4.8146200037-16.6795095874-9.629665008-25.0188194585-14.4442850117Z"/><path class="cls-1" d="m51.3277588008,260.7231853958l-.0000000013,29.1890371261h25.0188061773l.0000000013-14.7443005512c-8.3393098711-4.8150715669-16.6790713055-9.6296915706-25.0188061773-14.4447365749Z"/><path class="cls-7" d="m49.5869560879,260.7231853957l-25.0183811779,14.4447365727-.0000000013,14.7443005535h25.0183811779l.0000000013-29.1890371262Z"/><path class="cls-4" d="m104.8470031451,260.7231853982l-.0000000013,29.1890371237h25.0188061773l.0000000013-14.7443005488c-8.3397481531-4.8150715669-16.6790713055-9.6296915706-25.0188061773-14.4447365749Z"/><path class="cls-7" d="m103.1062004321,260.7231853981l-25.0188327411,14.4447365727-.0000000013,14.7443005511h25.0188327411l.0000000013-29.1890371238Z"/><path class="cls-4" d="m158.366234208,260.7231854006l-.0000000013,29.1890371213h25.0183811766l.0000000013-14.7443005464c-8.3393231524-4.8150715669-16.6790713055-9.6296915706-25.0183811766-14.4447365749Z"/><path class="cls-10" d="m156.6254314951,260.7231854005l-25.0188194598,14.4447365727-.0000000013,14.7443005487h25.0188194598l.0000000013-29.1890371214Z"/><path class="cls-1" d="m-2.1910605386,168.0254276479l-.0000000013,28.8894997102,25.0188327398,14.4443115743.0000000013-28.8890614282c-8.3397614343-4.8150582856-16.6794963061-9.6296915706-25.0188327398-14.4447498562Z"/><path class="cls-5" d="m-2.1910605399,198.9249748307l-.0000000084,27.8840047133,24.1484313916-13.9422101373c-8.3397614343-4.8146200037-15.8090949496-9.1271745723-24.1484313833-13.941794576Z"/><path class="cls-9" d="m51.327758805,168.0254276503l-.0000000013,28.8894997102,25.0188061773,14.4443115743.0000000013-28.8890614282c-8.3393098711-4.8150582856-16.6790713055-9.6296915706-25.0188061773-14.4447498562Z"/><path class="cls-7" d="m49.586956092,168.0254276502l-25.0183811779,14.444749854-.0000000013,28.8890614282,25.0183811779-14.444311572.0000000013-28.8894997102Z"/><path class="cls-5" d="m50.4573574471,198.4224578348l-25.0183811779,14.444311572,25.0183811766,14.4447498562,25.0188061786-14.444749854c-8.3393098711-4.8146200037-16.6790713055-9.6296915706-25.0188061773-14.4443115743Z"/><path class="cls-11" d="m103.1062004363,168.0254276526l-25.0188327411,14.444749854-.0000000013,28.8890614282,25.0188327411-14.444311572.0000000013-28.8894997102Z"/><path class="cls-16" d="m103.9766017914,198.4224578372l-25.0188327411,14.444311572,25.0188327398,14.4447498562,25.0188061786-14.444749854c-8.3397481531-4.8146200037-16.6790713055-9.6296915706-25.0188061773-14.4443115743Z"/></g><path class="cls-18" d="m172.8242040906,133.9509677676h-21.7153653231c15.0694882319-9.7775865571,15.0694882319-35.8856269125-2.3772119066-44.7743563018h21.7153554661c8.4752909461,13.2297246162,10.7594930027,30.7177745131,2.3772217635,44.7743563018Z"/><path class="cls-18" d="m195.996894584,162.6946190565h-25.97367089c3.2557488844-1.9741232242,6.3461283057-4.3099952292,9.1884584609-7.0282859659,25.8703112792-24.671375279,20.9298480522-73.92110613-9.3538377809-95.0473285714h26.738528067c14.7387295918,17.0952912615,22.8936313725,39.9165679494,19.3484736065,63.058258445-2.2842020566,14.9454586703-9.5915471432,28.2992128481-19.9479514635,39.0173560923Z"/><path class="cls-13" d="m58.0459807169,164.2863136922c-.8165221971-.5477881947-1.581367053-1.1782660494-2.2841971281-1.8810936603-2.8423227624-2.8319902513-4.4340247908-6.6872169927-4.4340247908-10.6974732934v-.0103399038c0-11.3072811974,4.4960395716-22.159793907,12.4958896149-30.1596365576,3.6691823991-3.6691873276,7.9275027514-6.5941972858,12.5682418353-8.6923500715,16.2374242344,11.4416506628,39.430789607,12.4855571037,54.4589379373.5787980493,4.1652957169,2.0464828373,7.9998426507,4.7751134778,11.3382811951,8.1135520222,7.9998525076,7.9998426506,12.4958970076,18.8523553602,12.4958970076,30.1596365576v.0103399038c0,4.0102563007-1.5917044926,7.8654830422-4.4340247908,10.6974732934-.7028374678.7028276109-1.467674931,1.3333054656-2.2842020566,1.8810936603-12.6095768084,9.2298180762-28.1545133357,14.6870793572-44.9603957156,14.6870793572-16.8058922368,0-32.3508189073-5.457261281-44.9604031083-14.6870793572Z"/><ellipse class="cls-18" cx="103.0063838252" cy="75.8848720689" rx="35.0794495477" ry="37.2086072597"/><rect class="cls-19" x="188.0043538736" y="173.5424545924" width="78.5454540253" height="17.4545453389" rx="6.9818198002" ry="6.9818198002"/><circle class="cls-19" cx="161.8225358652" cy="182.2697272619" r="13.0909090042"/><rect class="cls-19" x="188.0043538736" y="208.4515452703" width="78.5454540253" height="17.4545453389" rx="6.9818198002" ry="6.9818198002"/><circle class="cls-19" cx="161.8225358652" cy="217.1788179398" r="13.0909090042"/><rect class="cls-19" x="188.0043538736" y="243.3606359482" width="78.5454540253" height="17.4545453389" rx="6.9818198002" ry="6.9818198002"/><circle class="cls-19" cx="161.8225358652" cy="252.0879086177" r="13.0909090042"/></svg>