<?xml version="1.0" encoding="UTF-8"?><svg id="Ebene_1" xmlns="http://www.w3.org/2000/svg" viewBox="0 0 288 288"><defs><style>.cls-1{fill:#dfdfdf;}</style></defs><path class="cls-1" d="M113.3,21.15c-7.08-7.78-16.69-12.15-26.69-12.15s-19.62,4.38-26.69,12.15c-7.08,7.79-11.06,18.36-11.06,29.37v69.2c0,11.01,3.98,21.58,11.06,29.35,7.07,7.79,16.67,12.17,26.69,12.17,4.96,0,9.86-1.07,14.43-3.17,4.58-2.09,8.74-5.14,12.26-9,3.5-3.85,6.28-8.43,8.18-13.47,1.89-5.03,2.87-10.44,2.87-15.89V50.52c0-11.01-3.98-21.58-11.05-29.37ZM155.32,96.31c-.32-.84-.77-1.61-1.36-2.24-.58-.64-1.27-1.16-2.03-1.51-.77-.35-1.58-.53-2.41-.53h-6.3c-.84,0-1.65.18-2.41.53-.77.35-1.47.86-2.05,1.51-.58.63-1.04,1.4-1.36,2.24-.31.84-.48,1.74-.48,2.65v20.75c0,7.74-1.48,15.38-4.34,22.45-2.86,7.07-7.03,13.39-12.24,18.59-5.21,5.19-11.36,9.12-18.02,11.54-6.68,2.42-13.75,3.27-20.74,2.51-12.67-1.78-24.29-8.63-32.65-19.25s-12.86-24.25-12.64-38.3v-18.29c0-1.84-.67-3.59-1.84-4.89-1.18-1.3-2.78-2.02-4.45-2.02h-6.3c-.82,0-1.64.18-2.41.51-.76.35-1.45.86-2.03,1.51-.59.64-1.06,1.4-1.36,2.24-.32.84-.49,1.74-.49,2.65v17.35c-.24,18.81,5.65,37.08,16.62,51.5,10.97,14.42,26.28,24.04,43.14,27.09v14.77h-22.02c-.82,0-1.65.18-2.41.53-.76.35-1.45.86-2.03,1.51-.59.63-1.06,1.4-1.36,2.24-.32.84-.48,1.74-.48,2.65v6.93c0,.9.17,1.8.48,2.64.32.85.79,1.61,1.36,2.25.58.63,1.27,1.15,2.03,1.49.76.35,1.58.53,2.41.53h62.9c.82,0,1.65-.18,2.41-.53.77-.35,1.45-.85,2.05-1.49.58-.64,1.04-1.4,1.36-2.24.32-.85.48-1.74.48-2.65v-5.51c-2.09-1.24-3.88-2.5-5.38-3.78-1.64-1.4-3.06-2.92-4.3-4.54h-18.63v-14.61c4.47-.68,8.82-1.83,13.02-3.42.19-9.35,3.41-17.38,9.59-23.91,6.5-6.99,14.72-10.54,24.41-10.54,1.22,0,2.45.04,3.64.14.44-.84.86-1.67,1.26-2.54v-25.04c-.13-7.87,2.57-15.23,7.84-21.49v-9.31c0-.91-.17-1.82-.48-2.65Z"/><path class="cls-1" d="M262.7,166.03c-5.11-4.88-11.79-7.43-20.02-7.43-.37,0-.76,0-1.13.01-2.92-2.43-6.45-4.25-10.34-5.23-2.43-.59-4.82-.91-7.16-.91-1.52,0-3.03.14-4.52.42-4.25-2.43-8.75-3.76-13.49-4h-.37v-19.22c0-6.32-2.3-11.79-7.04-16.53-4.62-4.75-10.22-7.06-16.66-7.06s-12.04,2.3-16.66,7.06c-4.75,4.74-7.18,10.34-7.06,16.53v41.22c-4.98-2.3-9.98-3.4-15.2-3.4-.95,0-1.87.05-2.77.14-5.57.58-10.26,2.96-14.14,7.15-3.17,3.33-5.2,7.2-6.14,11.52-.45,1.98-.67,4.06-.67,6.23,0,5.6,2.07,10.22,6.33,13.87,2.55,2.19,6.8,4.62,12.89,7.06,3.15,1.58,5.34,2.79,6.44,3.4,3.53,2.32,7.79,5.36,12.53,9.37,5.36,4.49,8.75,8.27,10.09,11.19-3.4,2.06-5.11,5.1-5.11,9.12v21.64c0,3.04.98,5.47,3.17,7.66,2.19,2.07,4.74,3.17,7.66,3.17h75.75c3.04,0,5.47-.98,7.66-3.17,2.07-2.19,3.17-4.74,3.17-7.66v-21.64c0-3.17-1.22-5.72-3.41-7.78.62-2.92,2.56-7.54,5.72-13.87,2.68-5.47,4.62-9.73,5.72-12.89,1.83-5.47,2.68-10.58,2.68-15.57v-8.15c0-9.6-2.55-17.02-7.9-22.26ZM248.97,268.17h-75.64v-21.64h75.64v21.64ZM259.91,196.55c0,3.89-.73,8.03-2.32,12.53-.97,2.55-2.66,6.21-5.1,11.19-3.41,6.81-5.6,11.92-6.45,15.57h-67.24c-1.58-4.62-5.59-9.85-12.15-15.93-5.47-5-10.71-9-15.94-12.17-1.82-1.09-4.74-2.55-8.63-4.38-3.9-1.83-6.69-3.28-8.15-4.38-2.56-1.83-3.77-4.02-3.77-6.45,0-4,1.21-7.42,3.64-10.08,2.56-2.81,5.47-4.15,9-4.15s6.94.73,10.34,2.07c1.7.85,4.26,2.3,7.42,4.38,3.77,2.3,6.57,3.4,8.39,3.4v-58.49c0-3.28,1.34-6.32,3.89-8.87,2.56-2.55,5.6-3.89,9.13-3.89s6.57,1.21,9.11,3.89c2.55,2.55,3.89,5.59,3.89,8.87v33.81c2.79-2.32,6.24-3.53,10.35-3.53h.59c4.38.13,8.28,1.83,11.79,5.23,2.12-1.27,4.38-1.91,6.75-1.91,1.44,0,2.92.23,4.44.7,4.02,1.34,6.81,3.28,8.39,5.96,1.89-.3,3.66-.44,5.33-.44,4.67,0,8.46,1.15,11.33,3.48,4.02,3.15,5.96,8.39,5.96,15.57v8.02ZM238.27,264.17c1.82,0,3.4-.73,4.74-2.07s2.07-2.92,2.07-4.74-.73-3.41-2.07-4.75-2.92-2.06-4.74-2.06c-1.83.12-3.41.72-4.75,2.06-1.34,1.47-2.06,3.04-2.06,4.75s.72,3.4,2.06,4.74,2.92,2.07,4.75,2.07Z"/></svg>