<?xml version="1.0" encoding="UTF-8"?><svg id="Ebene_1" xmlns="http://www.w3.org/2000/svg" xmlns:xlink="http://www.w3.org/1999/xlink" viewBox="0 0 288 288"><defs><style>.cls-1{fill:url(#Unbenannter_Verlauf_224);}.cls-2,.cls-3{fill:#e0e0e0;}.cls-3{fill-rule:evenodd;}.cls-4{fill:#16bcfb;}</style><linearGradient id="Unbenannter_Verlauf_224" x1="0" y1="288" x2="288" y2="0" gradientUnits="userSpaceOnUse"><stop offset="0" stop-color="#3a6644"/><stop offset="1" stop-color="#5b8169"/></linearGradient></defs><rect class="cls-1" y="0" width="288" height="288"/><path class="cls-4" d="M184.59,125.64c3.59-3.68,7.93-5.48,12.94-5.48s9.35,1.79,12.94,5.48c3.68,3.68,5.48,7.93,5.48,12.85v14.92h.28c3.68.19,7.18,1.23,10.48,3.12,2.93-.57,5.95-.38,9.07.38,3.02.76,5.76,2.17,8.03,4.06,6.8-.19,12.28,1.79,16.43,5.76,4.16,4.06,6.14,9.82,6.14,17.28v6.33c0,3.87-.66,7.84-2.08,12.09-.85,2.46-2.36,5.76-4.44,10.01-2.46,4.91-3.97,8.5-4.44,10.77,1.7,1.61,2.64,3.59,2.64,6.04v16.81c0,2.27-.85,4.25-2.46,5.95-1.7,1.7-3.59,2.46-5.95,2.46h-58.84c-2.27,0-4.25-.85-5.95-2.46-1.7-1.7-2.46-3.59-2.46-5.95v-16.81c0-3.12,1.32-5.48,3.97-7.08-1.04-2.27-3.68-5.19-7.84-8.69-3.68-3.12-6.99-5.48-9.73-7.27-.85-.47-2.55-1.42-5.01-2.64-4.72-1.89-8.03-3.78-10.01-5.48-3.31-2.83-4.91-6.42-4.91-10.77,0-5.38,1.7-10.01,5.29-13.79,3.49-3.78,7.84-5.67,13.13-5.67,4.06,0,7.93.85,11.81,2.64v-32.02c-.09-4.82,1.79-9.16,5.48-12.85ZM204.62,131.59c-1.98-2.08-4.34-3.02-7.08-3.02s-5.1,1.04-7.08,3.02c-1.98,1.98-3.02,4.34-3.02,6.89v45.43c-1.42,0-3.59-.85-6.52-2.64-2.46-1.61-4.44-2.74-5.76-3.4-2.64-1.04-5.29-1.61-8.03-1.61s-5.01,1.04-6.99,3.21c-1.89,2.08-2.83,4.72-2.83,7.84,0,1.89.94,3.59,2.93,5.01,1.13.85,3.31,1.98,6.33,3.4,3.02,1.42,5.29,2.55,6.71,3.4,4.06,2.46,8.12,5.57,12.37,9.45,5.1,4.72,8.22,8.78,9.45,12.37h52.23c.66-2.83,2.36-6.8,5.01-12.09,1.89-3.87,3.21-6.71,3.97-8.69,1.23-3.49,1.79-6.71,1.79-9.73v-6.23c0-5.57-1.51-9.63-4.63-12.09-3.02-2.46-7.37-3.21-12.94-2.36-1.23-2.08-3.4-3.59-6.52-4.63-3.12-.94-6.04-.66-8.69.94-2.74-2.64-5.76-3.97-9.16-4.06-3.4-.09-6.23.85-8.5,2.74v-26.26c0-2.55-1.04-4.91-3.02-6.89ZM249.58,246.06v-16.81h-58.75v16.81h58.75ZM237.58,233.97c-1.04,1.13-1.61,2.36-1.61,3.68s.57,2.64,1.61,3.68c1.04,1.04,2.27,1.61,3.68,1.61s2.64-.57,3.68-1.61c1.04-1.04,1.61-2.27,1.61-3.68s-.57-2.64-1.61-3.68c-1.04-1.04-2.27-1.61-3.68-1.61-1.42.09-2.64.57-3.68,1.61Z"/><path class="cls-3" d="M137.67,184.7c3.34,1.78,5.23,3.83,5.23,6.01v7.48c0,6.9-19.02,12.49-42.45,12.49s-42.45-5.59-42.45-12.49v-7.48c0-2.18,1.9-4.22,5.23-6.01,1.51,1.33,3.1,2.58,4.74,3.74-.84.93-1.3,1.91-1.3,2.92,0,5.88,15.27,10.65,34.07,10.65s34.07-4.77,34.07-10.65c0-1.1-.54-2.17-1.54-3.17,1.52-1.09,2.99-2.25,4.39-3.49Z"/><path class="cls-2" d="M100.76,190.87c-27.12,0-49.16-22.04-49.16-49.13v-31.68c0-1.44,1.17-2.61,2.61-2.61s2.61,1.17,2.61,2.61v31.68c0,24.22,19.7,43.92,43.92,43.92s43.94-19.7,43.94-43.92v-31.68c0-1.44,1.17-2.61,2.61-2.61s2.61,1.17,2.61,2.61v31.68c0,27.09-22.04,49.13-49.13,49.13Z"/><path class="cls-3" d="M66.18,72.96c0-18.92,15.35-34.28,34.27-34.28s34.28,15.36,34.28,34.28v68.69c0,18.91-15.36,34.27-34.28,34.27s-34.27-15.36-34.27-34.27v-68.69ZM83.79,70.13c0-11.84,9.61-21.45,21.44-21.45s21.45,9.61,21.45,21.45v73.35c0,11.84-9.61,21.45-21.45,21.45s-21.44-9.61-21.44-21.45v-73.35Z"/></svg>