<?xml version="1.0" encoding="UTF-8"?><svg id="Ebene_1" xmlns="http://www.w3.org/2000/svg" xmlns:xlink="http://www.w3.org/1999/xlink" viewBox="0 0 288 288"><defs><style>.cls-1{fill:url(#Unbenannter_Verlauf_224);}.cls-2{fill:#e0e0e0;}.cls-3{fill:#16bcfb;}</style><linearGradient id="Unbenannter_Verlauf_224" x1="-.06" y1="288.28" x2="287.94" y2=".28" gradientUnits="userSpaceOnUse"><stop offset="0" stop-color="#3a6644"/><stop offset="1" stop-color="#5b8169"/></linearGradient></defs><rect class="cls-1" x="-.06" y=".28" width="288" height="288"/><path class="cls-2" d="M120.08,48.87c-5.49-6.04-12.95-9.44-20.73-9.44s-15.23,3.4-20.73,9.44c-5.49,6.05-8.58,14.26-8.58,22.81v53.75c0,8.55,3.09,16.76,8.58,22.8,5.5,6.05,12.96,9.45,20.73,9.45,3.86,0,7.67-.83,11.22-2.46,3.56-1.62,6.79-3.99,9.51-6.99,2.73-2.99,4.89-6.55,6.36-10.46,1.47-3.91,2.23-8.11,2.23-12.34v-53.75c0-8.55-3.09-16.76-8.59-22.81ZM152.73,107.25c-.25-.65-.61-1.25-1.06-1.74-.45-.5-.99-.9-1.58-1.17-.6-.27-1.23-.41-1.87-.41h-4.89c-.65,0-1.28.14-1.87.41-.6.27-1.14.67-1.59,1.17-.45.49-.81,1.09-1.06,1.74-.24.65-.37,1.35-.37,2.06v16.12c0,6.01-1.15,11.95-3.37,17.44-2.22,5.49-5.46,10.4-9.51,14.44-4.05,4.03-8.82,7.08-14,8.96-5.19,1.88-10.68,2.54-16.11,1.95-9.84-1.38-18.87-6.7-25.36-14.95-6.49-8.25-9.99-18.84-9.82-29.75v-14.21c0-1.43-.52-2.79-1.43-3.8-.92-1.01-2.16-1.57-3.46-1.57h-4.89c-.64,0-1.27.14-1.87.4-.59.27-1.13.67-1.58,1.17-.46.5-.82,1.09-1.06,1.74-.25.65-.38,1.35-.38,2.06v13.48c-.19,14.61,4.39,28.8,12.91,40,8.52,11.2,20.41,18.67,33.51,21.04v11.47h-17.1c-.64,0-1.28.14-1.87.41-.59.27-1.13.67-1.58,1.17-.46.49-.82,1.09-1.06,1.74-.25.65-.37,1.35-.37,2.06v5.38c0,.7.12,1.4.37,2.05.25.66.6,1.25,1.06,1.75.45.49.99.89,1.58,1.16.59.27,1.23.41,1.87.41h48.86c.64,0,1.28-.14,1.87-.41s1.13-.66,1.59-1.16c.45-.5.81-1.09,1.06-1.74.25-.66.37-1.35.37-2.06v-4.28c-1.62-.96-3.02-1.94-4.18-2.94-1.27-1.09-2.38-2.27-3.34-3.53h-14.47v-11.35c3.46-.53,6.84-1.42,10.11-2.66.15-7.26,2.65-13.5,7.45-18.57,5.04-5.43,11.43-8.19,18.96-8.19.95,0,1.9.03,2.83.11.34-.65.67-1.3.98-1.97v-19.45c-.1-6.11,2-11.83,6.09-16.69v-7.23c0-.71-.13-1.41-.37-2.06Z"/><path class="cls-3" d="M236.14,161.4c-3.97-3.79-9.16-5.77-15.55-5.77-.29,0-.59,0-.88.01-2.27-1.89-5.01-3.3-8.03-4.06-1.89-.46-3.74-.71-5.56-.71-1.18,0-2.35.11-3.51.33-3.3-1.89-6.8-2.92-10.48-3.11h-.29v-14.93c0-4.91-1.79-9.16-5.47-12.84-3.59-3.69-7.94-5.48-12.94-5.48s-9.35,1.79-12.94,5.48c-3.69,3.68-5.58,8.03-5.48,12.84v32.02c-3.87-1.79-7.75-2.64-11.81-2.64-.73,0-1.45.04-2.15.12-4.33.44-7.97,2.29-10.98,5.54-2.46,2.59-4.04,5.59-4.79,8.95-.33,1.54-.5,3.15-.5,4.84,0,4.35,1.61,7.94,4.91,10.77,1.99,1.7,5.29,3.59,10.02,5.48,2.45,1.23,4.15,2.17,5,2.64,2.74,1.8,6.05,4.16,9.73,7.28,4.16,3.49,6.8,6.42,7.84,8.69-2.64,1.6-3.97,3.96-3.97,7.08v16.81c0,2.36.76,4.25,2.46,5.95,1.7,1.61,3.68,2.46,5.95,2.46h58.84c2.36,0,4.25-.76,5.95-2.46,1.61-1.7,2.46-3.68,2.46-5.95v-16.81c0-2.46-.95-4.44-2.65-6.04.48-2.27,1.99-5.86,4.44-10.77,2.08-4.25,3.59-7.56,4.44-10.01,1.42-4.25,2.08-8.22,2.08-12.09v-6.33c0-7.46-1.98-13.22-6.14-17.29ZM225.47,240.74h-58.75v-16.81h58.75v16.81ZM233.97,185.11c0,3.02-.57,6.24-1.8,9.73-.75,1.98-2.07,4.82-3.96,8.69-2.65,5.29-4.35,9.26-5.01,12.09h-52.23c-1.23-3.59-4.34-7.65-9.45-12.37-4.25-3.88-8.31-6.99-12.37-9.45-1.41-.85-3.68-1.98-6.7-3.4-3.03-1.42-5.2-2.55-6.33-3.4-1.99-1.42-2.93-3.12-2.93-5.01,0-3.11.94-5.76,2.83-7.83,1.99-2.18,4.25-3.22,6.99-3.22s5.39.57,8.03,1.61c1.32.66,3.31,1.79,5.76,3.4,2.93,1.79,5.1,2.64,6.52,2.64v-45.43c0-2.55,1.04-4.91,3.02-6.89,1.99-1.98,4.35-3.02,7.09-3.02s5.1.94,7.08,3.02c1.98,1.98,3.02,4.34,3.02,6.89v26.26c2.17-1.8,4.85-2.74,8.04-2.74h.46c3.4.1,6.43,1.42,9.16,4.06,1.65-.99,3.4-1.48,5.24-1.48,1.12,0,2.27.18,3.45.54,3.12,1.04,5.29,2.55,6.52,4.63,1.46-.23,2.84-.34,4.14-.34,3.62,0,6.57.89,8.8,2.7,3.12,2.45,4.63,6.52,4.63,12.09v6.23ZM217.16,237.63c1.41,0,2.64-.57,3.68-1.61,1.04-1.04,1.61-2.27,1.61-3.68s-.57-2.65-1.61-3.69c-1.04-1.04-2.27-1.6-3.68-1.6-1.42.09-2.65.56-3.69,1.6-1.04,1.14-1.6,2.36-1.6,3.69s.56,2.64,1.6,3.68,2.27,1.61,3.69,1.61Z"/></svg>