<?xml version="1.0" encoding="UTF-8"?><svg id="Ebene_1" xmlns="http://www.w3.org/2000/svg" viewBox="0 0 288 288"><defs><style>.cls-1,.cls-2{fill:#efefef;}.cls-2{fill-rule:evenodd;}</style></defs><path class="cls-1" d="m160.9669469185,122.0339700805h-26.5345543065c18.4137889421-11.9474803959,18.4137889421-43.849555463-2.9047753742-54.7109187966h26.5345422621c10.3561724395,16.1657352324,13.1472967248,37.5348258649,2.9047874187,54.7109187966Z"/><path class="cls-1" d="m189.2822437222,157.1565648306h-31.7378856177c3.9782819352-2.4122311147,7.7544947395-5.2664922173,11.2276098696-8.5880404436,31.6115878942-30.1465776614,25.5747108789-90.3260698506-11.429691045-116.1407355642h32.6724839539c18.0096265914,20.8891689186,27.9743074035,48.7750643024,23.6423894335,77.0524814245-2.7911242853,18.2622340828-11.7201541291,34.5795241746-24.3749065944,47.6762945833Z"/><path class="cls-2" d="m20.7165317859,159.1014967772c-.9977291313-.6693562546-1.932312412-1.439753097-2.7911182631-2.2985559369-3.4731060967-3.4604805399-5.4180470767-8.171279636-5.4180470767-13.0715132729v-.0126345901c0-13.8166529795,5.4938245063-27.0776128377,15.2690436777-36.8528229757,4.4834668071-4.4834728293,9.6868161849-8.0576165026,15.3574526864-10.6214024767,19.8409194934,13.9808424289,48.1814794552,15.2564181209,66.5447541257.7072479806,5.0896802222,2.5006491567,9.775210138,5.8348319731,13.854532661,9.9141544961,9.7752221825,9.775210138,15.269052711,23.0361699962,15.269052711,36.8528229757v.0126345901c0,4.9002336369-1.944943991,9.611032733-5.4180470767,13.0715132729-.8588148843.8588028399-1.7933891317,1.6291996823-2.7911242853,2.2985559369-15.4079609358,11.27814823-34.4027121794,17.9465138629-54.9382450634,17.9465138629-20.5355449283,0-39.5302841276-6.6683656328-54.9382540967-17.9465138629Z"/><ellipse class="cls-1" cx="75.6547858826" cy="51.0815386218" rx="42.864466944" ry="45.4661386218"/><rect class="cls-1" x="179.5159560098" y="170.4118095319" width="95.9766775441" height="21.3281505653" rx="8.5312622602" ry="8.5312622602"/><circle class="cls-1" cx="147.5237301617" cy="181.0758848146" r="15.996112924"/><rect class="cls-1" x="179.5159560098" y="213.0681106626" width="95.9766775441" height="21.3281505653" rx="8.5312622601" ry="8.5312622601"/><circle class="cls-1" cx="147.5237301617" cy="223.7321859453" r="15.996112924"/><rect class="cls-1" x="179.5159560098" y="255.7244117933" width="95.9766775441" height="21.3281505653" rx="8.5312622601" ry="8.5312622601"/><circle class="cls-1" cx="147.5237301617" cy="266.388487076" r="15.996112924"/></svg>