<?xml version="1.0" encoding="UTF-8"?><svg id="Ebene_1" xmlns="http://www.w3.org/2000/svg" viewBox="0 0 288 288"><defs><style>.cls-1{fill-rule:evenodd;}.cls-1,.cls-2{fill:#dfdfdf;}</style></defs><path class="cls-2" d="M121.76,132.01c-4.82,4.66-7.93,11.07-8.36,18.25-.01.24-.03.46-.04.7h-59.84c-6.83,0-13.25,2.66-18.08,7.49-4.83,4.83-7.49,11.26-7.49,18.09v17.53c0,5.23-4.25,9.47-9.48,9.47s-9.47-4.24-9.47-9.47v-17.53c0-11.9,4.62-23.08,13.04-31.5,8.41-8.4,19.59-13.04,31.49-13.04h68.24Z"/><path class="cls-2" d="M168.18,176.54v8.45c-.51.79-.97,1.62-1.36,2.49-1.95-4.82-5.24-9.03-9.56-12.1l1.01-.42v-1.13c3.46-2.71,6.2-6.2,8.02-10.15,1.24,4.11,1.88,8.44,1.88,12.87Z"/><path class="cls-2" d="M88.59,26.84c-24.56,0-44.53,19.98-44.53,44.53s19.98,44.52,44.53,44.52,44.52-19.96,44.52-44.52-19.98-44.53-44.52-44.53ZM88.59,96.96c-14.12,0-25.59-11.48-25.59-25.59s11.47-25.59,25.59-25.59,25.57,11.47,25.57,25.59-11.47,25.59-25.57,25.59Z"/><path class="cls-2" d="M217.37,30.6c-3.7-3.71-9.69-3.73-13.41-.04-3.71,3.7-3.73,9.69-.04,13.41,15.31,15.38,23.74,35.83,23.74,57.58,0,9.85-1.73,19.44-5.06,28.4h19.98c2.65-9.11,4.03-18.66,4.03-28.4,0-26.8-10.39-51.99-29.25-70.95ZM185.43,62.71c-3.69-3.73-9.69-3.74-13.39-.05-3.71,3.7-3.73,9.69-.04,13.41,6.77,6.79,10.49,15.83,10.49,25.47s-3.73,18.63-10.49,25.44c-2.66,2.67-3.4,6.54-2.19,9.88.37-.43.76-.86,1.17-1.25,3.69-3.63,8.57-5.64,13.79-5.64h8.76c5.16-8.49,7.9-18.26,7.9-28.43,0-14.68-5.68-28.46-16-38.82Z"/><path class="cls-1" d="M279,149.68v4.61c0,5.07-4.11,9.19-9.19,9.19h-85.04c-5.08,0-9.19-4.12-9.19-9.19v-4.61c0-2.58,1.07-4.91,2.78-6.57,1.65-1.63,3.91-2.62,6.41-2.62h85.04c5.08,0,9.19,4.13,9.19,9.19Z"/><path class="cls-1" d="M158.34,151.99c0,7.18-4.37,13.31-10.6,15.91h0c-2.04.86-4.28,1.33-6.64,1.33-9.52,0-17.24-7.72-17.24-17.24,0-.34.01-.68.04-1.03.49-8.45,7.07-15.26,15.42-16.12h.01c.58-.07,1.17-.09,1.76-.09,8.18,0,15.02,5.69,16.79,13.33.29,1.26.45,2.57.45,3.91Z"/><path class="cls-1" d="M279,195.65v4.61c0,5.07-4.11,9.19-9.19,9.19h-85.04c-5.08,0-9.19-4.12-9.19-9.19v-4.61c0-5.07,4.11-9.19,9.19-9.19h85.04c5.08,0,9.19,4.12,9.19,9.19Z"/><path class="cls-1" d="M158.34,197.96c0,1.92-.32,3.77-.9,5.49-2.29,6.82-8.74,11.75-16.34,11.75-9.52,0-17.24-7.72-17.24-17.24s7.72-17.24,17.24-17.24c2.94,0,5.72.74,8.12,2.03,5.43,2.91,9.11,8.63,9.11,15.21Z"/><path class="cls-1" d="M279,241.62v4.6c0,5.1-4.11,9.2-9.19,9.2h-85.04c-5.08,0-9.19-4.11-9.19-9.2v-4.6c0-5.07,4.11-9.19,9.19-9.19h85.04c5.08,0,9.19,4.12,9.19,9.19Z"/><circle class="cls-2" cx="141.1" cy="243.93" r="17.24"/></svg>