<?xml version="1.0" encoding="UTF-8"?><svg id="Ebene_1" xmlns="http://www.w3.org/2000/svg" xmlns:xlink="http://www.w3.org/1999/xlink" viewBox="0 0 288 288"><defs><style>.cls-1{fill-rule:evenodd;}.cls-1,.cls-2{fill:#16bcfb;}.cls-3{fill:#e0e0e0;}.cls-4{fill:url(#Unbenannter_Verlauf_68);}</style><linearGradient id="Unbenannter_Verlauf_68" x1="0" y1="288.54" x2="288" y2=".54" gradientUnits="userSpaceOnUse"><stop offset="0" stop-color="#1f3451"/><stop offset="1" stop-color="#1f477f"/></linearGradient></defs><rect class="cls-4" y=".54" width="288" height="288"/><path class="cls-3" d="M127.11,135.43c-3.66,3.54-6.02,8.41-6.35,13.86-.01.18-.02.35-.03.53h-45.44c-5.19,0-10.06,2.02-13.73,5.69-3.67,3.67-5.69,8.55-5.69,13.74v13.31c0,3.97-3.23,7.19-7.2,7.19s-7.19-3.22-7.19-7.19v-13.31c0-9.04,3.51-17.53,9.9-23.92,6.39-6.38,14.88-9.9,23.91-9.9h51.82Z"/><path class="cls-3" d="M162.36,169.25v6.42c-.39.6-.74,1.23-1.03,1.89-1.48-3.66-3.98-6.86-7.26-9.19l.77-.32v-.86c2.63-2.06,4.71-4.71,6.09-7.71.94,3.12,1.43,6.41,1.43,9.77Z"/><path class="cls-3" d="M101.92,55.56c-18.65,0-33.82,15.17-33.82,33.82s15.17,33.81,33.82,33.81,33.81-15.16,33.81-33.81-15.17-33.82-33.81-33.82ZM101.92,108.81c-10.72,0-19.43-8.72-19.43-19.43s8.71-19.43,19.43-19.43,19.42,8.71,19.42,19.43-8.71,19.43-19.42,19.43Z"/><path class="cls-3" d="M199.72,58.42c-2.81-2.82-7.36-2.83-10.18-.03-2.82,2.81-2.83,7.36-.03,10.18,11.63,11.68,18.03,27.21,18.03,43.73,0,7.48-1.31,14.76-3.84,21.57h15.17c2.01-6.92,3.06-14.17,3.06-21.57,0-20.35-7.89-39.48-22.21-53.88ZM175.46,82.8c-2.8-2.83-7.36-2.84-10.17-.04-2.82,2.81-2.83,7.36-.03,10.18,5.14,5.16,7.97,12.02,7.97,19.34s-2.83,14.15-7.97,19.32c-2.02,2.03-2.58,4.97-1.66,7.5.28-.33.58-.65.89-.95,2.8-2.76,6.51-4.28,10.47-4.28h6.65c3.92-6.45,6-13.87,6-21.59,0-11.15-4.31-21.61-12.15-29.48Z"/><path class="cls-1" d="M246.52,148.85v3.5c0,3.85-3.12,6.98-6.98,6.98h-64.58c-3.86,0-6.98-3.13-6.98-6.98v-3.5c0-1.96.81-3.73,2.11-4.99,1.25-1.24,2.97-1.99,4.87-1.99h64.58c3.86,0,6.98,3.14,6.98,6.98Z"/><path class="cls-1" d="M154.89,150.6c0,5.45-3.32,10.11-8.05,12.08h0c-1.55.65-3.25,1.01-5.04,1.01-7.23,0-13.09-5.86-13.09-13.09,0-.26,0-.52.03-.78.37-6.42,5.37-11.59,11.71-12.24h.01c.44-.05.89-.07,1.34-.07,6.21,0,11.41,4.32,12.75,10.12.22.96.34,1.95.34,2.97Z"/><path class="cls-1" d="M246.52,183.76v3.5c0,3.85-3.12,6.98-6.98,6.98h-64.58c-3.86,0-6.98-3.13-6.98-6.98v-3.5c0-3.85,3.12-6.98,6.98-6.98h64.58c3.86,0,6.98,3.13,6.98,6.98Z"/><path class="cls-1" d="M154.89,185.51c0,1.46-.24,2.86-.68,4.17-1.74,5.18-6.64,8.92-12.41,8.92-7.23,0-13.09-5.86-13.09-13.09s5.86-13.09,13.09-13.09c2.23,0,4.34.56,6.17,1.54,4.12,2.21,6.92,6.55,6.92,11.55Z"/><path class="cls-1" d="M246.52,218.67v3.49c0,3.87-3.12,6.99-6.98,6.99h-64.58c-3.86,0-6.98-3.12-6.98-6.99v-3.49c0-3.85,3.12-6.98,6.98-6.98h64.58c3.86,0,6.98,3.13,6.98,6.98Z"/><circle class="cls-2" cx="141.8" cy="220.42" r="13.09"/></svg>