<?xml version="1.0" encoding="UTF-8"?><svg id="Ebene_1" xmlns="http://www.w3.org/2000/svg" xmlns:xlink="http://www.w3.org/1999/xlink" viewBox="0 0 288 288"><defs><style>.cls-1{fill:url(#Unbenannter_Verlauf_224);}.cls-2{fill:#16bcfb;fill-rule:evenodd;}.cls-3{fill:#e0e0e0;}</style><linearGradient id="Unbenannter_Verlauf_224" x1="0" y1="288" x2="288" y2="0" gradientUnits="userSpaceOnUse"><stop offset="0" stop-color="#3a6644"/><stop offset="1" stop-color="#5b8169"/></linearGradient></defs><rect class="cls-1" x="0" y="0" width="288" height="288"/><path class="cls-3" d="M127.1,134.9c-3.65,3.54-6.01,8.41-6.34,13.85l-.03.54h-45.44c-5.19,0-10.06,2.02-13.73,5.69-3.67,3.67-5.69,8.55-5.69,13.74v13.31c0,3.97-3.23,7.19-7.2,7.19s-7.19-3.22-7.19-7.19v-13.31c0-9.04,3.51-17.53,9.9-23.92,6.39-6.38,14.88-9.9,23.91-9.9h51.81Z"/><path class="cls-3" d="M162.36,168.72v6.42c-.39.6-.74,1.23-1.03,1.89-1.48-3.66-3.98-6.86-7.26-9.2l.77-.32v-.86c2.62-2.06,4.71-4.7,6.09-7.7.94,3.12,1.43,6.41,1.43,9.77Z"/><path class="cls-3" d="M101.92,55.03c-18.65,0-33.82,15.17-33.82,33.82s15.17,33.81,33.82,33.81,33.81-15.17,33.81-33.81-15.17-33.82-33.81-33.82ZM101.92,108.28c-10.72,0-19.43-8.72-19.43-19.43s8.71-19.43,19.43-19.43,19.42,8.71,19.42,19.43-8.71,19.43-19.42,19.43Z"/><path class="cls-3" d="M199.72,57.89c-2.81-2.82-7.36-2.83-10.18-.03-2.82,2.81-2.83,7.36-.03,10.18,11.63,11.68,18.03,27.21,18.03,43.73,0,7.48-1.31,14.76-3.84,21.57h15.16c2.02-6.92,3.07-14.17,3.07-21.57,0-20.35-7.89-39.48-22.21-53.88ZM175.46,82.26c-2.8-2.82-7.36-2.83-10.17-.03-2.82,2.81-2.83,7.36-.03,10.18,5.14,5.16,7.97,12.02,7.97,19.33s-2.83,14.16-7.97,19.33c-2.02,2.03-2.58,4.97-1.66,7.5.28-.33.58-.65.89-.95,2.8-2.76,6.51-4.28,10.47-4.28h6.65c3.92-6.45,6-13.87,6-21.6,0-11.14-4.31-21.6-12.15-29.48Z"/><path class="cls-2" d="M246.52,148.32v3.5c0,3.85-3.12,6.98-6.98,6.98h-64.58c-3.86,0-6.98-3.13-6.98-6.98v-3.5c0-1.96.81-3.73,2.11-4.99,1.25-1.24,2.97-1.99,4.87-1.99h64.58c3.86,0,6.98,3.13,6.98,6.98Z"/><path class="cls-2" d="M141.8,163.16c-7.23,0-13.09-5.86-13.09-13.09,0-.26,0-.52.03-.78.37-6.42,5.37-11.59,11.71-12.24h.01c.44-.05.89-.07,1.34-.07,6.21,0,11.41,4.32,12.75,10.12.22.96.34,1.95.34,2.97,0,5.45-3.32,10.11-8.05,12.08h0c-1.55.65-3.25,1.01-5.04,1.01Z"/><path class="cls-2" d="M246.52,183.23v3.49c0,3.86-3.12,6.99-6.98,6.99h-64.58c-3.86,0-6.98-3.13-6.98-6.99v-3.49c0-3.85,3.12-6.98,6.98-6.98h64.58c3.86,0,6.98,3.13,6.98,6.98Z"/><path class="cls-2" d="M154.89,184.98c0,1.46-.24,2.86-.68,4.17-1.74,5.18-6.64,8.92-12.41,8.92-7.23,0-13.09-5.86-13.09-13.09s5.86-13.09,13.09-13.09c2.23,0,4.34.56,6.17,1.54,4.12,2.21,6.92,6.55,6.92,11.55Z"/><path class="cls-2" d="M246.52,218.14v3.49c0,3.86-3.12,6.99-6.98,6.99h-64.58c-3.86,0-6.98-3.13-6.98-6.99v-3.49c0-3.85,3.12-6.98,6.98-6.98h64.58c3.86,0,6.98,3.13,6.98,6.98Z"/><path class="cls-2" d="M154.89,219.89c0,7.23-5.86,13.09-13.09,13.09s-13.09-5.86-13.09-13.09,5.86-13.09,13.09-13.09,13.09,5.86,13.09,13.09Z"/></svg>