<?xml version="1.0" encoding="UTF-8"?><svg id="Ebene_1" xmlns="http://www.w3.org/2000/svg" viewBox="0 0 288 288"><defs><style>.cls-1,.cls-2{fill:#efefef;}.cls-2{fill-rule:evenodd;}</style></defs><path class="cls-1" d="m176.9850810494,117.1508978272c4.6032861479-4.7244236609,10.1756839529-7.0260667349,16.5960515698-7.0260667349s11.9927711983,2.3016430739,16.5960573462,7.0260667349c4.7244279932,4.7244236609,7.0260652908,10.1756810648,7.0260652908,16.4749126127v19.1399725581h.3634139833c4.7244279932.2422779143,9.2065722958,1.5748093311,13.4464329077,3.997588474,3.7553163361-.7268337429,7.6317629647-.4845558286,11.6293514387.4845558286,3.8764466287.9691116572,7.3894792741,2.7861989025,10.2968257983,5.2089780454,8.7220164672-.2422779143,15.748081758,2.3016430739,21.0781958724,7.3894850504,5.3301141144,5.2089780454,7.8740351026,12.5984630959,7.8740351026,22.1684493749v8.1163187933c0,4.9667001311-.8479698118,10.0545421076-2.6650628336,15.5057980673-1.0902535025,3.1496186621-3.0284768168,7.3894792741-5.6935396504,12.8407467865-3.1496186621,6.2992373243-5.0878419765,10.9025119195-5.6935396504,13.8098584437,2.180507005,2.0593651597,3.3918908001,4.6032861479,3.3918908001,7.75290481v21.562751701c0,2.9073349715-1.0902535025,5.4512559597-3.1496186621,7.6317629647-2.180507005,2.180507005-4.6032861479,3.1496186621-7.6317629647,3.1496186621h-75.4696194007c-2.9073349715,0-5.4512559597-1.0902535025-7.6317629647-3.1496186621-2.1805012286-2.180507005-3.1496128858-4.6032861479-3.1496128858-7.6317629647v-21.562751701c0-3.997588474,1.6959454-7.0260652908,5.0878419765-9.0854304505-1.3325314168-2.9073349715-4.7244222169-6.6626513075-10.0545421076-11.1447956101-4.7244222169-3.9976000267-8.9642943815-7.0260768435-12.4773241387-9.3277141411-1.0902535025-.6056976739-3.2707576193-1.817081469-6.4203733933-3.3918908001-6.0569536336-2.4227791429-10.2968229101-4.8455582858-12.8407410101-7.0260652908-4.2398663883-3.6341744907-6.2992315479-8.2374606386-6.2992315479-13.8098584437,0-6.9049292218,2.1805041168-12.8407410101,6.7837873765-17.6863050723,4.4821471907-4.8455640622,10.0545421076-7.2683432051,16.8383323723-7.2683432051,5.2089780454,0,10.1756839529,1.0902535025,15.1423840841,3.3918965764v-41.066149795c-.1211418453-6.1780925908,2.3016430739-11.7504889517,7.0260652908-16.4749126127Zm25.6814820203,7.6317600765c-2.5439209882-2.6650585013-5.5723978051-3.8764495168-9.0854304505-3.8764495168s-6.5415094622,1.3325299727-9.0854304505,3.8764495168c-2.5439209882,2.5439209882-3.8764466287,5.5723978051-3.8764466287,8.8431525362v58.2678932624c-1.8170872454,0-4.6032861479-1.0902535025-8.3585967076-3.3918965764-3.1496186621-2.0593593833-5.6935396504-3.513026869-7.3894850504-4.3610024572-3.3918908001-1.3325314168-6.7837873765-2.0593651597-10.2968200219-2.0593651597s-6.4203705051,1.3325314168-8.9642914933,4.1187303193c-2.4227820311,2.6650570572-3.6341716025,6.0569536336-3.6341716025,10.0545421076,0,2.4227791429,1.2113895715,4.6032861479,3.7553105597,6.4203676169,1.4536674857,1.0902535025,4.2398663883,2.5439209882,8.1163187933,4.36101401,3.8764495168,1.817081469,6.7837873765,3.2707605075,8.6008746219,4.3610024572,5.2089780454,3.1496186621,10.4179618672,7.1472071361,15.869217827,12.1139072673,6.5415094622,6.0569536336,10.5390979362,11.2659374554,12.1139072673,15.8692120506h66.989915506c.8479698118-3.6341744907,3.0284768168-8.7220164672,6.4203676169-15.5057980674,2.4227791429-4.9667001311,4.1187303193-8.6008746219,5.0878419765-11.1447956101,1.5748093311-4.4821443026,2.3016372976-8.6008746219,2.3016372976-12.4773212505v-7.995176948c0-7.1472071361-1.9382233143-12.3561851816-5.9358117883-15.5057980673-3.8764466287-3.1496186621-9.4488444337-4.1187303193-16.5960515698-3.0284768168-1.5748093311-2.6650570572-4.3610024572-4.6032861479-8.3585909312-5.9358117883-3.997588474-1.2113895715-7.75290481-.8479755882-11.1447956101,1.2113895715-3.5130441981-3.3919023528-7.3894908268-5.0878477528-11.7505048367-5.2089838218-4.3610024572-.1211418453-7.995176948,1.0902477261-10.9025119195,3.5130326454v-33.6766647446c0-3.2707547311-1.3325314168-6.2992315479-3.876452405-8.8431525362Zm57.6621955885,146.8205604694v-21.562751701h-75.3485006608v21.562751701h75.3485006608Zm-15.384656222-15.5058096201c-1.3325256404,1.4536790385-2.0593651597,3.0284768168-2.0593651597,4.7244279932s.7268395192,3.3918908001,2.0593651597,4.7244279932c1.3325256404,1.3325256404,2.9073349715,2.0593651597,4.7244279932,2.0593651597,1.817081469,0,3.3918908001-.7268395192,4.7244279932-2.0593651597,1.3325256404-1.3325256404,2.0593651597-2.9073349715,2.0593651597-4.7244279932s-.7268395192-3.3918908001-2.0593651597-4.7244279932c-1.3325256404-1.3325256404-2.9073349715-2.0593651597-4.7244279932-2.0593651597-1.8170930217.1211418453-3.3919023528.7268395192-4.7244279932,2.0593651597Z"/><path class="cls-2" d="m116.4968440983,192.8990208757c4.2795776606,2.2875463812,6.7094172095,4.914395998,6.7094172095,7.7054171919v9.5989643137c0,8.8437416565-24.3968900842,16.012845545-54.4415099759,16.012845545s-54.4415099759-7.1691038885-54.4415099759-16.012845545v-9.5989643137c0-2.7910211939,2.4407839727-5.4178708107,6.7094172095-7.7054171919,1.9373039409,1.707434506,3.9731129158,3.3054560878,6.085543296,4.7940021163-1.0835762498,1.1930204885-1.6636724678,2.4517179584-1.6636724678,3.743253919,0,7.541266491,19.580988682,13.6596430587,43.6933028692,13.6596430587s43.6933133073-6.1183765676,43.6933133073-13.6596430587c0-1.4119298423-.689556114-2.7800819891-1.9701424316-4.060678745,1.9482431457-1.4009906375,3.8308301864-2.889536666,5.6258409597-4.4765772903Z"/><path class="cls-1" d="m69.1589895288,200.8075051912c-34.7810062354,0-63.050499888-28.2694936525-63.050499888-63.0174338088v-40.6286922297c0-1.8471914206,1.4969915825-3.3441830031,3.3441830031-3.3441830031s3.3441830031,1.4969915825,3.3441830031,3.3441830031v40.6286922297c0,31.0600703308,25.268997472,56.3290678027,56.3290678027,56.3290678027,31.0931364099,0,56.3621338819-25.268997472,56.3621338819-56.3290678027v-40.6286922297c0-1.8471914206,1.4969915825-3.3441830031,3.3441830031-3.3441830031s3.3441830031,1.4969915825,3.3441830031,3.3441830031v40.6286922297c0,34.7479401563-28.2694936525,63.0174338088-63.0174338088,63.0174338088Z"/><path class="cls-2" d="m24.8087614134,49.5823382567c0-24.2655465596,19.6904433589-43.9669382567,43.9559899185-43.9669382567s43.9669395614,19.7013916971,43.9669395614,43.9669382567v88.0980507001c0,24.2546073548-19.7013930019,43.9559899185-43.9669395614,43.9559899185s-43.9559899185-19.7013825637-43.9559899185-43.9559899185V49.5823382567Zm22.579980025-3.6228652564c0-15.1810197493,12.3243189644-27.5053334945,27.4943864611-27.5053334945,15.1810171397,0,27.5053361041,12.3243137453,27.5053361041,27.5053334945v94.0741393191c0,15.1810171397-12.3243189644,27.5053256659-27.5053361041,27.5053256659-15.1700674968,0-27.4943864611-12.3243085262-27.4943864611-27.5053256659V45.9594730002Z"/></svg>