<?xml version="1.0" encoding="UTF-8"?><svg id="Ebene_1" xmlns="http://www.w3.org/2000/svg" xmlns:xlink="http://www.w3.org/1999/xlink" viewBox="0 0 288 288"><defs><style>.cls-1{fill:rgba(25,28,30,.5500000119);}.cls-1,.cls-2,.cls-3,.cls-4,.cls-5,.cls-6,.cls-7,.cls-8,.cls-9,.cls-10,.cls-11,.cls-12,.cls-13,.cls-14,.cls-15,.cls-16{fill-rule:evenodd;}.cls-1,.cls-17,.cls-8,.cls-14{opacity:.6;}.cls-2{fill:rgba(25,28,30,.7200000286);}.cls-2,.cls-4,.cls-5,.cls-6,.cls-10,.cls-11,.cls-15,.cls-16{opacity:.4;}.cls-3{fill:rgba(25,28,30,.9900000095);opacity:.5;}.cls-4,.cls-9{fill:rgba(25,28,30,.8799999952);}.cls-5{fill:rgba(25,28,30,.7599999905);}.cls-6{fill:rgba(25,28,30,.4799999893);}.cls-18,.cls-13{fill:#e0e0e0;}.cls-7{opacity:.8;}.cls-7,.cls-10{fill:#191c1e;}.cls-8{fill:rgba(25,28,30,.6200000048);}.cls-9{opacity:.7;}.cls-11{fill:rgba(25,28,30,.5400000215);}.cls-12{fill:url(#Unbenannter_Verlauf_119);fill-opacity:.6600000262;}.cls-19{fill:#16bcfb;}.cls-14{fill:rgba(25,28,30,.6600000262);}.cls-15{fill:rgba(25,28,30,.4499999881);}.cls-20{fill:#1c2538;}.cls-16{fill:rgba(25,28,30,.3600000143);}</style><linearGradient id="Unbenannter_Verlauf_119" x1="5.7551258026" y1="297.8584088742" x2="119.3471603644" y2="184.2663743123" gradientUnits="userSpaceOnUse"><stop offset=".0000000031" stop-color="#3758bb"/><stop offset=".9999997066" stop-color="#2cffb2"/></linearGradient></defs><rect class="cls-20" width="288" height="288.0000000388"/><path class="cls-12" d="m-2.1910605484,260.7231721193l-.0000000013,29.1890504026h25.0188327398l.0000000013-14.7443138276c-8.3397614343-4.8150715669-16.6794963061-9.6296915706-25.0188327398-14.4447365749Zm26.7596354555-46.3488855122l-.0000000013,28.8894864289,25.0183811766,14.4443115743.0000000013-28.889048147c-8.3393098711-4.8150582856-16.6790713055-9.6296915706-25.0183811766-14.4447498562Zm-1.7408027129,0l-25.0188327411,14.444749854-.0000000013,28.889048147,25.0188327411-14.444311572.0000000013-28.8894864289Zm.8704013551,30.3970434659l-25.0188327411,14.4442850095,25.0188327398,14.4447631375,25.0188061786-14.4447631352c-8.3397348718-4.8146200037-16.6794963061-9.629665008-25.0188061773-14.4442850117Zm.870401362-123.09478793l-.0000000013,28.8894997102,25.0188061773,14.4443115743.0000000013-28.8890614282c-8.3397348718-4.8150582856-16.6794963061-9.6296915706-25.0188061773-14.4447498562Zm-1.7408027129,0l-25.0188327411,14.444749854-.0000000013,28.8890614282,25.0188327411-14.444311572.0000000013-28.8894997102Zm.8704013551,30.3970301846l-25.0188327411,14.444311572,25.0188327398,14.4447498562,25.0188061786-14.444749854c-8.3397348718-4.8146200037-16.6794963061-9.6296915706-25.0188061773-14.4443115743Zm54.3891941347,62.3007142821l-.0000000013,28.8894864289,25.0188327398,14.4443115743.0000000013-28.889048147c-8.3397614343-4.8150582856-16.6790713055-9.6296915706-25.0188327398-14.4447498562Zm-1.7408027129,0l-25.0188061786,14.444749854-.0000000013,28.889048147,25.0188061786-14.444311572.0000000013-28.8894864289Zm.8704013551,30.3970434659l-25.0188061786,14.4442850095,25.0188061773,14.4447631375,25.0188327411-14.4447631352c-8.3397614343-4.8146200037-16.6790713055-9.629665008-25.0188327398-14.4442850117Zm52.6488429891-30.3970434635l-25.0188061786,14.444749854-.0000000013,28.889048147,25.0188061786-14.444311572.0000000013-28.8894864289Zm.8704013551,30.3970434659l-25.0188194598,14.4442850095,25.0188194585,14.4447631375,25.0188194598-14.4447631352c-8.3397481531-4.8146200037-16.6795095874-9.629665008-25.0188194585-14.4442850117Zm-79.4084518793,15.951842044l-.0000000013,29.1890504002h25.0188061773l.0000000013-14.7443138252c-8.3393098711-4.8150715669-16.6790713055-9.6296915706-25.0188061773-14.4447365749Zm-1.7408027129,0l-25.0183811779,14.4447365727-.0000000013,14.7443138275h25.0183811779l.0000000013-29.1890504002Zm55.2600470572.0000000025l-.0000000013,29.1890503978h25.0188061773l.0000000013-14.7443138228c-8.3397481531-4.8150715669-16.6790713055-9.6296915706-25.0188061773-14.4447365749Zm-1.7408027129,0l-25.0188327411,14.4447365727-.0000000013,14.7443138251h25.0188327411l.0000000013-29.1890503978Zm55.2600337759.0000000025l-.0000000013,29.1890503954h25.0183811766l.0000000013-14.7443138204c-8.3393231524-4.8150715669-16.6790713055-9.6296915706-25.0183811766-14.4447365749Zm-1.7408027129,0l-25.0188194598,14.4447365727-.0000000013,14.7443138227h25.0188194598l.0000000013-29.1890503954ZM-2.1910605442,168.0254143738l-.0000000013,28.8894997102,25.0188327398,14.4443115743.0000000013-28.8890614282c-8.3397614343-4.8150582856-16.6794963061-9.6296915706-25.0188327398-14.4447498562Zm.0000000043,30.8995604569l-.0000000084,27.8840047133,24.148431386-13.9422234114c-8.3397614343-4.8146200037-15.8090949439-9.1271612982-24.1484313776-13.9417813019Zm53.5188193392-30.8995604545l-.0000000013,28.8894997102,25.0188061773,14.4443115743.0000000013-28.8890614282c-8.3393098711-4.8150582856-16.6790713055-9.6296915706-25.0188061773-14.4447498562Zm-1.7408027129,0l-25.0183811779,14.444749854-.0000000013,28.8890614282,25.0183811779-14.444311572.0000000013-28.8894997102Zm.8704013551,30.3970301846l-25.0183811779,14.444311572,25.0183811766,14.4447498562,25.0188061786-14.444749854c-8.3393098711-4.8146200037-16.6790713055-9.6296915706-25.0188061773-14.4443115743Zm52.6488429891-30.3970301822l-25.0188327411,14.444749854-.0000000013,28.8890614282,25.0188327411-14.444311572.0000000013-28.8894997102Zm.8704013551,30.3970301846l-25.0188327411,14.444311572,25.0188327398,14.4447498562,25.0188061786-14.444749854c-8.3397481531-4.8146200037-16.6790713055-9.6296915706-25.0188061773-14.4443115743Z"/><g class="cls-17"><path class="cls-14" d="m-2.1910605428,260.7231853934l-.0000000013,29.1890371285h25.0188327398l.0000000013-14.7443005536c-8.3397614343-4.8150715669-16.6794963061-9.6296915706-25.0188327398-14.4447365749Z"/><path class="cls-1" d="m24.5685749127,214.3742998812l-.0000000013,28.8894864289,25.0183811766,14.4443115743.0000000013-28.889048147c-8.3393098711-4.8150582856-16.6790713055-9.6296915706-25.0183811766-14.4447498562Z"/><path class="cls-7" d="m22.8277721998,214.3742998811l-25.0188327411,14.444749854-.0000000013,28.889048147,25.0188327411-14.444311572.0000000013-28.8894864289Z"/><path class="cls-5" d="m23.6981735549,244.771343347l-25.0188327411,14.4442850095,25.0188327398,14.4447631375,25.0188061786-14.4447631352c-8.3397348718-4.8146200037-16.6794963061-9.629665008-25.0188061773-14.4442850117Z"/><path class="cls-8" d="m24.5685749169,121.6765554169l-.0000000013,28.8894997102,25.0188061773,14.4443115743.0000000013-28.8890614282c-8.3397348718-4.8150582856-16.6794963061-9.6296915706-25.0188061773-14.4447498562Z"/><path class="cls-3" d="m22.8277722039,121.6765554169l-25.0188327411,14.444749854-.0000000013,28.8890614282,25.0188327411-14.444311572.0000000013-28.8894997102Z"/><path class="cls-5" d="m23.698173559,152.0735856015l-25.0188327411,14.444311572,25.0188327398,14.4447498562,25.0188061786-14.444749854c-8.3397348718-4.8146200037-16.6794963061-9.6296915706-25.0188061773-14.4443115743Z"/><path class="cls-2" d="m78.0873676937,214.3742998836l-.0000000013,28.8894864289,25.0188327398,14.4443115743.0000000013-28.889048147c-8.3397614343-4.8150582856-16.6790713055-9.6296915706-25.0188327398-14.4447498562Z"/><path class="cls-7" d="m76.3465649808,214.3742998835l-25.0188061786,14.444749854-.0000000013,28.889048147,25.0188061786-14.444311572.0000000013-28.8894864289Z"/><path class="cls-5" d="m77.2169663359,244.7713433494l-25.0188061786,14.4442850095,25.0188061773,14.4447631375,25.0188327411-14.4447631352c-8.3397614343-4.8146200037-16.6790713055-9.629665008-25.0188327398-14.4442850117Z"/><path class="cls-15" d="m129.865809325,214.3742998859l-25.0188061786,14.444749854-.0000000013,28.889048147,25.0188061786-14.444311572.0000000013-28.8894864289Z"/><path class="cls-6" d="m130.7362106801,244.7713433518l-25.0188194598,14.4442850095,25.0188194585,14.4447631375,25.0188194598-14.4447631352c-8.3397481531-4.8146200037-16.6795095874-9.629665008-25.0188194585-14.4442850117Z"/><path class="cls-1" d="m51.3277588008,260.7231853958l-.0000000013,29.1890371261h25.0188061773l.0000000013-14.7443005512c-8.3393098711-4.8150715669-16.6790713055-9.6296915706-25.0188061773-14.4447365749Z"/><path class="cls-7" d="m49.5869560879,260.7231853957l-25.0183811779,14.4447365727-.0000000013,14.7443005535h25.0183811779l.0000000013-29.1890371262Z"/><path class="cls-4" d="m104.8470031451,260.7231853982l-.0000000013,29.1890371237h25.0188061773l.0000000013-14.7443005488c-8.3397481531-4.8150715669-16.6790713055-9.6296915706-25.0188061773-14.4447365749Z"/><path class="cls-7" d="m103.1062004321,260.7231853981l-25.0188327411,14.4447365727-.0000000013,14.7443005511h25.0188327411l.0000000013-29.1890371238Z"/><path class="cls-4" d="m158.366234208,260.7231854006l-.0000000013,29.1890371213h25.0183811766l.0000000013-14.7443005464c-8.3393231524-4.8150715669-16.6790713055-9.6296915706-25.0183811766-14.4447365749Z"/><path class="cls-10" d="m156.6254314951,260.7231854005l-25.0188194598,14.4447365727-.0000000013,14.7443005487h25.0188194598l.0000000013-29.1890371214Z"/><path class="cls-1" d="m-2.1910605386,168.0254276479l-.0000000013,28.8894997102,25.0188327398,14.4443115743.0000000013-28.8890614282c-8.3397614343-4.8150582856-16.6794963061-9.6296915706-25.0188327398-14.4447498562Z"/><path class="cls-5" d="m-2.1910605399,198.9249748307l-.0000000084,27.8840047133,24.1484313916-13.9422101373c-8.3397614343-4.8146200037-15.8090949496-9.1271745723-24.1484313833-13.941794576Z"/><path class="cls-9" d="m51.327758805,168.0254276503l-.0000000013,28.8894997102,25.0188061773,14.4443115743.0000000013-28.8890614282c-8.3393098711-4.8150582856-16.6790713055-9.6296915706-25.0188061773-14.4447498562Z"/><path class="cls-7" d="m49.586956092,168.0254276502l-25.0183811779,14.444749854-.0000000013,28.8890614282,25.0183811779-14.444311572.0000000013-28.8894997102Z"/><path class="cls-5" d="m50.4573574471,198.4224578348l-25.0183811779,14.444311572,25.0183811766,14.4447498562,25.0188061786-14.444749854c-8.3393098711-4.8146200037-16.6790713055-9.6296915706-25.0188061773-14.4443115743Z"/><path class="cls-11" d="m103.1062004363,168.0254276526l-25.0188327411,14.444749854-.0000000013,28.8890614282,25.0188327411-14.444311572.0000000013-28.8894997102Z"/><path class="cls-16" d="m103.9766017914,198.4224578372l-25.0188327411,14.444311572,25.0188327398,14.4447498562,25.0188061786-14.444749854c-8.3397481531-4.8146200037-16.6790713055-9.6296915706-25.0188061773-14.4443115743Z"/></g><path class="cls-19" d="m184.5937550298,125.63923801c3.5891304357-3.6835799922,7.9338663308-5.4781452101,12.9397547509-5.4781452101s9.350628819,1.7945652179,12.9397592547,5.4781452101c3.68358337,3.6835799922,5.4781440841,7.9338640789,5.4781440841,12.8453040685v14.9232213336h.2833497954c3.68358337.1889013648,7.1782608714,1.2278611233,10.4840325042,3.1168747717,2.9279779107-.5667040945,5.9503997481-.3778027297,9.0672745198.3778027297,3.0224218374.7556054594,5.7614938795,2.1723679475,8.0283192651,4.0613815959,6.8004581418-.1889013648,12.2786022259,1.7945652179,16.4344322523,5.7614983833,4.1558300265,4.0613815959,6.1392966092,9.8228799792,6.1392966092,17.284490646v6.3282024778c0,3.8724802311-.6611525251,7.8394133965-2.077919517,12.0896963573-.8500583937,2.4557222467-2.3612693124,5.7614938795-4.4391888294,10.0117858478-2.4557222467,4.9114444934-3.9669331654,8.5005659215-4.4391888294,10.7673913071,1.7001167873,1.605663853,2.6446191078,3.5891304357,2.6446191078,6.0448526824v16.812234982c0,2.2668163781-.8500583937,4.2502829608-2.4557222467,5.9503997481-1.7001167873,1.7001167873-3.5891304357,2.4557222467-5.9503997481,2.4557222467h-58.8428134295c-2.2668163781,0-4.2502829608-.8500583937-5.9503997481-2.4557222467-1.7001122836-1.7001167873-2.4557177429-3.5891304357-2.4557177429-5.9503997481v-16.812234982c0-3.1168747717,1.3223095539-5.4781440841,3.9669331654-7.0838079371-1.0389597585-2.2668163781-3.6835788663-5.1947942887-7.8394133965-8.6894717901-3.6835788663-3.1168837793-6.9893595066-5.4781530916-9.7284292968-7.2727138057-.8500583937-.472255664-2.5501729291-1.4167579844-5.0058929239-2.6446191078-4.7225386248-1.8890136484-8.0283170132-3.7780272968-10.011781344-5.4781440841-3.3057761366-2.8335249764-4.9114399896-6.4226554121-4.9114399896-10.7673913071,0-5.3836956536,1.7001145354-10.011781344,5.2892427193-13.7898131446,3.4946797533-3.7780318006,7.8394133965-5.667045449,13.1286583676-5.667045449,4.0613815959,0,7.9338663308.8500583937,11.8063465619,2.6446236115v-32.0188151185c-.0944529343-4.8169893072,1.7945652179-9.1617240763,5.4781440841-12.8453040685Zm20.0235626881,5.9503974962c-1.9834665827-2.0779161392-4.3447358951-3.0224240893-7.0838079371-3.0224240893s-5.1003413544,1.0389586326-7.0838079371,3.0224240893c-1.9834665827,1.9834665827-3.0224218374,4.3447358951-3.0224218374,6.8949065723v45.4308210297c-1.4167624882,0-3.5891304357-.8500583937-6.5171038426-2.6446236115-2.4557222467-1.6056593493-4.4391888294-2.7390675383-5.7614983833-3.4002245671-2.6446191078-1.0389597585-5.2892427193-1.605663853-8.0283147613-1.605663853s-5.005890672,1.0389597585-6.9893572547,3.211327706c-1.8890159003,2.0779150132-2.8335227245,4.7225386248-2.8335227245,7.8394133965,0,1.8890136484.9445068242,3.5891304357,2.9279734069,5.0058884201,1.133408189.8500583937,3.3057761366,1.9834665827,6.3282024778,3.4002335746,3.0224240893,1.4167579844,5.2892427193,2.550175181,6.7060052075,3.4002245671,4.0613815959,2.4557222467,8.1227676956,5.5725970184,12.3730506564,9.4450772495,5.1003413544,4.7225386248,8.2172161262,8.7839247245,9.4450772495,12.3730461526h52.2312836752c.6611525251-2.8335249764,2.3612693124-6.8004581418,5.0058884201-12.0896963573,1.8890136484-3.8724802311,3.211327706-6.7060052075,3.9669331654-8.6894717901,1.2278611233-3.4946775014,1.7945607141-6.7060052075,1.7945607141-9.7284270449v-6.2337495435c0-5.5725970184-1.5112109187-9.6339786143-4.6280856905-12.0896963573-3.0224218374-2.4557222467-7.3671577325-3.211327706-12.9397547509-2.3612693124-1.2278611233-2.0779150132-3.4002245671-3.5891304357-6.5170993389-4.6280856905-3.1168747717-.9445068242-6.0448526824-.6611570288-8.6894717902.9445068242-2.7390810496-2.6446281153-5.761502887-3.9669376692-9.1617364617-4.0613860997-3.4002245671-.0944529343-6.2337495435.8500538899-8.5005659215,2.7390720421v-26.2573167353c0-2.5501706772-1.0389597585-4.9114399896-3.0224263412-6.8949065723Zm44.9585653657,114.4743396869v-16.812234982h-58.7483785103v16.812234982h58.7483785103Zm-11.995243423-12.0897053648c-1.0389552547,1.1334171966-1.605663853,2.3612693124-1.605663853,3.68358337s.5667085983,2.6446191078,1.605663853,3.68358337c1.0389552547,1.0389552547,2.2668163781,1.605663853,3.68358337,1.605663853,1.4167579844,0,2.6446191078-.5667085983,3.68358337-1.605663853,1.0389552547-1.0389552547,1.605663853-2.2668163781,1.605663853-3.68358337s-.5667085983-2.6446191078-1.605663853-3.68358337c-1.0389552547-1.0389552547-2.2668163781-1.605663853-3.68358337-1.605663853-1.4167669919.0944529343-2.6446281153.5667085983-3.68358337,1.605663853Z"/><path class="cls-13" d="m137.4317569986,184.6991976014c3.336738569,1.7835741851,5.2312571365,3.8316992867,5.2312571365,6.0078271206v7.4842045145c0,6.8953659028-19.0219808035,12.4850355727-42.447433017,12.4850355727s-42.447433017-5.58966967-42.447433017-12.4850355727v-7.4842045145c0-2.1761278339,1.9030518117-4.2242529355,5.2312571365-6.0078271206,1.5104940936,1.3312674806,3.0977914543,2.5772269347,4.7448296629,3.7378295313-.8448522148.9301846568-1.2971467116,1.9115769174-1.2971467116,2.9185729798,0,5.8798406654,15.2670766453,10.6502700609,34.0671768225,10.6502700609s34.067184961-4.7704293955,34.067184961-10.6502700609c0-1.1008658179-.5376391465-2.167598659-1.5360978955-3.1660655464,1.5190232686-1.0923366429,2.9868552104-2.2529392395,4.3864049217-3.4903369646Z"/><path class="cls-18" d="m100.5229642061,190.8653538743c-27.118359375,0-49.159765625-22.04140625-49.159765625-49.133984375v-31.677734375c0-1.440234375,1.1671875-2.607421875,2.607421875-2.607421875s2.607421875,1.1671875,2.607421875,2.607421875v31.677734375c0,24.2171875,19.701953125,43.919140625,43.919140625,43.919140625,24.24296875,0,43.944921875-19.701953125,43.944921875-43.919140625v-31.677734375c0-1.440234375,1.1671875-2.607421875,2.607421875-2.607421875s2.607421875,1.1671875,2.607421875,2.607421875v31.677734375c0,27.092578125-22.04140625,49.133984375-49.133984375,49.133984375Z"/><path class="cls-13" d="m65.9435901577,72.9567920657c0-18.9195737345,15.3524172258-34.2805272565,34.2719909604-34.2805272565s34.2805282738,15.360953522,34.2805282738,34.2805272565v68.6890592799c0,18.9110445596-15.3609545393,34.2719909604-34.2805282738,34.2719909604s-34.2719909604-15.3609464008-34.2719909604-34.2719909604v-68.6890592799Zm17.6053564653-2.8247072936c0-11.8364703555,9.6091328832-21.4455991694,21.4370638906-21.4455991694,11.8364683208,0,21.445601204,9.6091288139,21.445601204,21.4455991694v73.3485483623c0,11.8364683208-9.6091328832,21.4455930655-21.445601204,21.4455930655-11.8279310074,0-21.4370638906-9.6091247447-21.4370638906-21.4455930655v-73.3485483623Z"/></svg>