<?xml version="1.0" encoding="UTF-8"?><svg id="Ebene_1" xmlns="http://www.w3.org/2000/svg" viewBox="0 0 288 288"><defs><style>.cls-1{fill-rule:evenodd;}.cls-1,.cls-2{fill:#efefef;stroke-width:0px;}</style></defs><path class="cls-2" d="m81.2940074209,208.2687435071c-35.4324853196,0-64.2652798131-28.8327944935-64.2652798131-64.2653750412s28.8327944935-64.2653750412,64.2652798131-64.2653750412c21.4373773522,0,40.45634093,10.5470875727,52.1271205227,26.7265385531,1.7003936193-3.3232715348,3.6350484563-6.5216989817,5.772729682-9.5641427397-13.6987580042-16.8035761921-34.5434354299-27.5222648682-57.8998502046-27.5222648682-41.2208324161,0-74.6251488679,33.4043164518-74.6251488679,74.625244096,0,41.2053102297,33.4043164518,74.625244096,74.6251488679,74.625244096,23.3564147747,0,44.2010922005-10.7343060906,57.8842327901-27.5378822827-2.1220638112-3.0267311153-4.0567186482-6.2252537903-5.7571122675-9.5485253252-11.6707795926,16.1794509804-30.6897431704,26.7265385531-52.1271205227,26.7265385531Zm72.9401822068-80.0391541567c-1.2947217545,4.9302463515-1.9815070805,10.0945634644-1.9815070805,15.4149594943,0,5.4451448897.7180201551,10.7186886761,2.0752115676,15.726926872,1.0452240348-4.9614811805,1.5914526302-10.0945634644,1.5914526302-15.3681072507,0-5.4140052889-.5770825119-10.6874538471-1.6851571173-15.7737791155Z"/><path class="cls-2" d="m206.7033551434,79.7363753969c35.4344587316,0,64.2627189701,28.8282602385,64.2627189701,64.2628777195,0,35.4346968558-28.8282602385,64.2627983448-64.2627189701,64.2627983448s-64.2627189701-28.828101489-64.2627189701-64.2627983448c0-35.434617481,28.8282602385-64.2628777195,64.2627189701-64.2628777195h0Zm0-10.3649879588c-41.2157952223,0-74.6277863036,33.412070456-74.6277863036,74.6278656783,0,41.215874597,33.4119910813,74.6278656783,74.6277863036,74.6278656783s74.6277863036-33.4119910812,74.6277863036-74.6278656783c0-41.2157952223-33.4119910812-74.6278656783-74.6277863036-74.6278656783h0Z"/><path class="cls-1" d="m100.6279856768,147.1975106466c-10.4339565456,8.2636120689-26.5431291607,7.5491153548-37.8265206909-.404433899-3.2149019146,1.4559429909-6.1806870221,3.4914444253-8.7217546373,6.0392732382-5.5540858788,5.5539906507-8.6815683634,13.08958361-8.6815683634,20.9489522361,0,2.7903748786,1.1120741872,5.4662855362,3.0802493285,7.4344606775.4921390135.4852825876,1.0246547571.9235224754,1.5906908051,1.3008163553,8.7556558542,6.4166623463,19.5469083709,10.1979812214,31.2211161765,10.1979812214s22.4654603223-3.7813188752,31.2211161765-10.1979812214c.566036048-.3772938799,1.0985517917-.8155337677,1.5906908051-1.3008163553,1.9681751413-1.9681751413,3.0804397848-4.6440857989,3.0804397848-7.4344606775,0-7.8593686261-3.1276729409-15.3949615854-8.6817588197-20.9489522361-2.3186146865-2.3186146865-4.9808124924-4.212702337-7.8727005653-5.6348393392Z"/><ellipse class="cls-2" cx="81.2901982954" cy="121.1260464498" rx="24.3593575165" ry="25.8422500703"/><path class="cls-1" d="m226.0381097005,147.1975106466c-10.4339565456,8.2636120689-26.5431291607,7.5491153548-37.8265206909-.404433899-3.2149019146,1.4559429909-6.1806870221,3.4914444253-8.7217546373,6.0392732382-5.5540858788,5.5539906507-8.6817588197,13.08958361-8.6817588197,20.9489522361,0,2.7903748786,1.1122646434,5.4662855362,3.0804397848,7.4344606775.4921390135.4852825876,1.0246547571.9235224754,1.5906908051,1.3008163553,8.7556558542,6.4166623463,19.5469083709,10.1979812214,31.2211161765,10.1979812214s22.4654603223-3.7813188752,31.2211161765-10.1979812214c.566036048-.3772938799,1.0985517917-.8155337677,1.5906908051-1.3008163553,1.9681751413-1.9681751413,3.0804397848-4.6440857989,3.0804397848-7.4344606775,0-7.8593686261-3.1276729409-15.3949615854-8.6817588197-20.9489522361-2.3186146865-2.3186146865-4.9808124924-4.212702337-7.8727005653-5.6348393392Z"/><ellipse class="cls-2" cx="206.7003223191" cy="121.1260464498" rx="24.3593575165" ry="25.8422500703"/></svg>