<?xml version="1.0" encoding="UTF-8"?><svg id="Ebene_1" xmlns="http://www.w3.org/2000/svg" viewBox="0 0 288 288"><defs><style>.cls-1{fill-rule:evenodd;}.cls-1,.cls-2{fill:#efefef;stroke-width:0px;}</style></defs><path class="cls-2" d="m63.620614747,185.192161413c-22.7099609375,0-41.1899414062-18.4799804688-41.1899414062-41.1900024414s18.4799804688-41.1900024414,41.1899414062-41.1900024414c13.7399902344,0,25.9299316406,6.7600097656,33.41015625,17.1300048828,1.08984375-2.1300048828,2.3298339844-4.1799926758,3.6999511719-6.1300048828-8.7800292969-10.7700195312-22.1401367188-17.6400146484-37.1101074219-17.6400146484-26.419921875,0-47.8299560547,21.4100341797-47.8299560547,47.8300170898,0,26.4099731445,21.4100341797,47.8300170898,47.8299560547,47.8300170898,14.9699707031,0,28.330078125-6.8800048828,37.1000976562-17.6500244141-1.3601074219-1.9399414062-2.6000976562-3.9899902344-3.6899414062-6.1199951172-7.4802246094,10.3699951172-19.6701660156,17.1300048828-33.41015625,17.1300048828Zm46.75-51.299987793c-.8298339844,3.1599731445-1.2700195312,6.4699707031-1.2700195312,9.8800048828,0,3.4899902344.4602050781,6.8699951172,1.330078125,10.0799560547.669921875-3.1799926758,1.0200195312-6.4699707031,1.0200195312-9.8499755859,0-3.4700317383-.3698730469-6.8499755859-1.080078125-10.1099853516Z"/><path class="cls-2" d="m143.997946626,185.192161413c-22.7099609375,0-41.1899414062-18.4799804688-41.1899414062-41.1900024414s18.4799804688-41.1900024414,41.1899414062-41.1900024414c13.7399902344,0,25.9299316406,6.7600097656,33.41015625,17.1300048828,1.08984375-2.1300048828,2.3298339844-4.1799926758,3.6999511719-6.1300048828-8.7800292969-10.7700195312-22.1401367188-17.6400146484-37.1101074219-17.6400146484-26.419921875,0-47.8299560547,21.4100341797-47.8299560547,47.8300170898,0,26.4099731445,21.4100341797,47.8300170898,47.8299560547,47.8300170898,14.9699707031,0,28.330078125-6.8800048828,37.1000976562-17.6500244141-1.3601074219-1.9399414062-2.6000976562-3.9899902344-3.6899414062-6.1199951172-7.4802246094,10.3699951172-19.6701660156,17.1300048828-33.41015625,17.1300048828Zm46.75-51.299987793c-.8298339844,3.1599731445-1.2700195312,6.4699707031-1.2700195312,9.8800048828,0,3.4899902344.4602050781,6.8699951172,1.330078125,10.0799560547.669921875-3.1799926758,1.0200195312-6.4699707031,1.0200195312-9.8499755859,0-3.4700317383-.3698730469-6.8499755859-1.080078125-10.1099853516Z"/><path class="cls-2" d="m224.3776948251,102.8111194776c22.7112257686,0,41.1883000694,18.4770743008,41.1883000694,41.1884018176,0,22.711378391-18.4770743008,41.1883509435-41.1883000694,41.1883509435s-41.1883000694-18.4769725525-41.1883000694-41.1883509435c0-22.7113275169,18.4770743008-41.1884018176,41.1883000694-41.1884018176h0Zm0-6.6432955391c-26.4166933554,0-47.8316464826,21.4150040013-47.8316464826,47.8316973567,0,26.4167442295,21.4149531272,47.8316973567,47.8316464826,47.8316973567s47.8316464826-21.4149531272,47.8316464826-47.8316973567c0-26.4166933554-21.4149531272-47.8316973567-47.8316464826-47.8316973567h0Z"/><path class="cls-1" d="m76.0124604501,146.0494001825c-6.6875,5.2964477539-17.0124511719,4.8385009766-24.2443847656-.2592163086-2.060546875.9331665039-3.9614257812,2.2377929688-5.5900878906,3.8707885742-3.5598144531,3.559753418-5.5643310547,8.3895874023-5.5643310547,13.426940918,0,1.7884521484.7127685547,3.5035400391,1.9742431641,4.7650146484.3154296875.3110351562.6567382812.5919189453,1.01953125.8337402344,5.6118164062,4.1126708984,12.5283203125,6.5362548828,20.0107421875,6.5362548828s14.3989257812-2.4235839844,20.0107421875-6.5362548828c.3627929688-.2418212891.7041015625-.5227050781,1.01953125-.8337402344,1.2614746094-1.2614746094,1.9743652344-2.9765625,1.9743652344-4.7650146484,0-5.0373535156-2.0046386719-9.8671875-5.564453125-13.426940918-1.4860839844-1.4860839844-3.1923828125-2.7000732422-5.0458984375-3.6115722656Z"/><ellipse class="cls-2" cx="63.6181733407" cy="129.3392561395" rx="15.6127929688" ry="16.5632324219"/><path class="cls-1" d="m156.3923432626,146.0494001825c-6.6875,5.2964477539-17.0124511719,4.8385009766-24.2443847656-.2592163086-2.060546875.9331665039-3.9614257812,2.2377929688-5.5900878906,3.8707885742-3.5598144531,3.559753418-5.564453125,8.3895874023-5.564453125,13.426940918,0,1.7884521484.712890625,3.5035400391,1.9743652344,4.7650146484.3154296875.3110351562.6567382812.5919189453,1.01953125.8337402344,5.6118164062,4.1126708984,12.5283203125,6.5362548828,20.0107421875,6.5362548828s14.3989257812-2.4235839844,20.0107421875-6.5362548828c.3627929688-.2418212891.7041015625-.5227050781,1.01953125-.8337402344,1.2614746094-1.2614746094,1.9743652344-2.9765625,1.9743652344-4.7650146484,0-5.0373535156-2.0046386719-9.8671875-5.564453125-13.426940918-1.4860839844-1.4860839844-3.1923828125-2.7000732422-5.0458984375-3.6115722656Z"/><ellipse class="cls-2" cx="143.9980561532" cy="129.3392561395" rx="15.6127929688" ry="16.5632324219"/><path class="cls-1" d="m241.817880372,149.6609724481c-1.4860839844-1.4860839844-3.1923828125-2.7000732422-5.0456542969-3.6115722656-6.6875,5.2964477539-17.0126953125,4.8385009766-24.2446289062-.2592163086-2.060546875.9331665039-3.9614257812,2.2377929688-5.5900878906,3.8707885742-3.5598144531,3.559753418-5.5642089844,8.3895874023-5.5642089844,13.426940918,0,1.7884521484.712890625,3.5035400391,1.9741210938,4.7650146484.3154296875.3110351562.6567382812.5919189453,1.01953125.8337402344,5.6118164062,4.1126708984,12.5283203125,6.5362548828,20.0107421875,6.5362548828s14.3989257812-2.4235839844,20.0107421875-6.5362548828c.3627929688-.2418212891.7041015625-.5227050781,1.01953125-.8337402344,1.2614746094-1.2614746094,1.9741210938-2.9765625,1.9741210938-4.7650146484,0-5.0373535156-2.0043945312-9.8671875-5.5642089844-13.426940918Z"/><ellipse class="cls-2" cx="224.3776948251" cy="129.3392561395" rx="15.6127929688" ry="16.5632324219"/></svg>