<?xml version="1.0" encoding="UTF-8"?><svg id="Ebene_1" xmlns="http://www.w3.org/2000/svg" viewBox="0 0 288 288"><defs><style>.cls-1{fill:#dfdfdf;}</style></defs><path class="cls-1" d="M101.25,158.5c4.59-2.09,8.76-5.16,12.28-9.03,3.52-3.87,6.3-8.46,8.2-13.51,1.9-5.05,2.88-10.47,2.88-15.93v-10.16l-49.68,49.68c3.79,1.37,7.77,2.12,11.83,2.12,4.97,0,9.89-1.08,14.48-3.17Z"/><path class="cls-1" d="M122.04,44.66c.6-.6,1.25-1.13,1.92-1.63-1.39-8.21-4.98-15.85-10.43-21.84-7.1-7.81-16.73-12.2-26.76-12.2s-19.67,4.39-26.76,12.2-11.09,18.4-11.09,29.44v67.15L122.04,44.66Z"/><path class="cls-1" d="M156.16,99.22v8.37c-5.57,6.36-8.42,13.91-8.28,21.99v26.5c-.19.39-.39.77-.59,1.16-1.42-.14-2.86-.21-4.32-.21-.8,0-1.62.03-2.53.09-8.66.59-16.01,4.11-21.91,10.47-4.73,4.99-7.75,10.94-8.99,17.69-.4,2.26-.62,4.62-.63,7.03-4.1,1.53-8.34,2.64-12.68,3.3v14.66h18.86c1.11,1.38,2.37,2.68,3.78,3.88,1.59,1.37,3.52,2.71,5.76,4.02v5.97c0,.92-.17,1.82-.49,2.66-.31.85-.77,1.61-1.37,2.26-.59.64-1.29,1.15-2.05,1.5-.76.35-1.59.53-2.41.53h-63.09c-.83,0-1.65-.18-2.41-.53-.76-.35-1.46-.86-2.05-1.5-.58-.64-1.04-1.42-1.37-2.26-.31-.84-.48-1.74-.48-2.66v-6.95c0-.9.17-1.8.48-2.66.32-.84.79-1.61,1.37-2.26s1.28-1.15,2.05-1.5c.76-.35,1.59-.53,2.41-.53h22.08v-14.81c-9.66-1.74-18.78-5.65-26.9-11.34l14.49-14.49c5.23,2.9,10.92,4.85,16.84,5.67,7.01.77,14.1-.09,20.79-2.51,6.7-2.42,12.87-6.37,18.09-11.58,5.23-5.2,9.41-11.55,12.27-18.64,2.86-7.09,4.36-14.76,4.36-22.51v-20.82c0-.8.15-1.6.4-2.36l4.33-4.33c.52-.15,1.04-.26,1.57-.26h6.32c.83,0,1.65.18,2.41.53.77.36,1.47.86,2.05,1.51s1.04,1.42,1.37,2.26c.31.84.48,1.74.48,2.66Z"/><path class="cls-1" d="M37.29,129.42c-.68-3.88-1.05-7.84-.99-11.85v-18.35c0-1.84-.66-3.6-1.85-4.9s-2.79-2.03-4.46-2.03h-6.31c-.83,0-1.65.18-2.42.52-.77.35-1.46.86-2.05,1.5s-1.05,1.41-1.37,2.25c-.32.84-.48,1.74-.48,2.66v17.41c-.13,9.73,1.4,19.31,4.4,28.3l15.51-15.51Z"/><path class="cls-1" d="M135.25,50.59c-2.09,0-3.97.64-5.31,1.99L19.29,163.23c-2.06,2.06-2.09,4.96-1.92,6.51.34,3.13,2,6.39,4.56,8.95,4.9,4.91,11.98,6.11,15.45,2.64l110.66-110.66c2.06-2.06,2.09-4.96,1.92-6.51-.34-3.13-2-6.39-4.56-8.95-3.01-3.01-6.84-4.63-10.15-4.63Z"/><path class="cls-1" d="M262.78,165.88c-5.12-4.89-11.81-7.44-20.05-7.44-.37,0-.76,0-1.13.01-2.93-2.44-6.46-4.25-10.35-5.23-2.44-.59-4.82-.92-7.17-.92-1.52,0-3.03.14-4.52.43-4.25-2.44-8.77-3.78-13.51-4.01h-.37v-19.25c0-6.33-2.31-11.81-7.05-16.55-4.63-4.76-10.24-7.06-16.68-7.06s-12.05,2.31-16.68,7.06c-4.76,4.74-7.19,10.34-7.06,16.55v41.28c-4.99-2.31-9.99-3.4-15.22-3.4-.63,0-1.26.03-1.87.06-5.98.41-10.97,2.82-15.06,7.23-3.4,3.58-5.49,7.76-6.36,12.49-.31,1.69-.46,3.46-.46,5.29,0,5.61,2.08,10.24,6.34,13.88,2.55,2.19,6.81,4.63,12.9,7.06,3.16,1.59,5.35,2.8,6.45,3.4,3.53,2.32,7.8,5.36,12.54,9.38,5.36,4.5,8.77,8.28,10.11,11.2-3.4,2.06-5.12,5.11-5.12,9.13v21.67c0,3.04.98,5.48,3.17,7.67,2.19,2.08,4.74,3.17,7.67,3.17h75.85c3.04,0,5.48-.98,7.67-3.17,2.08-2.19,3.17-4.74,3.17-7.67v-21.67c0-3.17-1.22-5.72-3.42-7.8.62-2.91,2.57-7.54,5.72-13.87,2.68-5.48,4.63-9.75,5.72-12.9,1.83-5.49,2.68-10.6,2.68-15.59v-8.16c0-9.62-2.55-17.05-7.92-22.29ZM249.02,268.16h-75.74v-21.67h75.74v21.67ZM259.98,196.45c0,3.89-.73,8.03-2.32,12.54-.97,2.55-2.67,6.21-5.1,11.2-3.42,6.82-5.61,11.92-6.46,15.59h-67.33c-1.59-4.63-5.59-9.86-12.17-15.96-5.48-4.99-10.73-9-15.96-12.17-1.82-1.1-4.74-2.55-8.64-4.38-3.91-1.83-6.7-3.29-8.16-4.38-2.57-1.83-3.78-4.02-3.78-6.46,0-4.01,1.21-7.43,3.65-10.11,2.57-2.8,5.48-4.14,9.01-4.14s6.95.73,10.35,2.08c1.7.85,4.27,2.31,7.43,4.38,3.78,2.31,6.57,3.4,8.41,3.4v-58.56c0-3.29,1.34-6.33,3.89-8.88,2.57-2.57,5.61-3.91,9.14-3.91s6.57,1.22,9.13,3.91c2.55,2.55,3.89,5.59,3.89,8.88v33.85c2.8-2.32,6.25-3.55,10.36-3.55.19,0,.4.01.59.01,4.38.12,8.29,1.83,11.81,5.23,2.13-1.29,4.38-1.91,6.75-1.91,1.44,0,2.93.23,4.45.7,4.02,1.34,6.82,3.29,8.41,5.97,1.88-.3,3.66-.44,5.34-.44,4.68,0,8.47,1.15,11.34,3.48,4.02,3.16,5.97,8.39,5.97,15.59v8.03Z"/><path class="cls-1" d="M245.13,257.33c0,1.4-.44,2.67-1.26,3.79-.23.34-.5.64-.81.95-.36.36-.72.67-1.12.93-1.07.75-2.28,1.13-3.62,1.13s-2.57-.39-3.64-1.13c-.4-.26-.76-.57-1.12-.93-1.2-1.2-1.91-2.69-2.04-4.23-.01-.17-.03-.35-.03-.52,0-.18.01-.36.04-.53.12-1.51.82-2.91,2.02-4.23.36-.36.75-.67,1.15-.93,1.07-.71,2.27-1.04,3.61-1.13,1.34,0,2.55.39,3.62,1.13.4.26.76.57,1.12.93.31.31.58.62.81.95.83,1.12,1.26,2.38,1.26,3.8Z"/></svg>