<?xml version="1.0" encoding="UTF-8"?><svg id="Ebene_1" xmlns="http://www.w3.org/2000/svg" viewBox="0 0 288 288"><defs><style>.cls-1,.cls-2{fill:#efefef;}.cls-2{fill-rule:evenodd;}</style></defs><path class="cls-1" d="m182.7392848628,117.4342812128c4.5546999864-4.6745589331,10.0682829773-6.9519089263,16.4208857393-6.9519089263s11.8661914683,2.2773499932,16.4208914547,6.9519089263c4.6745632197,4.6745589331,6.9519074975,10.0682801196,6.9519074975,16.3010253638v18.9379564836h.359578269c4.6745632197.2397207511,9.1093999729,1.5581877399,13.3045102595,3.955395251,3.7156802152-.7191622533,7.551212233-.4794415022,11.5066074839.4794415022,3.8355320177.9588830044,7.3114857665,2.7567914954,10.1881462105,5.1539990065,8.6299584706-.2397207511,15.5818659681,2.2773499932,20.8557224925,7.3114914819,5.2738565244,5.1539990065,7.7909272687,12.4654904884,7.7909272687,21.9344687302v8.0306537352c0,4.9142782554-.8390197712,9.948419744-2.6369339776,15.3421395016-1.0787462377,3.1163754798-2.9965122465,7.3114857665-5.6334462241,12.7052169549-3.1163754798,6.2327509596-5.0341414886,10.7874395152-5.6334462241,13.6640999593,2.1574924754,2.0376292421,3.3560905155,4.5546999864,3.3560905155,7.6710754662v21.3351639947c0,2.8766490133-1.0787462377,5.3937197576-3.1163754798,7.551212233-2.1574924754,2.1574924754-4.5546999864,3.1163754798-7.551212233,3.1163754798h-74.6730625507c-2.8766490133,0-5.3937197576-1.0787462377-7.551212233-3.1163754798-2.15748676-2.1574924754-3.1163697644-4.5546999864-3.1163697644-7.551212233v-21.3351639947c0-3.955395251,1.6780452577-6.9519074975,5.0341414886-8.9895367396-1.3184669888-2.8766490133-4.6745575043-6.5923292285-9.948419744-11.0271659817-4.6745575043-3.9554066818-8.8696792218-6.9519189283-12.3456301128-9.2292632061-1.0787462377-.5993047355-3.2362358553-1.7979027756-6.3526084774-3.3560905155-5.9930244931-2.3972075111-10.1881433528-4.7944150221-12.7052112395-6.9519074975-4.1951160021-3.595816982-6.2327452442-8.1505169684-6.2327452442-13.6640999593,0-6.8320499796,2.1574896177-12.7052112395,6.7121867464-17.499631977,4.4348396109-4.7944207375,9.948419744-7.1916282486,16.6606093481-7.1916282486,5.1539990065,0,10.0682829773,1.0787462377,14.9825612327,3.3560962309v-40.6327101781c-.1198632333-6.1128848686,2.2773499932-11.6264664306,6.9519074975-16.3010253638Zm25.4104224789,7.5512093753c-2.5170707443-2.636929691-5.5135829909-3.8355348754-8.9895367396-3.8355348754s-6.4724659953,1.3184655599-8.9895367396,3.8355348754c-2.5170707443,2.5170707443-3.8355320177,5.5135829909-3.8355320177,8.7498159885v57.6528949375c-1.797908491,0-4.5546999864-1.0787462377-8.2703744863-3.3560962309-3.1163754798-2.0376235267-5.6334462241-3.4759480334-7.3114914819-4.3149735199-3.3560905155-1.3184669888-6.7121867464-2.0376292421-10.1881404951-2.0376292421s-6.3526056197,1.3184669888-8.869676364,4.0752584842c-2.3972103688,2.6369282622-3.5958141243,5.9930244931-3.5958141243,9.948419744,0,2.3972075111,1.1986037555,4.5546999864,3.7156744999,6.352602762,1.4383245066,1.0787462377,4.1951160021,2.5170707443,8.0306537352,4.3149849507,3.8355348754,1.7979027756,6.7121867464,3.236238713,8.5100952374,4.3149735199,5.1539990065,3.1163754798,10.3080037284,7.0717707307,15.701723486,11.9860489861,6.4724659953,5.9930244931,10.4278612462,11.147029215,11.9860489861,15.7017177706h66.2828591235c.8390197712-3.595816982,2.9965122465-8.6299584706,6.352602762-15.3421395016,2.3972075111-4.9142782554,4.0752584842-8.5100952374,5.0341414886-11.0271659817,1.5581877399-4.4348367532,2.2773442778-8.5100952374,2.2773442778-12.3456272551v-7.9107905019c0-7.0717707307-1.9177660089-12.2257697372-5.8731612598-15.3421395016-3.8355320177-3.1163754798-9.3491150086-4.0752584842-16.4208857393-2.9965122465-1.5581877399-2.6369282622-4.3149735199-4.5546999864-8.2703687709-5.8731612598-3.955395251-1.1986037555-7.6710754662-.8390254866-11.0271659817,1.1986037555-3.4759651795-3.3561019463-7.3114971972-5.034147204-11.626482148-5.1540047219-4.3149735199-.1198632333-7.9107905019,1.0787405223-10.7874395152,3.4759537487v-33.3212186962c0-3.2362329976-1.3184669888-6.2327452442-3.8355377331-8.7498159885Zm57.053590202,145.2709180557v-21.3351639947h-74.553222179v21.3351639947h74.553222179Zm-15.2222762684-15.3421509324c-1.3184612734,1.4383359374-2.0376292421,2.9965122465-2.0376292421,4.6745632197s.7191679687,3.3560905155,2.0376292421,4.6745632197c1.3184612734,1.3184612734,2.8766490133,2.0376292421,4.6745632197,2.0376292421,1.7979027756,0,3.3560905155-.7191679687,4.6745632197-2.0376292421,1.3184612734-1.3184612734,2.0376292421-2.8766490133,2.0376292421-4.6745632197s-.7191679687-3.3560905155-2.0376292421-4.6745632197c-1.3184612734-1.3184612734-2.8766490133-2.0376292421-4.6745632197-2.0376292421-1.7979142064.1198632332-3.3561019463.7191679687-4.6745632197,2.0376292421Z"/><path class="cls-2" d="m122.8894812294,192.3829078975c4.2344081351,2.2634020864,6.6386015318,4.862526175,6.6386015318,7.6240890642v9.4976504229c0,8.7503988908-24.1393889855,15.843835261-53.8668978599,15.843835261s-53.8668978599-7.0934363701-53.8668978599-15.843835261v-9.4976504229c0-2.7615628891,2.4150223059-5.3606869777,6.6386015318-7.6240890642,1.9168563391,1.6894131,3.9311780242,3.270568093,6.021312401,4.7434030109-1.0721394611,1.1804285522-1.6461129556,2.425840887-1.6461129556,3.7037451131,0,7.4616709196,19.3743178284,13.5154700479,43.2321345212,13.5154700479s43.2321448492-6.0537991283,43.2321448492-13.5154700479c0-1.3970273902-.6822780775-2.750739144-1.9493482304-4.017819625,1.9276800842-1.3862036451,3.7903970419-2.8590385631,5.5664620707-4.4293284989Z"/><path class="cls-1" d="m76.0512620446,200.2079207789c-34.4139042282,0-62.3850227333-27.9711185051-62.3850227333-62.3523056557v-40.1998698325c0-1.8276949266,1.4811913319-3.3088862585,3.3088862585-3.3088862585s3.3088862585,1.4811913319,3.3088862585,3.3088862585v40.1998698325c0,30.7322415702,25.0022915685,55.7345331387,55.7345331387,55.7345331387,30.7649586478,0,55.7672502163-25.0022915685,55.7672502163-55.7345331387v-40.1998698325c0-1.8276949266,1.4811913319-3.3088862585,3.3088862585-3.3088862585s3.3088862585,1.4811913319,3.3088862585,3.3088862585v40.1998698325c0,34.3811871506-27.9711185051,62.3523056557-62.3523056557,62.3523056557Z"/><path class="cls-2" d="m32.1691359057,50.5788854213c0-24.0094317483,19.4826172474-43.5028817778,43.4920489957-43.5028817778s43.5028830688,19.4934500295,43.5028830688,43.5028817778v87.1682049381c0,23.9986080032-19.4934513205,43.4920489957-43.5028830688,43.4920489957s-43.4920489957-19.4934409925-43.4920489957-43.4920489957V50.5788854213Zm22.3416558105-3.5846271129c0-15.0207891112,12.1942398574-27.2150238046,27.2041923135-27.2150238046,15.0207865292,0,27.2150263866,12.1942346934,27.2150263866,27.2150238046v93.08121792c0,15.0207865292-12.1942398574,27.2150160586-27.2150263866,27.2150160586-15.0099524561,0-27.2041923135-12.1942295294-27.2041923135-27.2150160586V46.9942583083Z"/><path class="cls-2" d="m3.1672155812,170.0953914685c-2.2742361595-2.2742361595-2.2742361595-5.9563337824,0-8.2197461968L117.4746342141,47.5682318028c2.2634020864-2.2634072504,5.9454997093-2.2634072504,8.2197358688,0l8.2197358688,8.2197358688c2.2634020864,2.2742361595,2.2634020864,5.9563337824,0,8.2197358688L19.6066873188,178.3151170093c-2.2634020864,2.2634227424-5.9563286184,2.2634227424-8.2197358688,0l-8.2197358688-8.2197255408Z"/><path class="cls-2" d="m14.6575195429,169.4347815373c-2.2742361595-2.2634124144-2.2742361595-5.9455100373,0-8.2197461968L121.2975128193,54.5750420641c2.2742361595-2.2742361595,5.9563337824-2.2742361595,8.2197461968,0l8.2197358688,8.2197358688c2.2742258315,2.2634072504,2.2742258315,5.9455048733,0,8.2197410328L31.0969964445,177.6545174061c-2.2742361595,2.2742258315-5.9563337824,2.2742258315-8.2197410328,0l-8.2197358688-8.2197358688Z"/></svg>