<?xml version="1.0" encoding="UTF-8"?><svg id="Ebene_1" xmlns="http://www.w3.org/2000/svg" xmlns:xlink="http://www.w3.org/1999/xlink" viewBox="0 0 288 288"><defs><style>.cls-1{fill:#e0e0e0;}.cls-2{fill:#16bcfb;}.cls-3{fill:url(#Unbenannter_Verlauf_68);}.cls-4{fill:#cc3838;}</style><linearGradient id="Unbenannter_Verlauf_68" x1="0" y1="288.3" x2="288" y2=".3" gradientUnits="userSpaceOnUse"><stop offset="0" stop-color="#1f3451"/><stop offset="1" stop-color="#1f477f"/></linearGradient></defs><rect class="cls-3" y=".3" width="288" height="288"/><path class="cls-1" d="M110.84,155.55c3.56-1.62,6.8-4,9.53-7,2.73-3,4.89-6.56,6.36-10.48,1.48-3.92,2.24-8.12,2.24-12.36v-7.88l-38.54,38.54c2.94,1.06,6.03,1.65,9.17,1.65,3.86,0,7.67-.83,11.24-2.46Z"/><path class="cls-1" d="M126.97,67.24c.47-.47.97-.88,1.49-1.26-1.08-6.37-3.86-12.29-8.09-16.94-5.51-6.06-12.97-9.46-20.76-9.46s-15.26,3.4-20.76,9.46c-5.51,6.06-8.6,14.27-8.6,22.84v52.09l56.73-56.73Z"/><path class="cls-1" d="M153.43,109.57v6.49c-4.32,4.93-6.53,10.79-6.42,17.06v20.56c-.15.3-.3.6-.46.9-1.1-.11-2.22-.16-3.35-.16-.62,0-1.26.02-1.96.07-6.72.46-12.42,3.19-17,8.12-3.67,3.87-6.01,8.49-6.97,13.72-.31,1.75-.48,3.58-.49,5.45-3.18,1.19-6.47,2.05-9.84,2.56v11.37h14.63c.86,1.07,1.84,2.08,2.93,3.01,1.23,1.06,2.73,2.1,4.47,3.12v4.63c0,.71-.13,1.41-.38,2.06-.24.66-.6,1.25-1.06,1.75-.46.5-1,.89-1.59,1.16-.59.27-1.23.41-1.87.41h-48.94c-.64,0-1.28-.14-1.87-.41-.59-.27-1.13-.67-1.59-1.16-.45-.5-.81-1.1-1.06-1.75-.24-.65-.37-1.35-.37-2.06v-5.39c0-.7.13-1.4.37-2.06.25-.65.61-1.25,1.06-1.75s.99-.89,1.59-1.16c.59-.27,1.23-.41,1.87-.41h17.13v-11.49c-7.49-1.35-14.57-4.38-20.87-8.8l11.24-11.24c4.06,2.25,8.47,3.76,13.06,4.4,5.44.6,10.94-.07,16.13-1.95,5.2-1.88,9.98-4.94,14.03-8.98,4.06-4.03,7.3-8.96,9.52-14.46,2.22-5.5,3.38-11.45,3.38-17.46v-16.15c0-.62.12-1.24.31-1.83l3.36-3.36c.4-.12.81-.2,1.22-.2h4.9c.64,0,1.28.14,1.87.41.6.28,1.14.67,1.59,1.17s.81,1.1,1.06,1.75c.24.65.37,1.35.37,2.06Z"/><path class="cls-1" d="M61.22,132.99c-.53-3.01-.81-6.08-.77-9.19v-14.23c0-1.43-.52-2.79-1.43-3.8s-2.16-1.58-3.46-1.58h-4.9c-.64,0-1.28.14-1.87.41-.59.27-1.13.67-1.59,1.17s-.82,1.09-1.06,1.75c-.25.65-.37,1.35-.37,2.06v13.5c-.1,7.55,1.08,14.98,3.42,21.95l12.03-12.03Z"/><path class="cls-4" d="M137.21,71.84c-1.62,0-3.08.5-4.12,1.54l-85.84,85.84c-1.6,1.6-1.62,3.85-1.49,5.05.26,2.43,1.55,4.96,3.54,6.94,3.8,3.81,9.3,4.74,11.99,2.05l85.84-85.84c1.6-1.6,1.62-3.85,1.49-5.05-.26-2.43-1.55-4.96-3.54-6.94-2.33-2.33-5.3-3.59-7.87-3.59Z"/><path class="cls-2" d="M236.14,161.28c-3.97-3.79-9.16-5.77-15.55-5.77-.29,0-.59,0-.88,0-2.27-1.89-5.01-3.3-8.03-4.06-1.89-.46-3.74-.71-5.56-.71-1.18,0-2.35.11-3.51.33-3.3-1.89-6.8-2.93-10.48-3.11h-.29v-14.93c0-4.91-1.79-9.16-5.47-12.84-3.59-3.69-7.94-5.48-12.94-5.48s-9.35,1.79-12.94,5.48c-3.69,3.68-5.58,8.02-5.48,12.84v32.02c-3.87-1.79-7.75-2.64-11.81-2.64-.49,0-.98.02-1.45.05-4.64.32-8.51,2.19-11.68,5.61-2.64,2.78-4.26,6.02-4.93,9.69-.24,1.31-.36,2.68-.36,4.1,0,4.35,1.61,7.94,4.92,10.77,1.98,1.7,5.28,3.59,10.01,5.48,2.45,1.23,4.15,2.17,5,2.64,2.74,1.8,6.05,4.16,9.73,7.28,4.16,3.49,6.8,6.42,7.84,8.69-2.64,1.6-3.97,3.96-3.97,7.08v16.81c0,2.36.76,4.25,2.46,5.95,1.7,1.61,3.68,2.46,5.95,2.46h58.84c2.36,0,4.25-.76,5.95-2.46,1.61-1.7,2.46-3.68,2.46-5.95v-16.81c0-2.46-.95-4.44-2.65-6.05.48-2.26,1.99-5.85,4.44-10.76,2.08-4.25,3.59-7.56,4.44-10.01,1.42-4.26,2.08-8.22,2.08-12.09v-6.33c0-7.46-1.98-13.23-6.14-17.29ZM225.47,240.62h-58.75v-16.81h58.75v16.81ZM233.97,184.99c0,3.02-.57,6.23-1.8,9.73-.75,1.98-2.07,4.82-3.96,8.69-2.65,5.29-4.35,9.25-5.01,12.09h-52.23c-1.23-3.59-4.34-7.65-9.44-12.38-4.25-3.87-8.32-6.98-12.38-9.44-1.41-.85-3.68-1.98-6.7-3.4-3.03-1.42-5.2-2.55-6.33-3.4-1.99-1.42-2.93-3.12-2.93-5.01,0-3.11.94-5.76,2.83-7.84,1.99-2.17,4.25-3.21,6.99-3.21s5.39.57,8.03,1.61c1.32.66,3.31,1.79,5.76,3.4,2.93,1.79,5.1,2.64,6.52,2.64v-45.43c0-2.55,1.04-4.91,3.02-6.89,1.99-1.99,4.35-3.03,7.09-3.03s5.1.95,7.08,3.03c1.98,1.98,3.02,4.34,3.02,6.89v26.26c2.17-1.8,4.85-2.75,8.04-2.75.15,0,.31.01.46.01,3.4.09,6.43,1.42,9.16,4.06,1.65-1,3.4-1.48,5.24-1.48,1.12,0,2.27.18,3.45.54,3.12,1.04,5.29,2.55,6.52,4.63,1.46-.23,2.84-.34,4.14-.34,3.63,0,6.57.89,8.8,2.7,3.12,2.45,4.63,6.51,4.63,12.09v6.23Z"/><path class="cls-2" d="M222.45,232.22c0,1.09-.34,2.07-.98,2.94-.18.26-.39.5-.63.74-.28.28-.56.52-.87.72-.83.58-1.77.88-2.81.88s-1.99-.3-2.82-.88c-.31-.2-.59-.44-.87-.72-.93-.93-1.48-2.09-1.58-3.28-.01-.13-.02-.27-.02-.4,0-.14.01-.28.03-.41.09-1.17.64-2.26,1.57-3.28.28-.28.58-.52.89-.72.83-.55,1.76-.81,2.8-.88,1.04,0,1.98.3,2.81.88.31.2.59.44.87.72.24.24.45.48.63.74.64.87.98,1.85.98,2.95Z"/></svg>