<?xml version="1.0" encoding="UTF-8"?><svg id="Ebene_1" xmlns="http://www.w3.org/2000/svg" viewBox="0 0 288 288"><defs><style>.cls-1{fill:#dfdfdf;}</style></defs><path class="cls-1" d="M144.01,194.62c6.04,0,12.03-1.31,17.61-3.85,5.58-2.54,10.66-6.27,14.93-10.97,4.27-4.7,7.66-10.28,9.98-16.42,2.31-6.14,3.5-12.73,3.5-19.37V59.62c0-13.43-4.85-26.3-13.48-35.8-8.63-9.49-20.34-14.83-32.54-14.83s-23.91,5.33-32.54,14.83c-8.63,9.49-13.48,22.37-13.48,35.8v84.37c0,13.43,4.85,26.3,13.48,35.8,8.63,9.49,20.34,14.83,32.54,14.83ZM220.71,110.25h-7.68c-1.01,0-2.01.22-2.94.64-.93.42-1.78,1.05-2.49,1.83-.71.78-1.28,1.72-1.66,2.74-.38,1.02-.58,2.12-.58,3.23v25.3c0,9.43-1.81,18.76-5.29,27.37-3.48,8.62-8.56,16.34-14.92,22.67s-13.85,11.12-21.99,14.07-16.76,3.99-25.29,3.06c-15.44-2.17-29.62-10.52-39.81-23.47-10.19-12.95-15.68-29.58-15.42-46.7v-22.31c0-2.24-.81-4.38-2.24-5.96-1.44-1.58-3.39-2.47-5.42-2.47h-7.68c-1.01,0-2.01.21-2.94.64-.93.42-1.78,1.04-2.49,1.83-.71.78-1.28,1.71-1.66,2.74-.39,1.02-.58,2.12-.58,3.23v21.17c-.3,22.92,6.89,45.21,20.26,62.79,13.37,17.59,32.04,29.3,52.6,33.03v18h-26.85c-1.01,0-2.01.22-2.94.64s-1.78,1.05-2.49,1.83-1.28,1.72-1.66,2.74c-.38,1.02-.58,2.12-.58,3.23v8.45c0,1.11.2,2.2.58,3.23.39,1.02.95,1.95,1.66,2.74.71.78,1.56,1.4,2.49,1.83.93.42,1.93.64,2.93.64h76.7c1.01,0,2.01-.21,2.94-.64.93-.42,1.78-1.04,2.49-1.83.71-.78,1.28-1.71,1.66-2.74.39-1.02.59-2.12.59-3.23v-8.43c0-1.11-.2-2.21-.58-3.23-.39-1.03-.95-1.96-1.66-2.74-.71-.78-1.56-1.41-2.49-1.83s-1.93-.64-2.94-.64h-26.85v-17.82c20.17-3.08,38.66-14.07,52.05-30.95,13.39-16.88,20.78-38.52,20.82-60.93v-25.3c0-1.11-.19-2.21-.58-3.23-.38-1.02-.95-1.96-1.66-2.74-.71-.78-1.56-1.41-2.49-1.83-.93-.42-1.93-.64-2.94-.64Z"/></svg>