<?xml version="1.0" encoding="UTF-8"?><svg id="Ebene_1" xmlns="http://www.w3.org/2000/svg" xmlns:xlink="http://www.w3.org/1999/xlink" viewBox="0 0 288 288"><defs><style>.cls-1,.cls-2{fill:#e0e0e0;}.cls-2{fill-rule:evenodd;}.cls-3{fill:url(#Unbenannter_Verlauf_68);}</style><linearGradient id="Unbenannter_Verlauf_68" x1="0" y1="288" x2="288" y2="0" gradientUnits="userSpaceOnUse"><stop offset="0" stop-color="#1f3451"/><stop offset="1" stop-color="#1f477f"/></linearGradient></defs><rect class="cls-3" width="288" height="288"/><path class="cls-2" d="M190.01,219.21c4.17,2.23,6.54,4.79,6.54,7.51v9.36c0,8.62-23.77,15.61-53.05,15.61s-53.05-6.99-53.05-15.61v-9.36c0-2.72,2.38-5.28,6.54-7.51,1.89,1.66,3.87,3.22,5.93,4.67-1.06,1.16-1.62,2.39-1.62,3.65,0,7.35,19.08,13.31,42.58,13.31s42.58-5.96,42.58-13.31c0-1.38-.67-2.71-1.92-3.96,1.9-1.37,3.73-2.82,5.48-4.36Z"/><path class="cls-1" d="M143.88,226.91c-33.89,0-61.44-27.55-61.44-61.42v-39.6c0-1.8,1.46-3.26,3.26-3.26s3.26,1.46,3.26,3.26v39.6c0,30.27,24.62,54.9,54.89,54.9s54.92-24.63,54.92-54.9v-39.6c0-1.8,1.46-3.26,3.26-3.26s3.26,1.46,3.26,3.26v39.6c0,33.87-27.55,61.42-61.41,61.42Z"/><path class="cls-2" d="M100.66,79.53c0-23.65,19.19-42.85,42.83-42.85s42.85,19.2,42.85,42.85v85.86c0,23.64-19.2,42.84-42.85,42.84s-42.83-19.2-42.83-42.84v-85.86ZM122.66,76c0-14.8,12.01-26.81,26.79-26.81s26.8,12.01,26.8,26.81v91.69c0,14.8-12.01,26.81-26.8,26.81s-26.79-12.01-26.79-26.81v-91.69Z"/></svg>