<?xml version="1.0" encoding="UTF-8"?><svg id="Ebene_1" xmlns="http://www.w3.org/2000/svg" xmlns:xlink="http://www.w3.org/1999/xlink" viewBox="0 0 288 288"><defs><style>.cls-1{fill:#e0e0e0;}.cls-2{fill:url(#Unbenannter_Verlauf_68);}</style><linearGradient id="Unbenannter_Verlauf_68" x1="0" y1="288" x2="288" y2="0" gradientUnits="userSpaceOnUse"><stop offset="0" stop-color="#1f3451"/><stop offset="1" stop-color="#1f477f"/></linearGradient></defs><rect class="cls-2" y="0" width="288" height="288"/><path class="cls-1" d="M144.01,184.31c4.81,0,9.58-1.04,14.02-3.07,4.45-2.03,8.49-4.99,11.89-8.74,3.4-3.74,6.1-8.19,7.94-13.08,1.84-4.89,2.79-10.13,2.79-15.43v-67.19c0-10.69-3.86-20.95-10.73-28.51-6.87-7.56-16.19-11.81-25.91-11.81s-19.04,4.25-25.91,11.81c-6.87,7.56-10.73,17.81-10.73,28.51v67.19c0,10.69,3.86,20.95,10.73,28.51,6.87,7.56,16.19,11.81,25.91,11.81ZM205.08,117.12h-6.11c-.8,0-1.6.17-2.34.51-.74.34-1.41.83-1.98,1.46-.57.62-1.02,1.37-1.32,2.18-.31.82-.46,1.69-.46,2.57v20.15c0,7.51-1.44,14.93-4.22,21.8-2.77,6.86-6.82,13.01-11.88,18.05s-11.03,8.85-17.51,11.2-13.34,3.18-20.14,2.44c-12.3-1.72-23.58-8.38-31.7-18.69-8.11-10.31-12.49-23.55-12.28-37.19v-17.76c0-1.78-.64-3.49-1.79-4.75-1.14-1.26-2.7-1.97-4.31-1.97h-6.11c-.8,0-1.6.17-2.34.51-.74.34-1.42.83-1.98,1.45-.57.62-1.02,1.36-1.33,2.18-.31.82-.47,1.69-.47,2.57v16.85c-.24,18.25,5.49,36,16.14,50,10.65,14,25.51,23.34,41.89,26.3v14.33h-21.38c-.8,0-1.6.17-2.34.51s-1.41.83-1.98,1.46-1.02,1.37-1.32,2.18c-.31.82-.46,1.69-.46,2.57v6.72c0,.88.16,1.75.46,2.57.31.81.76,1.55,1.32,2.18.57.62,1.24,1.12,1.98,1.45.74.34,1.53.51,2.34.51h61.08c.8,0,1.6-.17,2.34-.51.74-.34,1.42-.83,1.98-1.45.57-.62,1.02-1.36,1.33-2.18.31-.81.47-1.69.47-2.57v-6.71c0-.88-.16-1.76-.46-2.58-.31-.82-.76-1.56-1.33-2.18-.57-.62-1.24-1.12-1.98-1.46s-1.54-.51-2.34-.51h-21.38v-14.19c16.07-2.45,30.78-11.2,41.45-24.64,10.66-13.44,16.55-30.67,16.58-48.52v-20.15c0-.88-.16-1.76-.46-2.57-.31-.82-.75-1.56-1.32-2.18-.57-.62-1.24-1.12-1.98-1.46-.74-.34-1.54-.51-2.34-.51Z"/></svg>