<?xml version="1.0" encoding="UTF-8"?><svg id="Ebene_1" xmlns="http://www.w3.org/2000/svg" xmlns:xlink="http://www.w3.org/1999/xlink" viewBox="0 0 288 288"><defs><style>.cls-1{fill:#1c2538;}.cls-1,.cls-2,.cls-3{fill-rule:evenodd;}.cls-4,.cls-2{fill:#e0e0e0;}.cls-3{fill:#f82929;}.cls-5{fill:url(#Unbenannter_Verlauf_68);}</style><linearGradient id="Unbenannter_Verlauf_68" x1="0" y1="288" x2="288" y2="0" gradientUnits="userSpaceOnUse"><stop offset="0" stop-color="#1f3451"/><stop offset="1" stop-color="#1f477f"/></linearGradient></defs><rect class="cls-5" width="288" height="288"/><path class="cls-2" d="M190.18,219.21c4.17,2.23,6.54,4.79,6.54,7.51v9.36c0,8.62-23.78,15.61-53.06,15.61s-53.06-6.99-53.06-15.61v-9.36c0-2.72,2.38-5.28,6.54-7.51,1.89,1.66,3.87,3.22,5.93,4.67-1.06,1.16-1.62,2.39-1.62,3.65,0,7.35,19.08,13.31,42.58,13.31s42.58-5.96,42.58-13.31c0-1.38-.67-2.71-1.92-3.96,1.9-1.37,3.73-2.82,5.48-4.36Z"/><path class="cls-4" d="M144.04,226.91c-33.9,0-61.45-27.55-61.45-61.42v-39.6c0-1.8,1.46-3.26,3.26-3.26s3.26,1.46,3.26,3.26v39.6c0,30.27,24.63,54.9,54.9,54.9s54.93-24.63,54.93-54.9v-39.6c0-1.8,1.46-3.26,3.26-3.26s3.26,1.46,3.26,3.26v39.6c0,33.87-27.55,61.42-61.42,61.42Z"/><path class="cls-2" d="M100.82,79.53c0-23.65,19.19-42.85,42.84-42.85s42.85,19.2,42.85,42.85v85.86c0,23.64-19.2,42.84-42.85,42.84s-42.84-19.2-42.84-42.84v-85.86ZM122.83,76c0-14.8,12.01-26.81,26.8-26.81s26.81,12.01,26.81,26.81v91.69c0,14.8-12.01,26.81-26.81,26.81s-26.8-12.01-26.8-26.81v-91.69Z"/><path class="cls-1" d="M72.25,197.25c-2.24-2.24-2.24-5.87,0-8.1l112.59-112.59c2.23-2.23,5.86-2.23,8.1,0l8.1,8.1c2.23,2.24,2.23,5.87,0,8.1l-112.59,112.59c-2.23,2.23-5.87,2.23-8.1,0l-8.1-8.1Z"/><path class="cls-3" d="M83.57,196.6c-2.24-2.23-2.24-5.86,0-8.1l105.04-105.04c2.24-2.24,5.87-2.24,8.1,0l8.1,8.1c2.24,2.23,2.24,5.86,0,8.1l-105.04,105.04c-2.24,2.24-5.87,2.24-8.1,0l-8.1-8.1Z"/></svg>