<?xml version="1.0" encoding="UTF-8"?><svg id="Ebene_1" xmlns="http://www.w3.org/2000/svg" xmlns:xlink="http://www.w3.org/1999/xlink" viewBox="0 0 288 288"><defs><style>.cls-1{fill:#e0e0e0;}.cls-2{fill:url(#Unbenannter_Verlauf_68);}.cls-3{fill:#cc3838;}</style><linearGradient id="Unbenannter_Verlauf_68" x1=".12" y1="288.28" x2="288.12" y2=".28" gradientUnits="userSpaceOnUse"><stop offset="0" stop-color="#1f3451"/><stop offset="1" stop-color="#1f477f"/></linearGradient></defs><rect class="cls-2" x=".12" y=".28" width="288" height="288"/><path class="cls-1" d="M158.18,181.52c4.45-2.03,8.49-4.99,11.89-8.74,3.4-3.74,6.1-8.19,7.94-13.08,1.84-4.89,2.79-10.13,2.79-15.43v-9.84l-48.1,48.1c3.66,1.33,7.52,2.05,11.45,2.05,4.81,0,9.58-1.04,14.02-3.07Z"/><path class="cls-1" d="M178.3,71.31c.58-.58,1.21-1.1,1.86-1.58-1.34-7.95-4.82-15.34-10.1-21.14-6.87-7.56-16.19-11.81-25.91-11.81s-19.04,4.25-25.91,11.81c-6.87,7.56-10.73,17.81-10.73,28.51v65.01l70.8-70.8Z"/><path class="cls-1" d="M209.55,119.37c-.57-.62-1.24-1.12-1.98-1.46-.74-.34-1.54-.51-2.34-.51h-6.11c-.52,0-1.02.1-1.52.24l-4.2,4.2c-.24.73-.38,1.5-.38,2.29v20.15c0,7.51-1.44,14.93-4.22,21.8-2.77,6.86-6.82,13.01-11.88,18.05s-11.03,8.85-17.51,11.2c-6.48,2.35-13.34,3.18-20.14,2.44-5.73-.8-11.23-2.69-16.3-5.5l-14.03,14.03c7.86,5.52,16.7,9.29,26.05,10.99v14.33h-21.38c-.8,0-1.6.17-2.34.51-.74.34-1.41.83-1.98,1.46-.57.62-1.02,1.37-1.32,2.18s-.46,1.69-.46,2.57v6.73c0,.88.16,1.75.46,2.57.31.81.76,1.55,1.32,2.18.57.62,1.24,1.12,1.98,1.45.74.34,1.53.51,2.34.51h61.08c.8,0,1.6-.17,2.34-.51.74-.34,1.42-.83,1.98-1.45.57-.62,1.02-1.36,1.33-2.18.31-.81.47-1.69.47-2.57v-6.71c0-.88-.16-1.76-.46-2.58-.31-.82-.76-1.56-1.33-2.18s-1.24-1.12-1.98-1.46c-.74-.34-1.54-.51-2.34-.51h-21.38v-14.19c16.06-2.45,30.78-11.2,41.45-24.64,10.66-13.44,16.55-30.67,16.58-48.52v-20.15c0-.88-.16-1.76-.46-2.57-.31-.82-.75-1.56-1.32-2.18Z"/><path class="cls-1" d="M96.25,153.36c-.66-3.76-1.01-7.59-.96-11.47v-17.76c0-1.78-.64-3.49-1.79-4.75s-2.7-1.97-4.31-1.97h-6.11c-.8,0-1.6.17-2.34.51-.74.34-1.42.83-1.98,1.45s-1.02,1.36-1.33,2.18c-.31.82-.47,1.69-.47,2.57v16.85c-.12,9.42,1.35,18.7,4.26,27.4l15.02-15.02Z"/><path class="cls-3" d="M191.09,77.05c-2.02,0-3.84.62-5.14,1.92l-107.13,107.13c-1.99,2-2.02,4.8-1.86,6.3.33,3.03,1.94,6.19,4.41,8.66,4.75,4.75,11.6,5.92,14.96,2.56l107.13-107.13c2-2,2.02-4.8,1.86-6.3-.33-3.03-1.94-6.19-4.41-8.66-2.91-2.91-6.62-4.48-9.82-4.48Z"/></svg>