<?xml version="1.0" encoding="UTF-8"?><svg id="Ebene_1" xmlns="http://www.w3.org/2000/svg" viewBox="0 0 288 288"><defs><style>.cls-1,.cls-2{fill:#efefef;}.cls-2{fill-rule:evenodd;}</style></defs><path class="cls-2" d="m203.4040259023,240.584297038c5.3685342248,2.8699906997,8.4166566829,6.1656764316,8.4166566829,9.6673343367v12.0430075356c0,11.0954936315-30.6047815421,20.0899610897-68.2943815331,20.0899610897s-68.2943815331-8.9944674582-68.2943815331-20.0899610897v-12.0430075356c0-3.5016579052,3.0618517368-6.797343637,8.4166566829-9.6673343367,2.4302590899,2.1421734627,4.9840882346,4.1470757961,7.634035424,6.014628425-1.3592967913,1.4967817635-2.0870009357,3.075962873-2.0870009357,4.6963436556,0,9.4613883552,24.5634537403,17.1375972358,54.8112478495,17.1375972358s54.8112609437-7.6762088806,54.8112609437-17.1375972358c0-1.7714287891-.8650165721-3.4879334114-2.4714534729-5.0945897002,2.4439818214-1.7577042953,4.8056010653-3.6252569242,7.0573598917-5.6163823804Z"/><path class="cls-1" d="m144.0204283226,250.5064341712c-43.6311256559,0-79.0940650972-35.4673393877-79.0940650972-79.0632654724v-50.9727505105c0-2.3168860629,1.8787771139-4.1956631768,4.1956631768-4.1956631768s4.1956631768,1.8787771139,4.1956631768,4.1956631768v50.9727505105c0,38.9684395967,31.698471012,70.6719391188,70.6618820985,70.6719391188,39.0042677317,0,70.7027387436-31.7034995222,70.7027387436-70.6719391188v-50.9727505105c0-2.3168860629,1.8787771139-4.1956631768,4.1956631768-4.1956631768s4.1956631768,1.8787771139,4.1956631768,4.1956631768v50.9727505105c0,43.5959260847-35.4629394413,79.0632654724-79.053208452,79.0632654724Z"/><path class="cls-2" d="m88.385524327,60.77699363c0-30.4439260863,24.7007596208-55.16159363,55.1407767251-55.16159363s55.1545125508,24.7176675437,55.1545125508,55.16159363v110.5291627073c0,30.4302015926-24.7144954466,55.1478576774-55.1545125508,55.1478576774s-55.1407767251-24.7176560848-55.1407767251-55.1478576774V60.77699363Zm28.3255510642-4.545302197c0-19.0463397157,15.4602938431-34.5086123584,34.4904489208-34.5086123584,19.0438909034,0,34.5041847465,15.4622726426,34.5041847465,34.5086123584v118.02685495c0,19.0463364418-15.4602938431,34.5086025364-34.5041847465,34.5086025364-19.0301550777,0-34.4904489208-15.4622660947-34.4904489208-34.5086025364V56.2316914331Z"/></svg>