<?xml version="1.0" encoding="UTF-8"?><svg id="Ebene_1" xmlns="http://www.w3.org/2000/svg" xmlns:xlink="http://www.w3.org/1999/xlink" viewBox="0 0 288 288"><defs><style>.cls-1{fill:rgba(25,28,30,.5500000119);}.cls-1,.cls-2,.cls-3,.cls-4,.cls-5,.cls-6,.cls-7,.cls-8,.cls-9,.cls-10,.cls-11,.cls-12,.cls-13,.cls-14,.cls-15,.cls-16,.cls-17,.cls-18{fill-rule:evenodd;}.cls-1,.cls-19,.cls-8,.cls-15{opacity:.6;}.cls-2{fill:rgba(25,28,30,.7200000286);}.cls-2,.cls-4,.cls-5,.cls-6,.cls-10,.cls-12,.cls-16,.cls-18{opacity:.4;}.cls-3{fill:rgba(25,28,30,.9900000095);opacity:.5;}.cls-4,.cls-9{fill:rgba(25,28,30,.8799999952);}.cls-5{fill:rgba(25,28,30,.7599999905);}.cls-6{fill:rgba(25,28,30,.4799999893);}.cls-20,.cls-14{fill:#e0e0e0;}.cls-7{opacity:.8;}.cls-7,.cls-10{fill:#191c1e;}.cls-8{fill:rgba(25,28,30,.6200000048);}.cls-9{opacity:.7;}.cls-11{fill:#f82929;}.cls-12{fill:rgba(25,28,30,.5400000215);}.cls-13{fill:url(#Unbenannter_Verlauf_119);fill-opacity:.6600000262;}.cls-15{fill:rgba(25,28,30,.6600000262);}.cls-16{fill:rgba(25,28,30,.4499999881);}.cls-17,.cls-21{fill:#1c2538;}.cls-18{fill:rgba(25,28,30,.3600000143);}</style><linearGradient id="Unbenannter_Verlauf_119" x1="5.7551258026" y1="297.8584088742" x2="119.3471603644" y2="184.2663743123" gradientUnits="userSpaceOnUse"><stop offset=".0000000031" stop-color="#3758bb"/><stop offset=".9999997066" stop-color="#2cffb2"/></linearGradient></defs><rect class="cls-21" width="288" height="288.0000000388"/><path class="cls-13" d="m-2.1910605484,260.7231721193l-.0000000013,29.1890504026h25.0188327398l.0000000013-14.7443138276c-8.3397614343-4.8150715669-16.6794963061-9.6296915706-25.0188327398-14.4447365749Zm26.7596354555-46.3488855122l-.0000000013,28.8894864289,25.0183811766,14.4443115743.0000000013-28.889048147c-8.3393098711-4.8150582856-16.6790713055-9.6296915706-25.0183811766-14.4447498562Zm-1.7408027129,0l-25.0188327411,14.444749854-.0000000013,28.889048147,25.0188327411-14.444311572.0000000013-28.8894864289Zm.8704013551,30.3970434659l-25.0188327411,14.4442850095,25.0188327398,14.4447631375,25.0188061786-14.4447631352c-8.3397348718-4.8146200037-16.6794963061-9.629665008-25.0188061773-14.4442850117Zm.870401362-123.09478793l-.0000000013,28.8894997102,25.0188061773,14.4443115743.0000000013-28.8890614282c-8.3397348718-4.8150582856-16.6794963061-9.6296915706-25.0188061773-14.4447498562Zm-1.7408027129,0l-25.0188327411,14.444749854-.0000000013,28.8890614282,25.0188327411-14.444311572.0000000013-28.8894997102Zm.8704013551,30.3970301846l-25.0188327411,14.444311572,25.0188327398,14.4447498562,25.0188061786-14.444749854c-8.3397348718-4.8146200037-16.6794963061-9.6296915706-25.0188061773-14.4443115743Zm54.3891941347,62.3007142821l-.0000000013,28.8894864289,25.0188327398,14.4443115743.0000000013-28.889048147c-8.3397614343-4.8150582856-16.6790713055-9.6296915706-25.0188327398-14.4447498562Zm-1.7408027129,0l-25.0188061786,14.444749854-.0000000013,28.889048147,25.0188061786-14.444311572.0000000013-28.8894864289Zm.8704013551,30.3970434659l-25.0188061786,14.4442850095,25.0188061773,14.4447631375,25.0188327411-14.4447631352c-8.3397614343-4.8146200037-16.6790713055-9.629665008-25.0188327398-14.4442850117Zm52.6488429891-30.3970434635l-25.0188061786,14.444749854-.0000000013,28.889048147,25.0188061786-14.444311572.0000000013-28.8894864289Zm.8704013551,30.3970434659l-25.0188194598,14.4442850095,25.0188194585,14.4447631375,25.0188194598-14.4447631352c-8.3397481531-4.8146200037-16.6795095874-9.629665008-25.0188194585-14.4442850117Zm-79.4084518793,15.951842044l-.0000000013,29.1890504002h25.0188061773l.0000000013-14.7443138252c-8.3393098711-4.8150715669-16.6790713055-9.6296915706-25.0188061773-14.4447365749Zm-1.7408027129,0l-25.0183811779,14.4447365727-.0000000013,14.7443138276h25.0183811779l.0000000013-29.1890504002Zm55.2600470572.0000000025l-.0000000013,29.1890503978h25.0188061773l.0000000013-14.7443138228c-8.3397481531-4.8150715669-16.6790713055-9.6296915706-25.0188061773-14.4447365749Zm-1.7408027129,0l-25.0188327411,14.4447365727-.0000000013,14.7443138252h25.0188327411l.0000000013-29.1890503978Zm55.2600337759.0000000025l-.0000000013,29.1890503954h25.0183811766l.0000000013-14.7443138204c-8.3393231524-4.8150715669-16.6790713055-9.6296915706-25.0183811766-14.4447365749Zm-1.7408027129,0l-25.0188194598,14.4447365727-.0000000013,14.7443138227h25.0188194598l.0000000013-29.1890503954ZM-2.1910605442,168.0254143738l-.0000000013,28.8894997102,25.0188327398,14.4443115743.0000000013-28.8890614282c-8.3397614343-4.8150582856-16.6794963061-9.6296915706-25.0188327398-14.4447498562Zm.0000000043,30.8995604569l-.0000000084,27.8840047133,24.148431386-13.9422234114c-8.3397614343-4.8146200037-15.8090949439-9.1271612982-24.1484313776-13.9417813019Zm53.5188193392-30.8995604545l-.0000000013,28.8894997102,25.0188061773,14.4443115743.0000000013-28.8890614282c-8.3393098711-4.8150582856-16.6790713055-9.6296915706-25.0188061773-14.4447498562Zm-1.7408027129,0l-25.0183811779,14.444749854-.0000000013,28.8890614282,25.0183811779-14.444311572.0000000013-28.8894997102Zm.8704013551,30.3970301846l-25.0183811779,14.444311572,25.0183811766,14.4447498562,25.0188061786-14.444749854c-8.3393098711-4.8146200037-16.6790713055-9.6296915706-25.0188061773-14.4443115743Zm52.6488429891-30.3970301822l-25.0188327411,14.444749854-.0000000013,28.8890614282,25.0188327411-14.444311572.0000000013-28.8894997102Zm.8704013551,30.3970301846l-25.0188327411,14.444311572,25.0188327398,14.4447498562,25.0188061786-14.444749854c-8.3397481531-4.8146200037-16.6790713055-9.6296915706-25.0188061772-14.4443115743Z"/><g class="cls-19"><path class="cls-15" d="m-2.1910605428,260.7231853934l-.0000000013,29.1890371285h25.0188327398l.0000000013-14.7443005536c-8.3397614343-4.8150715669-16.6794963061-9.6296915706-25.0188327398-14.4447365749Z"/><path class="cls-1" d="m24.5685749127,214.3742998812l-.0000000013,28.8894864289,25.0183811766,14.4443115743.0000000013-28.889048147c-8.3393098711-4.8150582856-16.6790713055-9.6296915706-25.0183811766-14.4447498562Z"/><path class="cls-7" d="m22.8277721998,214.3742998811l-25.0188327411,14.444749854-.0000000013,28.889048147,25.0188327411-14.444311572.0000000013-28.8894864289Z"/><path class="cls-5" d="m23.6981735549,244.771343347l-25.0188327411,14.4442850095,25.0188327398,14.4447631375,25.0188061786-14.4447631352c-8.3397348718-4.8146200037-16.6794963061-9.629665008-25.0188061773-14.4442850117Z"/><path class="cls-8" d="m24.5685749169,121.6765554169l-.0000000013,28.8894997102,25.0188061773,14.4443115743.0000000013-28.8890614282c-8.3397348718-4.8150582856-16.6794963061-9.6296915706-25.0188061773-14.4447498562Z"/><path class="cls-3" d="m22.8277722039,121.6765554169l-25.0188327411,14.444749854-.0000000013,28.8890614282,25.0188327411-14.444311572.0000000013-28.8894997102Z"/><path class="cls-5" d="m23.698173559,152.0735856015l-25.0188327411,14.444311572,25.0188327398,14.4447498562,25.0188061786-14.444749854c-8.3397348718-4.8146200037-16.6794963061-9.6296915706-25.0188061773-14.4443115743Z"/><path class="cls-2" d="m78.0873676937,214.3742998836l-.0000000013,28.8894864289,25.0188327398,14.4443115743.0000000013-28.889048147c-8.3397614343-4.8150582856-16.6790713055-9.6296915706-25.0188327398-14.4447498562Z"/><path class="cls-7" d="m76.3465649808,214.3742998835l-25.0188061786,14.444749854-.0000000013,28.889048147,25.0188061786-14.444311572.0000000013-28.8894864289Z"/><path class="cls-5" d="m77.2169663359,244.7713433494l-25.0188061786,14.4442850095,25.0188061773,14.4447631375,25.0188327411-14.4447631352c-8.3397614343-4.8146200037-16.6790713055-9.629665008-25.0188327398-14.4442850117Z"/><path class="cls-16" d="m129.865809325,214.3742998859l-25.0188061786,14.444749854-.0000000013,28.889048147,25.0188061785-14.444311572.0000000013-28.8894864289Z"/><path class="cls-6" d="m130.7362106801,244.7713433518l-25.0188194598,14.4442850095,25.0188194585,14.4447631375,25.0188194598-14.4447631352c-8.3397481531-4.8146200037-16.6795095874-9.629665008-25.0188194585-14.4442850117Z"/><path class="cls-1" d="m51.3277588008,260.7231853958l-.0000000013,29.1890371261h25.0188061773l.0000000013-14.7443005512c-8.3393098711-4.8150715669-16.6790713055-9.6296915706-25.0188061773-14.4447365749Z"/><path class="cls-7" d="m49.5869560879,260.7231853957l-25.0183811779,14.4447365727-.0000000013,14.7443005535h25.0183811779l.0000000013-29.1890371262Z"/><path class="cls-4" d="m104.8470031451,260.7231853982l-.0000000013,29.1890371237h25.0188061773l.0000000013-14.7443005488c-8.3397481531-4.8150715669-16.6790713055-9.6296915706-25.0188061773-14.4447365749Z"/><path class="cls-7" d="m103.1062004321,260.7231853981l-25.0188327411,14.4447365727-.0000000013,14.7443005511h25.0188327411l.0000000013-29.1890371238Z"/><path class="cls-4" d="m158.366234208,260.7231854006l-.0000000013,29.1890371213h25.0183811766l.0000000013-14.7443005464c-8.3393231524-4.8150715669-16.6790713055-9.6296915706-25.0183811766-14.4447365749Z"/><path class="cls-10" d="m156.6254314951,260.7231854005l-25.0188194598,14.4447365727-.0000000013,14.7443005487h25.0188194598l.0000000013-29.1890371214Z"/><path class="cls-1" d="m-2.1910605386,168.0254276479l-.0000000013,28.8894997102,25.0188327398,14.4443115743.0000000013-28.8890614282c-8.3397614343-4.8150582856-16.6794963061-9.6296915706-25.0188327398-14.4447498562Z"/><path class="cls-5" d="m-2.1910605399,198.9249748307l-.0000000084,27.8840047133,24.1484313916-13.9422101373c-8.3397614343-4.8146200037-15.8090949496-9.1271745723-24.1484313833-13.941794576Z"/><path class="cls-9" d="m51.327758805,168.0254276503l-.0000000013,28.8894997102,25.0188061773,14.4443115743.0000000013-28.8890614282c-8.3393098711-4.8150582856-16.6790713055-9.6296915706-25.0188061773-14.4447498562Z"/><path class="cls-7" d="m49.586956092,168.0254276502l-25.0183811779,14.444749854-.0000000013,28.8890614282,25.0183811779-14.444311572.0000000013-28.8894997102Z"/><path class="cls-5" d="m50.4573574471,198.4224578348l-25.0183811779,14.444311572,25.0183811766,14.4447498562,25.0188061786-14.444749854c-8.3393098711-4.8146200037-16.6790713055-9.6296915706-25.0188061773-14.4443115743Z"/><path class="cls-12" d="m103.1062004363,168.0254276526l-25.0188327411,14.444749854-.0000000013,28.8890614282,25.0188327411-14.444311572.0000000013-28.8894997102Z"/><path class="cls-18" d="m103.9766017914,198.4224578372l-25.0188327411,14.444311572,25.0188327398,14.4447498562,25.0188061786-14.444749854c-8.3397481531-4.8146200037-16.6790713055-9.6296915706-25.0188061772-14.4443115743Z"/></g><path class="cls-14" d="m96.2222172336,100.5372877235c-4.3473453016,13.5693211513-6.9299305807,28.2039522522-6.9299305807,43.4627135593s2.5825852791,29.893392408,6.9299305807,43.4627084282l-10.6854358811-1.6356299888c-9.9859858083,0-18.0995989568-18.7452414282-18.0995989568-41.8270784393s8.1136131485-41.8270784393,18.0995989568-41.8270784393l10.6854358811-1.63563512Z"/><path class="cls-14" d="m172.2685134206,36.5c24.728232112,0,48.2943041837,48.1651664533,48.2943041837,107.5000012828s-23.5660720716,107.4999987172-48.2943041837,107.4999987172-69.202450585-48.1651638878-69.202450585-107.4999987172,44.474218473-107.5000012828,69.202450585-107.5000012828Zm-1.0976001547,17.4324339579c21.1233768071,0,38.2652733205,40.3636132768,38.2652733205,90.0675673249,0,49.7039591792-17.1418965134,90.0675775871-38.2652733205,90.0675775871-21.1233665448,0-38.276017908-40.3636184079-38.276017908-90.0675775871,0-49.7039540481,17.1526513632-90.0675673249,38.276017908-90.0675673249Z"/><ellipse class="cls-20" cx="170.8911332368" cy="144.2797800291" rx="16.237986278" ry="40.0085044015"/><path class="cls-17" d="m103.5610578771,197.6854407557c-2.2597601951-2.2597601951-2.2597601951-5.9184205358,0-8.1674258811l113.5798292295-113.5798240984c2.248995083-2.2490002141,5.9076554238-2.2490002141,8.1674258811,0l8.1674053566,8.1674156188c2.248995083,2.2597601951,2.248995083,5.9184205358,0,8.1674156188l-113.5798240984,113.5798240984c-2.2490053452,2.2490156075-5.9184205358,2.2490156075-8.1674156188,0l-8.1674207499-8.1674053566Z"/><path class="cls-11" d="m114.9782186428,197.0290357378c-2.2597499328-2.2490053452-2.2597499328-5.907665686,0-8.1674258811l105.9612239503-105.9612085569c2.2597499328-2.2597601951,5.9184102736-2.2597601951,8.1674053566,0l8.1674258811,8.1674156188c2.2597499328,2.2490002141,2.2597499328,5.9076605549,0,8.16742075l-105.9612136881,105.961213688c-2.2597601951,2.2597499328-5.9184205358,2.2597499328-8.1674156188,0l-8.1674258811-8.1674156188Z"/></svg>