<?xml version="1.0" encoding="UTF-8"?><svg id="Ebene_1" xmlns="http://www.w3.org/2000/svg" viewBox="0 0 288 288"><defs><style>.cls-1,.cls-2{fill:#efefef;}.cls-2{fill-rule:evenodd;}</style></defs><path class="cls-1" d="m160.6760497984,119.3756369789h-25.9286571202c17.9933235075-11.6746683987,17.9933235075-42.8482828594-2.8384469481-53.4616348863h25.9286453508c10.1196967984,15.7966024639,12.8470877972,36.677745504,2.8384587175,53.4616348863Z"/><path class="cls-1" d="m188.3447874602,153.6962329056h-31.0131741575c3.8874407701-2.3571495773,7.5774265103-5.1462357103,10.9712355906-8.3919388065,30.8897603504-29.4582025573,24.9907310169-88.2635399531-11.1687023898-113.4887466111h31.9264316227c17.5983899091,20.4121799884,27.3355345057,47.6613212983,23.1025327218,75.2930442335-2.7273909988,17.8452292928-11.4525329613,33.7899259714-23.8183233877,46.5876411841Z"/><path class="cls-2" d="m23.6281505599,155.5967537503c-.9749467146-.654071993-1.888189468-1.4068773856-2.7273851141-2.2460700893-3.3938002532-3.3814629918-5.294329925-7.9846944278-5.294329925-12.7730348051v-.0123460885c0-13.5011597902,5.3683770324-26.459315306,14.9203862065-36.0113156532,4.381090114-4.3810959987,9.4656248054-7.8736267091,15.00677646-10.3788705012,19.387866574,13.6616000933,47.081290528,14.9080489451,65.0252532204.691098489,4.9734610881,2.4435486579,9.5520003471,5.7015978425,13.5381745168,9.6877720121,9.5520121165,9.5520003471,14.9203950336,22.510155863,14.9203950336,36.0113156532v.0123460885c0,4.7883403773-1.9005326142,9.3915718134-5.294329925,12.7730348051-.8392044731.8391927037-1.7524383995,1.5919980963-2.7273909988,2.2460700893-15.0561313904,11.0206199444-33.6171513492,17.5367183137-53.6837703237,17.5367183137-20.0666307439,0-38.6276389333-6.5160983693-53.6837791507-17.5367183137Z"/><ellipse class="cls-1" cx="77.3119297107" cy="50.0433525213" rx="41.8856881179" ry="44.4279525213"/><path class="cls-2" d="m133.9976764936,218.8015635795l62.6340263312,53.7766853129c1.2653327073,1.2653387409,3.7960041555,0,3.7960041555-1.8979960442v-32.8986865917c8.8573410184-1.8979960442,18.3473453736-1.8979960442,27.8373497289.6326693704,9.4900043552,3.1633347851,18.9800087105,8.8573349848,26.5720049544,17.0820126663,6.3266695702,6.9593389406,11.3880003994,15.8166739254,14.5513351845,25.9393476511.6326693705,1.2653387409,2.5306654146,1.2653387409,2.5306654146,0,1.2653387409-10.7553430962,0-22.1433434956-3.7960041555-33.531343895-4.428673526-13.2860085108-13.2860085108-25.9393476511-24.6740089102-35.4293520064-11.3880003994-10.1226737257-25.9393476511-17.0820066327-42.3886849134-19.612678081h-.6326693705v-32.8986865917c0-1.8980020778-2.5306654146-3.1633347851-3.7960041555-1.8980020778l-62.6340263313,53.7766913464c-2.5306548559,1.8980020778-2.5306548559,5.6940062333.0000120672,6.9593389406Z"/></svg>