<?xml version="1.0" encoding="UTF-8"?><svg id="Ebene_1" xmlns="http://www.w3.org/2000/svg" viewBox="0 0 288 288"><defs><style>.cls-1{fill-rule:evenodd;}.cls-1,.cls-2{fill:#dfdfdf;}</style></defs><path class="cls-2" d="M158.35,158.7v5.66l-6.81,5.84-7.26,6.24-2.88,2.47c-.53-1.15-.83-2.42-.83-3.77v-16.44c0-6.41-2.5-12.44-7.03-16.98-4.53-4.53-10.56-7.03-16.98-7.03H50.77c-6.41,0-12.43,2.5-16.96,7.03-4.53,4.53-7.03,10.56-7.03,16.98v16.44c0,4.92-3.99,8.9-8.9,8.9s-8.88-3.98-8.88-8.9v-16.44c0-11.16,4.34-21.65,12.23-29.54,7.9-7.89,18.38-12.24,29.54-12.24h65.79c11.16,0,21.65,4.35,29.54,12.24,7.9,7.88,12.24,18.39,12.24,29.54Z"/><path class="cls-2" d="M83.68,18.25c-23.04,0-41.79,18.74-41.79,41.77s18.74,41.79,41.79,41.79,41.77-18.74,41.77-41.79-18.74-41.77-41.77-41.77ZM83.68,84.03c-13.24,0-24.01-10.76-24.01-24.01s10.76-24.01,24.01-24.01,23.99,10.77,23.99,24.01-10.76,24.01-23.99,24.01Z"/><path class="cls-2" d="M174.54,51.88c-3.46-3.47-9.09-3.48-12.57-.02-3.48,3.46-3.5,9.09-.04,12.57,6.35,6.38,9.85,14.86,9.85,23.88s-3.5,17.51-9.85,23.88c-3.46,3.48-3.45,9.11.04,12.58,1.73,1.72,4,2.58,6.26,2.58s4.57-.88,6.3-2.62c9.69-9.74,15.02-22.67,15.02-36.42s-5.34-26.69-15.02-36.42ZM231.95,88.35c0-25.14-9.75-48.79-27.44-66.58-3.47-3.47-9.09-3.48-12.58-.02-3.48,3.46-3.5,9.09-.04,12.57,14.37,14.43,22.28,33.63,22.28,54.04,0,15.31-4.45,29.94-12.75,42.38.16-.02.33-.02.49-.02,6.77,0,12.49,5.66,12.49,12.37v.15c11.39-15.89,17.54-34.9,17.54-54.87Z"/><path class="cls-1" d="M278.51,268.78c0,.65-.49.98-1.06.98s-1.24-.32-1.56-.98c-3.27-10.48-8.51-19.65-15.06-26.85-7.86-8.5-17.68-14.39-27.49-17.67-5.26-1.41-10.53-2.06-15.69-2.06-4.47,0-8.87.49-13.12,1.41v34.04c0,1.42-1.36,2.5-2.61,2.5-.48,0-.95-.16-1.32-.53l-64.8-55.65c-2.62-1.31-2.62-5.24,0-7.2l14.93-12.81,7.26-6.24,31.56-27.11,11.06-9.49c.37-.36.84-.52,1.32-.52,1.25,0,2.61,1.08,2.61,2.48v34.05h.65c17.03,2.62,32.09,9.82,43.86,20.29,11.79,9.82,20.95,22.92,25.54,36.67,3.93,11.77,5.24,23.56,3.93,34.69Z"/></svg>