<?xml version="1.0" encoding="UTF-8"?><svg id="Ebene_1" xmlns="http://www.w3.org/2000/svg" xmlns:xlink="http://www.w3.org/1999/xlink" viewBox="0 0 288 288"><defs><style>.cls-1{fill:url(#Unbenannter_Verlauf_224);}.cls-2{fill:#16bcfb;}.cls-2,.cls-3{fill-rule:evenodd;}.cls-4,.cls-3{fill:#e0e0e0;}</style><linearGradient id="Unbenannter_Verlauf_224" x1="0" y1="288" x2="288" y2="0" gradientUnits="userSpaceOnUse"><stop offset="0" stop-color="#3a6644"/><stop offset="1" stop-color="#5b8169"/></linearGradient></defs><rect class="cls-1" y="0" width="288" height="288"/><path class="cls-4" d="M172.82,133.95h-21.72c15.07-9.78,15.07-35.89-2.38-44.77h21.72c8.48,13.23,10.76,30.72,2.38,44.77Z"/><path class="cls-4" d="M196,162.69h-25.97c3.26-1.97,6.35-4.31,9.19-7.03,25.87-24.67,20.93-73.92-9.35-95.05h26.74c14.74,17.1,22.89,39.92,19.35,63.06-2.28,14.95-9.59,28.3-19.95,39.02Z"/><path class="cls-3" d="M58.05,164.29c-.82-.55-1.58-1.18-2.28-1.88-2.84-2.83-4.43-6.69-4.43-10.7h0c0-11.32,4.5-22.17,12.5-30.17,3.67-3.67,7.93-6.59,12.57-8.69,16.24,11.44,39.43,12.49,54.46.58,4.17,2.05,8,4.78,11.34,8.11,8,8,12.5,18.85,12.5,30.16h0c0,4.02-1.59,7.88-4.43,10.71-.7.7-1.47,1.33-2.28,1.88-12.61,9.23-28.15,14.69-44.96,14.69s-32.35-5.46-44.96-14.69Z"/><ellipse class="cls-4" cx="103.01" cy="75.88" rx="35.08" ry="37.21"/><path class="cls-2" d="M150.48,217.22l52.46,45.04c1.06,1.06,3.18,0,3.18-1.59v-27.55c7.42-1.59,15.37-1.59,23.31.53,7.95,2.65,15.9,7.42,22.25,14.31,5.3,5.83,9.54,13.25,12.19,21.72.53,1.06,2.12,1.06,2.12,0,1.06-9.01,0-18.55-3.18-28.08-3.71-11.13-11.13-21.72-20.66-29.67-9.54-8.48-21.72-14.31-35.5-16.43h-.53v-27.55c0-1.59-2.12-2.65-3.18-1.59l-52.46,45.04c-2.12,1.59-2.12,4.77,0,5.83Z"/></svg>