<?xml version="1.0" encoding="UTF-8"?><svg id="Ebene_1" xmlns="http://www.w3.org/2000/svg" xmlns:xlink="http://www.w3.org/1999/xlink" viewBox="0 0 288 288"><defs><style>.cls-1{fill:url(#Unbenannter_Verlauf_224);}.cls-2{fill:#16bcfb;fill-rule:evenodd;}.cls-3{fill:#e0e0e0;}</style><linearGradient id="Unbenannter_Verlauf_224" x1="0" y1="288.57" x2="288" y2=".57" gradientUnits="userSpaceOnUse"><stop offset="0" stop-color="#3a6644"/><stop offset="1" stop-color="#5b8169"/></linearGradient></defs><rect class="cls-1" y=".57" width="288" height="288"/><path class="cls-3" d="M155.62,156.47v4.59l-5.51,4.73-5.86,5.03-2.35,2.01c-.43-.92-.67-1.95-.67-3.04v-13.32c0-5.19-2.02-10.06-5.69-13.73-3.67-3.67-8.55-5.69-13.74-5.69h-53.25c-5.19,0-10.06,2.02-13.73,5.69-3.67,3.67-5.69,8.55-5.69,13.73v13.32c0,3.97-3.23,7.19-7.2,7.19s-7.19-3.22-7.19-7.19v-13.32c0-9.03,3.51-17.52,9.9-23.91,6.39-6.38,14.88-9.9,23.91-9.9h53.25c9.03,0,17.52,3.52,23.91,9.9,6.39,6.39,9.91,14.88,9.91,23.91Z"/><path class="cls-3" d="M95.18,42.79c-18.65,0-33.82,15.17-33.82,33.82s15.17,33.81,33.82,33.81,33.81-15.17,33.81-33.81-15.17-33.82-33.81-33.82ZM95.18,96.03c-10.72,0-19.43-8.71-19.43-19.42s8.71-19.43,19.43-19.43,19.42,8.71,19.42,19.43-8.71,19.42-19.42,19.42Z"/><path class="cls-3" d="M168.72,70.02c-2.8-2.82-7.36-2.83-10.17-.03-2.82,2.81-2.83,7.36-.03,10.18,5.14,5.16,7.97,12.02,7.97,19.33s-2.83,14.16-7.97,19.33c-2.8,2.81-2.79,7.37.03,10.17,1.4,1.4,3.24,2.1,5.07,2.1s3.7-.71,5.1-2.12c7.84-7.88,12.16-18.35,12.16-29.48s-4.32-21.61-12.16-29.48ZM215.19,99.53c0-20.35-7.89-39.49-22.21-53.88-2.81-2.82-7.36-2.83-10.18-.03-2.82,2.81-2.83,7.36-.03,10.18,11.63,11.68,18.03,27.21,18.03,43.73,0,12.39-3.6,24.22-10.31,34.29.13-.01.26-.01.39-.01,5.57,0,10.11,4.49,10.11,10.02v.11c9.22-12.86,14.2-28.25,14.2-44.41Z"/><path class="cls-2" d="M252.87,245.56c0,.53-.4.8-.86.8s-1-.27-1.26-.8c-2.65-8.48-6.89-15.89-12.19-21.72-6.36-6.89-14.31-11.66-22.25-14.31-4.26-1.13-8.52-1.66-12.7-1.66-3.62,0-7.18.39-10.62,1.13v27.55c0,1.15-1.1,2.02-2.11,2.02-.39,0-.77-.13-1.07-.43l-52.45-45.03c-2.12-1.06-2.12-4.24,0-5.83l12.1-10.39,5.86-5.03,25.54-21.94,8.95-7.68c.3-.3.68-.43,1.07-.43,1.01,0,2.11.87,2.11,2.02v27.55h.53c13.78,2.12,25.97,7.95,35.5,16.43,9.54,7.95,16.96,18.54,20.67,29.67,3.18,9.54,4.24,19.07,3.18,28.08Z"/></svg>