<?xml version="1.0" encoding="UTF-8"?><svg id="Ebene_1" xmlns="http://www.w3.org/2000/svg" xmlns:xlink="http://www.w3.org/1999/xlink" viewBox="0 0 288 288"><defs><style>.cls-1{fill:#16bcfb;fill-rule:evenodd;}.cls-2{fill:#e0e0e0;}.cls-3{fill:url(#Unbenannter_Verlauf_68);}</style><linearGradient id="Unbenannter_Verlauf_68" x1="0" y1="288.28" x2="288" y2=".28" gradientUnits="userSpaceOnUse"><stop offset="0" stop-color="#1f3451"/><stop offset="1" stop-color="#1f477f"/></linearGradient></defs><rect class="cls-3" y=".28" width="288" height="288"/><path class="cls-2" d="M155.62,156.19v4.58l-5.51,4.73-5.88,5.05-2.33,2c-.43-.93-.67-1.96-.67-3.05v-13.31c0-5.19-2.02-10.07-5.69-13.74-3.67-3.67-8.55-5.69-13.74-5.69h-53.25c-5.19,0-10.06,2.02-13.73,5.69-3.67,3.67-5.69,8.55-5.69,13.74v13.31c0,3.98-3.23,7.2-7.2,7.2s-7.19-3.22-7.19-7.2v-13.31c0-9.03,3.51-17.52,9.9-23.91,6.39-6.39,14.88-9.91,23.91-9.91h53.25c9.03,0,17.52,3.52,23.91,9.91,6.39,6.38,9.91,14.88,9.91,23.91Z"/><path class="cls-2" d="M95.18,42.51c-18.65,0-33.82,15.17-33.82,33.81s15.17,33.82,33.82,33.82,33.81-15.17,33.81-33.82-15.17-33.81-33.81-33.81ZM95.18,95.75c-10.72,0-19.43-8.71-19.43-19.43s8.71-19.43,19.43-19.43,19.42,8.72,19.42,19.43-8.71,19.43-19.42,19.43Z"/><path class="cls-2" d="M168.72,69.73c-2.8-2.81-7.36-2.82-10.17-.02-2.82,2.8-2.83,7.36-.03,10.17,5.14,5.16,7.97,12.03,7.97,19.33s-2.83,14.17-7.97,19.33c-2.8,2.82-2.79,7.37.03,10.18,1.4,1.39,3.24,2.09,5.07,2.09s3.7-.71,5.1-2.12c7.84-7.88,12.16-18.35,12.16-29.48s-4.32-21.6-12.16-29.48ZM215.19,99.25c0-20.35-7.89-39.49-22.21-53.89-2.81-2.81-7.36-2.82-10.18-.02s-2.83,7.36-.03,10.17c11.63,11.68,18.03,27.22,18.03,43.74,0,12.39-3.6,24.23-10.32,34.3.13-.02.27-.02.4-.02,5.48,0,10.11,4.58,10.11,10.01v.12c9.22-12.86,14.2-28.25,14.2-44.41Z"/><path class="cls-1" d="M252.87,245.28c0,.53-.4.79-.86.79s-1-.26-1.26-.79c-2.65-8.48-6.89-15.9-12.19-21.73-6.36-6.88-14.31-11.65-22.25-14.3-4.26-1.14-8.52-1.67-12.7-1.67-3.62,0-7.18.4-10.62,1.14v27.55c0,1.15-1.1,2.02-2.11,2.02-.39,0-.77-.13-1.07-.43l-52.45-45.04c-2.12-1.06-2.12-4.24,0-5.83l12.08-10.37,5.88-5.05,25.54-21.94,8.95-7.68c.3-.29.68-.42,1.07-.42,1.01,0,2.11.87,2.11,2.01v27.56h.53c13.78,2.12,25.97,7.95,35.5,16.42,9.54,7.95,16.96,18.55,20.67,29.68,3.18,9.53,4.24,19.07,3.18,28.08Z"/></svg>