<?xml version="1.0" encoding="UTF-8"?><svg id="Ebene_1" xmlns="http://www.w3.org/2000/svg" xmlns:xlink="http://www.w3.org/1999/xlink" viewBox="0 0 288 288"><defs><style>.cls-1{fill:#e0e0e0;fill-rule:evenodd;}.cls-2{fill:url(#Unbenannter_Verlauf_68);}</style><linearGradient id="Unbenannter_Verlauf_68" x1="0" y1="288" x2="288" y2="0" gradientUnits="userSpaceOnUse"><stop offset="0" stop-color="#1f3451"/><stop offset="1" stop-color="#1f477f"/></linearGradient></defs><rect class="cls-2" y="0" width="288" height="288"/><g id="backup"><path class="cls-1" d="M227.97,42.47c12.98,0,23.53,10.45,23.53,23.32v156.42c0,12.86-10.55,23.32-23.53,23.32H60.03c-12.98,0-23.53-10.45-23.53-23.32V65.79c0-12.86,10.55-23.32,23.53-23.32h167.94ZM220.28,54.54H79.86c-10.89,0-19.73,8.76-19.73,19.55v138.93c0,10.8,8.84,19.55,19.73,19.55h140.42c10.89,0,19.73-8.76,19.73-19.55V74.09c0-10.8-8.84-19.55-19.73-19.55Z"/></g><g id="label"><polygon class="cls-1" points="179.83 102.19 191.78 102.19 191.78 138.03 215.67 114.14 215.67 102.19 227.61 102.19 227.61 120.11 203.72 144 227.61 167.89 227.61 185.81 215.67 185.81 215.67 173.86 191.78 149.97 191.78 185.81 179.83 185.81 179.83 102.19"/><polygon class="cls-1" points="132.06 102.19 167.89 102.19 167.89 114.14 144 114.14 144 138.03 167.89 138.03 155.94 149.97 144 149.97 144 185.81 132.06 185.81 132.06 102.19"/><path class="cls-1" d="M84.28,102.19h23.89l11.94,11.94v71.67h-11.94v-35.83h-23.89v35.83h-11.94v-71.67l11.94-11.94ZM108.17,114.14h-23.89v23.89h23.89v-23.89Z"/></g></svg>