<?xml version="1.0" encoding="UTF-8"?><svg id="Ebene_1" xmlns="http://www.w3.org/2000/svg" viewBox="0 0 288 288"><defs><style>.cls-1{fill:#dfdfdf;fill-rule:evenodd;}</style></defs><g id="backup"><path class="cls-1" d="M249.45,16.5c16.3,0,29.55,13.13,29.55,29.28v196.44c0,16.15-13.24,29.28-29.55,29.28H38.55c-16.31,0-29.55-13.13-29.55-29.28V45.78c0-16.15,13.24-29.28,29.55-29.28h210.9ZM239.79,31.65H63.45c-13.68,0-24.78,11-24.78,24.55v174.47c0,13.56,11.1,24.56,24.78,24.56h176.34c13.68,0,24.78-11,24.78-24.56V56.2c0-13.56-11.1-24.55-24.78-24.55Z"/></g><g id="label"><path class="cls-1" d="M189,91.5h15v45l30-30v-15h15v22.5l-30,30,30,30v22.5h-15v-15l-30-30v45h-15v-105Z"/><path class="cls-1" d="M129,91.5h45v15h-30v30h30l-15,15h-15v45h-15v-105Z"/><path class="cls-1" d="M69,91.5h30l15,15v90h-15v-45h-30v45h-15v-90l15-15ZM99,106.5h-30v30h30v-30Z"/></g></svg>