<?xml version="1.0" encoding="UTF-8"?><svg id="Ebene_1" xmlns="http://www.w3.org/2000/svg" viewBox="0 0 288 288"><defs><style>.cls-1{fill:#efefef;fill-rule:evenodd;}</style></defs><g id="backup"><path class="cls-1" d="m254.1260741048,10.8461538462c17.0280254761,0,30.8603512345,13.7070135747,30.8603512345,30.5783876164v205.1509208097c0,16.8713703069-13.8323257584,30.5783838816-30.8603512345,30.5783838816H33.8739370998c-17.028029211,0-30.8603624391-13.7070135747-30.8603624391-30.5783838816V41.4245414626c0-16.8713740418,13.8323332282-30.5783876164,30.8603624391-30.5783876164h220.2521370051Zm-10.088377767,15.8218098054H59.8781013402c-14.286627243,0-25.878844587,11.4825617134-25.878844587,25.6438618332v182.2014576709c0,14.16129265,11.592217344,25.6438805075,25.878844587,25.6438805075h184.1595949976c14.2866347127,0,25.8788483218-11.4825878575,25.8788483218-25.6438805075V52.3118254847c0-14.1613001198-11.5922136091-25.6438618332-25.8788483218-25.6438618332Z"/></g><g id="label"><polygon class="cls-1" points="190.9954751131 89.1719457014 206.6606334842 89.1719457014 206.6606334842 136.1674208145 237.9909502262 104.8371040724 237.9909502262 89.1719457014 253.6561085973 89.1719457014 253.6561085973 112.6696832579 222.3257918552 144 253.6561085973 175.3303167421 253.6561085973 198.8280542986 237.9909502262 198.8280542986 237.9909502262 183.1628959276 206.6606334842 151.8325791855 206.6606334842 198.8280542986 190.9954751131 198.8280542986 190.9954751131 89.1719457014"/><polygon class="cls-1" points="128.334841629 89.1719457014 175.3303167421 89.1719457014 175.3303167421 104.8371040724 144 104.8371040724 144 136.1674208145 175.3303167421 136.1674208145 159.665158371 151.8325791855 144 151.8325791855 144 198.8280542986 128.334841629 198.8280542986 128.334841629 89.1719457014"/><path class="cls-1" d="m65.6742081448,89.1719457014h31.3303167421l15.665158371,15.665158371v93.9909502262h-15.665158371v-46.9954751131h-31.3303167421v46.9954751131h-15.665158371v-93.9909502262l15.665158371-15.665158371Zm31.3303167421,15.665158371h-31.3303167421v31.3303167421h31.3303167421v-31.3303167421Z"/></g></svg>