<?xml version="1.0" encoding="UTF-8"?><svg id="Ebene_1" xmlns="http://www.w3.org/2000/svg" viewBox="0 0 288 288"><defs><style>.cls-1{fill:#dfdfdf;}</style></defs><path class="cls-1" d="M100.68,112.28l9.56,10.36c1.58,1.71,4.15,1.71,5.73,0l17.25-18.69v50.92c0,2.42,1.81,4.39,4.05,4.39h13.52c2.24,0,4.05-1.96,4.05-4.39v-50.91l17.25,18.69c1.58,1.71,4.15,1.71,5.73,0l9.57-10.36c1.58-1.71,1.58-4.49,0-6.21l-40.5-43.86c-1.58-1.71-4.15-1.71-5.73,0l-40.49,43.86c-1.58,1.71-1.58,4.49,0,6.21Z"/><path class="cls-1" d="M234.63,13.72H53.37c-18.49,0-33.47,16.23-33.47,36.26v134.98c0,20.02,14.98,36.25,33.47,36.25h64.59l-30.53,33.07c-4.22,4.57-4.22,11.99,0,16.57h0c4.22,4.58,11.07,4.58,15.3,0l41.34-44.79,41.34,44.79c4.23,4.58,11.08,4.58,15.3,0h0c4.23-4.58,4.23-12,0-16.58l-30.53-33.06h64.46c18.48,0,33.47-16.23,33.47-36.25V49.97c0-20.02-14.98-36.25-33.47-36.25ZM246.47,184.96c0,7.08-5.3,12.82-11.84,12.82H53.37c-6.54,0-11.85-5.74-11.85-12.83V49.98c0-7.09,5.3-12.83,11.85-12.83h181.26c6.54,0,11.84,5.74,11.84,12.82v134.99Z"/></svg>