<?xml version="1.0" encoding="UTF-8"?><svg id="Ebene_1" xmlns="http://www.w3.org/2000/svg" viewBox="0 0 288 288"><defs><style>.cls-1{fill-rule:evenodd;}.cls-1,.cls-2{fill:#efefef;}</style></defs><path class="cls-1" d="M267.36,3.01h-92.82l17.62,17.62h57.58c9.73,0,17.62,7.9,17.62,17.62v140.99c0,9.73-7.9,17.62-17.62,17.62H38.26c-9.73,0-17.62-7.9-17.62-17.62V38.26c0-9.73,7.9-17.62,17.62-17.62h61.98L117.86,3.01H20.64C10.91,3.01,3.01,10.91,3.01,20.64v193.86c0,9.73,7.9,17.62,17.62,17.62h246.73c9.73,0,17.62-7.9,17.62-17.62V20.64c0-9.73-7.9-17.62-17.62-17.62Z"/><path class="cls-1" d="M65.21,92.82l12.46,12.46c3.44,3.44,9.02,3.44,12.46,0l36.25-36.25v48.53c0,4.86,3.95,8.81,8.81,8.81h17.62c4.86,0,8.81-3.95,8.81-8.81v-52.94l40.66,40.66c3.44,3.44,9.02,3.44,12.46,0l12.46-12.46c3.44-3.44,3.44-9.02,0-12.46L152.44,5.59c-1.71-1.71-3.95-2.56-6.2-2.57h-.07c-2.26.02-4.49.86-6.2,2.57l-74.76,74.78c-3.44,3.44-3.44,9.02,0,12.46Z"/><rect class="cls-2" x="126.38" y="144" width="35.25" height="35.25" rx="8.81" ry="8.81"/><path class="cls-1" d="M196.87,249.74h-105.74c-9.73,0-17.62,7.9-17.62,17.62s7.9,17.62,17.62,17.62h105.74c9.73,0,17.62-7.9,17.62-17.62s-7.9-17.62-17.62-17.62Z"/></svg>