<?xml version="1.0" encoding="UTF-8"?><svg id="Ebene_1" xmlns="http://www.w3.org/2000/svg" xmlns:xlink="http://www.w3.org/1999/xlink" viewBox="0 0 288 288"><defs><style>.cls-1,.cls-2{fill:#e0e0e0;}.cls-2{fill-rule:evenodd;}.cls-3{fill:url(#Unbenannter_Verlauf_68);}</style><linearGradient id="Unbenannter_Verlauf_68" x1="0" y1="288" x2="288" y2="0" gradientUnits="userSpaceOnUse"><stop offset="0" stop-color="#1f3451"/><stop offset="1" stop-color="#1f477f"/></linearGradient></defs><rect class="cls-3" y="0" width="288" height="288"/><path class="cls-2" d="M222.81,53.93h-59.3l11.26,11.26h36.78c6.21,0,11.26,5.04,11.26,11.26v90.07c0,6.21-5.04,11.26-11.26,11.26H76.45c-6.21,0-11.26-5.04-11.26-11.26v-90.07c0-6.21,5.04-11.26,11.26-11.26h39.6l11.26-11.26h-62.11c-6.21,0-11.26,5.04-11.26,11.26v123.84c0,6.21,5.04,11.26,11.26,11.26h157.62c6.21,0,11.26-5.04,11.26-11.26v-123.84c0-6.21-5.04-11.26-11.26-11.26Z"/><path class="cls-2" d="M93.66,111.31l7.96,7.96c2.2,2.2,5.76,2.2,7.96,0l23.16-23.16v31.01c0,3.11,2.52,5.63,5.63,5.63h11.26c3.11,0,5.63-2.52,5.63-5.63v-33.82l25.97,25.97c2.2,2.2,5.76,2.2,7.96,0l7.96-7.96c2.2-2.2,2.2-5.76,0-7.96l-47.76-47.77c-1.09-1.09-2.52-1.63-3.96-1.64h-.05c-1.44.01-2.87.55-3.96,1.64l-47.76,47.77c-2.2,2.2-2.2,5.76,0,7.96Z"/><rect class="cls-1" x="132.74" y="144" width="22.52" height="22.52" rx="5.63" ry="5.63"/><path class="cls-2" d="M177.78,211.55h-67.55c-6.21,0-11.26,5.04-11.26,11.26s5.04,11.26,11.26,11.26h67.55c6.21,0,11.26-5.04,11.26-11.26s-5.04-11.26-11.26-11.26Z"/></svg>