<?xml version="1.0" encoding="UTF-8"?><svg id="Ebene_1" xmlns="http://www.w3.org/2000/svg" xmlns:xlink="http://www.w3.org/1999/xlink" viewBox="0 0 288 288"><defs><style>.cls-1{fill:#e0e0e0;}.cls-2{fill:url(#Unbenannter_Verlauf_68);}</style><linearGradient id="Unbenannter_Verlauf_68" x1="0" y1="288" x2="288" y2="0" gradientUnits="userSpaceOnUse"><stop offset="0" stop-color="#1f3451"/><stop offset="1" stop-color="#1f477f"/></linearGradient></defs><rect class="cls-2" y="0" width="288" height="288"/><path class="cls-1" d="M108.55,118.2l7.83,7.83c1.29,1.29,3.39,1.29,4.69,0l14.12-14.12v38.47c0,1.83,1.48,3.32,3.32,3.32h11.07c1.83,0,3.32-1.48,3.32-3.32v-38.47l14.12,14.12c1.29,1.29,3.39,1.3,4.69,0l7.83-7.83c1.3-1.29,1.3-3.39,0-4.69l-33.15-33.14c-1.29-1.29-3.39-1.29-4.69,0l-33.14,33.14c-1.29,1.29-1.29,3.39,0,4.69Z"/><path class="cls-1" d="M144.03,79.4c-.85,0-1.7.32-2.34.97l-33.14,33.14c-1.29,1.29-1.29,3.39,0,4.69l7.83,7.83c.65.65,1.5.97,2.34.97s1.7-.32,2.34-.97l14.12-14.12v38.47c0,1.83,1.48,3.32,3.32,3.32h11.07c1.83,0,3.32-1.48,3.32-3.32v-38.47l14.12,14.12c.65.65,1.5.97,2.34.97s1.7-.32,2.34-.97l7.83-7.83c1.3-1.29,1.3-3.39,0-4.69l-33.15-33.14c-.65-.65-1.5-.97-2.34-.97h0Z"/><path class="cls-1" d="M218.18,43.73H69.83c-15.13,0-27.4,12.27-27.4,27.4v101.99c0,15.13,12.26,27.39,27.39,27.39h52.86l-24.99,24.99c-3.46,3.46-3.46,9.06,0,12.52h0c3.46,3.46,9.06,3.46,12.52,0l33.84-33.84,33.84,33.84c3.46,3.46,9.07,3.46,12.52,0h0c3.46-3.46,3.46-9.07,0-12.52l-24.99-24.98h52.75c15.13,0,27.39-12.26,27.39-27.39v-101.99c0-15.13-12.26-27.39-27.39-27.39ZM227.87,173.11c0,5.35-4.34,9.69-9.69,9.69H69.83c-5.35,0-9.69-4.34-9.69-9.69v-101.98c0-5.35,4.34-9.69,9.69-9.69h148.35c5.35,0,9.69,4.34,9.69,9.69v101.99Z"/><path class="cls-1" d="M218.18,43.73H69.83c-15.13,0-27.4,12.27-27.4,27.4v101.99c0,15.13,12.26,27.39,27.39,27.39h52.86l-24.99,24.99c-3.46,3.46-3.46,9.06,0,12.52,1.73,1.73,4,2.6,6.26,2.6s4.53-.86,6.26-2.59l33.84-33.84,33.84,33.84c1.73,1.73,4,2.59,6.26,2.59s4.53-.86,6.26-2.59h0c3.46-3.46,3.46-9.07,0-12.52l-24.99-24.98h52.75c15.13,0,27.39-12.26,27.39-27.39v-101.99c0-15.13-12.26-27.39-27.39-27.39h0ZM69.83,182.8c-5.35,0-9.69-4.34-9.69-9.69v-101.98c0-5.35,4.34-9.69,9.69-9.69h148.35c5.35,0,9.69,4.34,9.69,9.69v101.99c0,5.35-4.34,9.69-9.69,9.69H69.83Z"/></svg>