<?xml version="1.0" encoding="UTF-8"?><svg id="Ebene_1" xmlns="http://www.w3.org/2000/svg" xmlns:xlink="http://www.w3.org/1999/xlink" viewBox="0 0 288 288"><defs><style>.cls-1{fill:#323232;opacity:.3;}.cls-2{fill:url(#Unbenannter_Verlauf_9-2);}.cls-3{fill:url(#Unbenannter_Verlauf_14);}.cls-4,.cls-5{fill:#4dcaed;}.cls-6{fill:#b6bed5;}.cls-7{fill:#212f3a;}.cls-7,.cls-8,.cls-9,.cls-5{fill-rule:evenodd;}.cls-8{fill:url(#Unbenannter_Verlauf_2);}.cls-10{fill:none;}.cls-9{fill:url(#Unbenannter_Verlauf_25);}.cls-11{fill:url(#Unbenannter_Verlauf_5);}.cls-12{fill:#b7bdd2;}.cls-13{fill:url(#Unbenannter_Verlauf_9);}</style><linearGradient id="Unbenannter_Verlauf_5" x1="-2673.4133814981" y1="1141.0653280291" x2="-2672.7259120862" y2="1141.0653280291" gradientTransform="translate(414008.1466919286 -969377.7804300591) rotate(-90) scale(362.6997828484 -362.6997828484)" gradientUnits="userSpaceOnUse"><stop offset="0" stop-color="#384e8b"/><stop offset="1" stop-color="#26355d"/></linearGradient><linearGradient id="Unbenannter_Verlauf_2" x1="-2673.4133814203" y1="1141.065264083" x2="-2672.7259120694" y2="1141.065264083" gradientTransform="translate(414008.1594112485 -969377.7749758913) rotate(-89.9999992488) scale(362.6997828484 -362.6997828484)" gradientUnits="userSpaceOnUse"><stop offset="0" stop-color="#4864b2"/><stop offset="1" stop-color="#2b3c6a"/></linearGradient><linearGradient id="Unbenannter_Verlauf_14" x1="143.9999972344" y1="229.6978433598" x2="143.9999972344" y2="58.3021566402" gradientUnits="userSpaceOnUse"><stop offset=".0000001526" stop-color="#355167"/><stop offset="1" stop-color="#22303c"/></linearGradient><linearGradient id="Unbenannter_Verlauf_9" x1="78.3412471203" y1="187.7880995309" x2="127.999115492" y2="32.6697868651" gradientUnits="userSpaceOnUse"><stop offset="0" stop-color="#b7bdd2"/><stop offset=".9999994659" stop-color="#95a3c7"/></linearGradient><linearGradient id="Unbenannter_Verlauf_9-2" x1="118.3388901687" y1="200.5925045011" x2="167.9967585403" y2="45.4741918353" xlink:href="#Unbenannter_Verlauf_9"/><linearGradient id="Unbenannter_Verlauf_25" x1="90.5063827599" y1="187.335980236" x2="165.3704904719" y2="57.6675420155" gradientUnits="userSpaceOnUse"><stop offset="0" stop-color="#b7bdd2"/><stop offset=".9999998474" stop-color="#96a3c8"/></linearGradient></defs><circle class="cls-11" cx="144" cy="144" r="124.6724976776"/><path class="cls-4" d="m162.215876329,51.7399776664c-2.6965459671,9.1545287536-4.7255527984,17.8193637861-6.2508111282,25.8365881027,15.0137359415,2.6621851757,28.8173343154,10.1948342287,39.286803148,21.5652774151,11.8660944562,12.8864295568,18.1458542365,29.3722254355,17.6826758027,46.4205481658-.1188153374,4.3797632466-.666070726,8.6935739119-1.6176842438,12.8938555153-2.7446259024,12.6677623469-9.166150169,24.3266012357-18.6937808983,33.6566259484-12.5333399101,12.2735572233-29.0537063531,19.1658537006-46.5178827642,19.4071763773-.3238892671.0043632751-.6501279901.0067127309-.9733459841.0067127309-17.9991810658.0006712731-34.8991524426-6.9107564873-47.6879117644-19.5239778954-12.8894502857-12.7122341893-19.9878276023-29.6474474034-19.9878276023-47.6855623086l-.0006712731-.2752219679c-.0216485572-8.1242923748.0619634488-39.9313550942,2.8046174865-68.2920139339.0172852821-.1785586426.0426292899-.4285555468.0601243449-.6068205074-18.2606419353,17.063216602-29.6625090934,41.3741203746-29.6625090934,68.3379018634,0,51.6346199572,41.8581566834,93.4927766407,93.4927766407,93.4927766407s93.4928185952-41.8581566834,93.4928185952-93.4927766407c0-45.453579276-32.4390204677-83.3239542443-75.4273912661-91.7410895058Z"/><path id="accent" class="cls-8" d="m144,19.3275189157c68.8088233544,0,124.6724921465,55.8636687921,124.6724921465,124.6724810843s-55.8636687921,124.6725032087-124.6724921465,124.6725032087c-68.7624172589,0-124.6260888166-55.8636909166-124.6260888166-124.6725032087S75.2375827411,19.3275189157,144,19.3275189157Zm0,7.7949186951c64.5401705543,0,116.8775734514,52.3837979303,116.8775734514,116.8775623892,0,64.4937865833-52.3374028971,116.8775623892-116.8775734514,116.8775623892-64.4937644588,0-116.8311562937-52.3837758059-116.8311562937-116.8775623892,0-64.4937644588,52.3373918349-116.8775623892,116.8311562937-116.8775623892Z"/><circle class="cls-3" cx="143.9999986172" cy="144" r="85.6978385201"/><path class="cls-10" d="m195.101419267,99.7325280057c11.8660944562,12.8864295568,18.1458542365,29.3722254355,17.6826758027,46.4205481658-.1131095161,4.1683961316-.6169838811,8.2763357303-1.4853595354,12.2842975928.9516135178-4.2002816035,1.4988689064-8.5140922687,1.6176842438-12.8938555153.4631784338-17.0483227303-5.8165813465-33.534118609-17.6826758027-46.4205481658-10.4694688326-11.3704431865-24.2730672066-18.9030922394-39.2868031481-21.5652774151-.0419126137.2202195289-.0879367751.4457253334-.1290942066.6649799073,15.5312455412,2.441755874,28.5035980538,9.8021814241,39.2835726463,21.5098554304Z"/><path class="cls-13" d="m153.9189409057,51.1027361834c.9643677065-3.5573278446,1.9400631465-7.0677085272,2.9081648096-10.5395749162.4584795222-1.6432765304.9136026789-3.276148328,1.3636912874-4.8999579387-.133918982.0003356365-.2403157671.0006712731-.3107994418.0006712731-10.3026994237,0-50.9848695582,2.0154974602-66.4201230472,11.7452652995-1.5101127307,6.282612691-2.7033845618,13.8382528474-3.6468588933,21.9342678432,15.6416280104-11.7793743635,35.097849278-18.7644743458,56.1869842977-18.7644743458,3.3507855049,0,6.659280805.1800270525,9.9189409876.523802785Z"/><path class="cls-4" d="m84.2863146106,144.2983486169c0,16.1911069911,6.3740736498,31.3944356267,17.9481643108,42.8097702012,11.7033107312,11.5425408256,27.2439540957,17.7652423931,43.7579434444,17.5454004553,32.1882160585-.4450540603,59.0800874173-26.7713778386,59.9460297066-58.6863857485.8505030082-31.3085126708-23.6898987075-58.4135132364-55.8690525793-61.7074503013l-3.7071056533-.3796049338.6910756487-3.6617947196c1.9429160571-10.2924205545,4.3615130094-19.8784939974,6.8655714173-29.1155473868-3.2596601826-.3437757325-6.5681554827-.523802785-9.9189409876-.523802785-21.0891350197,0-40.5453562874,6.9850999823-56.1869842977,18.7644743458-3.4252548636,29.3926992648-3.5507829319,65.9238005044-3.5273722828,74.6612588947l.0006712731.293681978Z"/><path class="cls-2" d="m84.2863146106,144.2983486169c0,16.1911069911,6.3740736498,31.3944356267,17.9481643108,42.8097702012,11.7033107312,11.5425408256,27.2439540957,17.7652423931,43.7579434444,17.5454004553,32.1882160585-.4450540603,59.0800874173-26.7713778386,59.9460297066-58.6863857485.8505030082-31.3085126708-23.6898987075-58.4135132364-55.8690525793-61.7074503013l-3.7071056533-.3796049338.6910756487-3.6617947196c1.9429160571-10.2924205545,4.3615130094-19.8784939974,6.8655714173-29.1155473868-3.2596601826-.3437757325-6.5681554827-.523802785-9.9189409876-.523802785-21.0891350197,0-40.5453562874,6.9850999823-56.1869842977,18.7644743458-3.4252548636,29.3926992648-3.5507829319,65.9238005044-3.5273722828,74.6612588947l.0006712731.293681978Z"/><path class="cls-1" d="m77.4373152478,144.0231266489l.0006712731.2752219679c0,18.0381149052,7.0983773167,34.9733281193,19.9878276023,47.6855623086,12.7887593218,12.6132214081,29.6887306986,19.5246491685,47.6879117644,19.5239778954.323217994,0,.649456717-.0023494558.9733459841-.0067127309,17.4641764111-.2413226768,33.9845428541-7.133619154,46.5178827642-19.4071763773,9.5276307293-9.3300247127,15.9491549959-20.9888636015,18.6937808983-33.6566259484.8683756543-4.0079618625,1.3722500193-8.1159014612,1.4853595354-12.2842975928.4631784338-17.0483227303-5.8165813465-33.534118609-17.6826758027-46.4205481658-10.7799745925-11.7076740063-23.7523271051-19.0680995565-39.2835726463-21.5098554304.0411574315-.2192545738.0871815929-.4447603784.1290942066-.6649799073,1.5252583299-8.0172243166,3.5542651611-16.6820593492,6.2508111282-25.8365881027.1651751353-.5608067142.3236375397-1.1167047439.4939311324-1.6811615056,2.1539894901-7.1402899304,4.5070089124-13.9613512796,6.8975382585-20.1043391673-1.0938814588-.2335610816-5.0415642999-.9985837674-6.2153692113-1.2128877021-1.7937256123-.32749736-1.7740980049-.1782671896-2.5014224007-.1750786424l-1.2635683239.2605249599c-.7857251548.0040276386-1.4818353517.007384004-1.7288638497.007384004-.5209079198,0-35.9157955412-3.4553201527-65.2380550172,10.2066980398l-7.0352700989,3.7434855775-.4708617357,1.6901438015c-2.1467313498,8.4386160004-3.6959457382,19.2653699365-4.8156292565,30.6872913783-.017495055.1782649606-.0357872467.3552712842-.0530725289.5338299268-2.7426540377,28.3606588397-2.8514422332,60.2218390385-2.829793676,68.3461314133Zm10.3757003725-74.6797189048c.9434743315-8.0960149958,2.1367461626-15.6516551522,3.6468588933-21.9342678432,15.435253489-9.7297678393,56.1174236235-11.7452652995,66.4201230472-11.7452652995.0704836747,0,.1768804599-.0003356365.3107994418-.0006712731-.4500886085,1.6238096108-.9052117652,3.2566814083-1.3636912874,4.8999579387-.9681016631,3.471866389-1.943797103,6.9822470717-2.9081648096,10.5395749162-2.5040584079,9.2370533894-4.9226553602,18.8231268323-6.8655714173,29.1155473868l-.6910756487,3.6617947196,3.7071056533.3796049338c32.1791538718,3.2939370649,56.7195555875,30.3989376305,55.8690525793,61.7074503013-.8659422893,31.9150079099-27.757813648,58.2413316882-59.9460297066,58.6863857485-16.5139893486.2198419378-32.0546327131-6.0028596297-43.7579434444-17.5454004553-11.5740906609-11.4153345745-17.9481643108-26.6186632101-17.9481643108-42.8097702012l-.0006712731-.293681978c-.0234106491-8.7374583903.1021174192-45.2685596299,3.5273722828-74.6612588947Z"/><circle id="inner-dot" class="cls-12" cx="144.2206861789" cy="144.1031689733" r="64.2617837615"/><path class="cls-5" d="m162.7657983484,28.6186143615c-.9073514482,2.7151737955-2.6243236935,8.161671302-2.6243236935,8.161671302l-69.9550051978,13.1496525182s1.6978174692-7.3412523124,2.6189300158-10.9843772492c15.4798511951-7.5818617615,32.8775296154-11.8504873568,51.2650421652-11.8504873568,6.3651792814,0,12.6051476693.5474677547,18.6953567102,1.5235407857Z"/><path class="cls-7" d="m160.1414746549,36.7802856635c-1.4916107661,4.8529268677-4.1792623648,14.6893851741-4.1792623648,14.6893851741l-69.9412860539,19.5011126557s2.6051689174-14.0913647578,4.1655432209-21.0408453116c15.8923065558-9.1147138683,34.3072993479-14.3250517031,53.9458551693-14.3250517031,5.4371861856,0,10.7850510952.3986523078,16.0091500285,1.175399185Z"/><path class="cls-1" d="m155.2326929726,80.7737679012c-4.2265318789,17.3971464651-6.5341589981,27.4861502952-8.3508337593,51.0789451544-1.4662282523,19.0419199059,0,54.9906917377,2.7495345869,75.6122011394-7.8817530156-2.022566805-16.0423074218-27.012902765-19.1445121096-30.4574357528-9.4749663241-10.5206245587,6.8738364672-96.9210941878,6.8738364672-96.9210941878,6.0776133638-.9474046068,14.7794704363.1424532625,17.8719748148.6873836467Z"/><path class="cls-9" d="m155.1235824248,54.7416237087c-7.2175282906,28.5608240849-11.0531407866,58.4551321681-11.0531407866,89.236150052,0,21.8519529802,1.9678634169,43.3661276908,5.679751891,64.152602455-1.8559442371.1374851203-3.7623490286.2344354961-5.6664151555.2344354961-35.4483377414,0-64.2768271548-28.9386582551-64.2768271548-64.3870379511,0-23.0135910668,1.8215834456-45.601007629,5.3203427129-67.63168707.2337288999-1.4572499747.4742963944-2.9076194002.7217863927-4.3511082765,15.9335478965-12.8747242322,36.2044849256-20.580268061,58.2832443019-20.580268061,3.9524559687,0,7.8430289491.2474480437,11.658041752.7217444381-.2337288999.8661101076-.4536967014,1.7322202152-.6667839537,2.6051689174Z"/><path class="cls-6" d="m144.1323246264,50.7273267064c-21.9619159037,0-42.1572508007,7.5681006631-58.1113983902,20.2434567869-.3093310319,1.7871806996-.6049009655,3.5743613993-.8936323044,5.3753031973,16.0160725323-13.8232750665,36.8850299776-22.1818417506,59.6924143413-22.1818417506,3.4850401234,0,6.921958357.1924456047,10.3038741516.5773787687.2680896913-1.0929165037.5498985265-2.185874962.8386298654-3.2719528711-3.8699732874-.4880155382-7.8224292561-.7423441312-11.8298876637-.7423441312Z"/></svg>