<?xml version="1.0" encoding="UTF-8"?><svg id="Ebene_1" xmlns="http://www.w3.org/2000/svg" viewBox="0 0 288 288"><defs><style>.cls-1{fill-rule:evenodd;}.cls-1,.cls-2{fill:#dfdfdf;}</style></defs><path class="cls-2" d="M264.16,154.27c-.17-5.12-.68-10.2-1.49-15.25-2-12.49-5.97-24.33-11.79-35.56-6.92-13.34-15.98-24.99-27.26-34.91-15.93-14.01-34.27-23.21-55.04-27.59-.97-.2-1.41,0-1.66.99-.68,2.64-1.42,5.26-2.19,7.87-.26.88-.08,1.24.87,1.44,25.29,5.25,46.45,17.61,62.89,37.51,21.07,25.5,29.14,54.92,24.28,87.6-3.83,25.74-15.69,47.47-35.06,64.83-23.38,20.96-50.98,30.17-82.28,28.11-14.72-.97-28.7-4.91-41.78-11.76-25.72-13.45-43.68-33.82-53.63-61.1-6.26-17.17-7.83-34.89-5.28-52.97,1.51-10.71,4.55-20.97,9.15-30.76,4.25-9.04,9.61-17.38,16.11-24.97.3-.35.59-.7.62-1.2.07-1.06.14-2.11.23-3.17.31-3.76.64-7.52.96-11.28.02-.27.21-.63-.06-.79-.35-.2-.55.21-.77.41-2.25,2.1-4.38,4.33-6.42,6.63-16.41,18.45-26.32,39.9-29.75,64.36-.62,4.43-.99,8.87-1.03,13.35-.06,6.27.2,12.52,1.07,18.73,3.94,27.94,15.99,51.8,36.48,71.18,23.14,21.88,50.87,32.63,82.64,33.05,6.01.04,11.97-.4,17.88-1.33,30.11-4.72,55.15-18.67,74.62-42.07,19.54-23.49,28.73-50.71,27.69-81.33Z"/><path class="cls-2" d="M74.82,38.1c0-1.6.55-2.95.84-4.34.59-2.83,1.39-5.62,2.04-8.44.2-.88.66-1.41,1.46-1.78,13.43-6.24,27.42-10.63,42.09-12.83,9.43-1.42,18.91-1.97,28.43-1.58,5.65.23,11.27.76,16.86,1.61,1.41.21,1.44.24,1.01,1.58-.87,2.69-1.74,5.38-2.58,8.07-.24.76-.54,1.06-1.44.92-3.72-.6-7.48-.91-11.24-1.14-4.65-.27-9.3-.37-13.96-.16-13.61.62-26.9,2.99-39.79,7.43-7.86,2.71-15.44,6.06-22.68,10.16-.3.17-.62.3-1.04.5Z"/><path class="cls-1" d="M225.7,146.42c-5.05-29.86-22.05-50.85-49.67-63.19-5.67-2.53-11.6-4.2-17.7-5.18-5.23,21.58-8.13,34.64-10.42,64.39-1.88,24.46,0,70.61,3.52,97.16-4.66-26.44-7.14-53.79-7.14-81.56,0-36.83,4.27-72.67,12.34-107.07.76-3.13,1.55-6.26,2.33-9.39.04-.18.08-.35.1-.51.1-.39.2-.79.3-1.18-4.91-.61-9.91-.93-15-.93-20.98,0-40.7,5.42-57.83,14.92-.16.09-.32.17-.48.25-5.6,3.09-10.9,6.64-15.98,10.51-.59.45-1,1.05-1.12,1.84-.41,2.84-.83,5.69-1.29,8.52-.93,5.75-1.61,11.52-2.33,17.3-1.16,9.19-2.03,18.41-2.67,27.65-.43,6.15-.92,12.3-1.1,18.46-.14,4.59-.21,9.19-.26,14.87.02,4.35-.19,9.8.46,15.23,2.45,20.36,10.98,37.76,26.13,51.56,20.93,19.06,45.63,25.93,73.31,20.27,43.23-8.83,71.85-50.48,64.5-93.95Z"/></svg>