<?xml version="1.0" encoding="UTF-8"?><svg id="Ebene_1" xmlns="http://www.w3.org/2000/svg" viewBox="0 0 288 288"><defs><style>.cls-1{fill-rule:evenodd;}.cls-1,.cls-2{fill:#dfdfdf;}</style></defs><path class="cls-2" d="m247.1625846225,152.8159221001c-.1497598148-4.3996579246-.5827287842-8.7574275842-1.278704161-13.0971259791-1.7201990605-10.7268247524-5.1255667298-20.8884359464-10.1265807423-30.5322358997-5.9381249327-11.4507410847-13.7226697598-21.4555956409-23.4016391746-29.9698025359-13.6726262574-12.0270754214-29.425764793-19.9297785182-47.2536698713-23.6891576308-.8336876817-.1758009707-1.2112381058.0065334573-1.4277225906.8469399426-.5830994768,2.2628003696-1.2193933433,4.5126728344-1.8797822295,6.7542973885-.2227862591.7563519358-.0678367478,1.0642121491.7463895719,1.2331553065,21.7101687914,4.5052589821,39.8798524569,15.1222660486,53.992861536,32.2056813546,18.0897994079,21.8975539062,25.0158201484,47.1504783158,20.843304121,75.2097774721-3.2861899949,22.0981449452-13.4746764032,40.7560307792-30.1045029634,55.6631097671-20.0750436851,17.9954581384-43.7721248705,25.9047873657-70.6430761897,24.1309768864-12.6365404101-.8341973841-24.6382697243-4.2179258722-35.8696997931-10.0924770221-22.0829002116-11.550457397-37.5035274753-29.040105468-46.0463240379-52.4543945279-5.3776377051-14.7390625621-6.7264027696-29.9514995883-4.5320878599-45.4799984017,1.2990922546-9.1938254603,3.9072854643-18.0044010977,7.8586833493-26.4052223903,3.6505808313-7.7615618853,8.2490226685-14.9216750095,13.8314680411-21.4421580338.2570753256-.3003073513.5071074916-.6008927221.5337973596-1.0289500145.0563452768-.907270165.1199190596-1.8143086471.1955403522-2.7201887148.2704202596-3.2296130352.5473276399-6.4586700314.821084133-9.6880050471.0196467084-.2328876327.1820100719-.5450571476-.0524530044-.6759579758-.3017437852-.1685724648-.4737451566.1795078968-.6594621546.3533163947-1.9303817708,1.8055973707-3.7562282254,3.7148496627-5.5114577376,5.6889731616-14.0850217869,15.8409463478-22.5963094776,34.2599671306-25.5418329631,55.253077403-.5336120133,3.8028891578-.8468472694,7.6186135472-.8811363359,11.4604254292-.0481900394,5.3807885923.1701479084,10.7480469043.9209857916,16.0775409066,3.3790484939,23.9860824121,13.7276741101,44.4751434069,31.3231549214,61.1145616384,19.86560236,18.786284487,43.6709257878,28.011757829,70.9520484808,28.3718857004,5.1618946056.0329453058,10.2754138255-.3434467039,15.3526051696-1.139138393,25.854882873-4.052133602,47.3498646038-16.0255049314,64.0627263088-36.1211220564,16.7751380636-20.1707750519,24.6694079036-43.5402103059,23.7754826726-69.8277841288Z"/><path class="cls-2" d="m84.6068585172,53.076393248c.001734627-1.3694158858.4696502638-2.5356719022.7197645761-3.7289452929.509585603-2.4311494949,1.1929730491-4.8253519868,1.755520373-7.2462202018.1754530746-.7550367898.5680736677-1.2072894008,1.2576268233-1.5274865678,11.5330568752-5.3555029796,23.5448930449-9.1267117411,36.135905607-11.0175443271,8.0961491952-1.2158221542,16.2320169013-1.6904935707,24.4091487153-1.3596968308,4.8473595909.1960941825,9.67460418.6556300038,14.4743393639,1.382773766,1.2114368193.1835278649,1.2401248815.2063177804.8705047754,1.3524963211-.7445997647,2.3090195098-1.4957710972,4.6160681051-2.2156969046,6.9327975323-.2028624053.652767452-.4678600397.9126571359-1.2370892842.7887369265-3.1951495998-.5147228184-6.4220006202-.7848910023-9.6504528347-.9754386866-3.9918993689-.2356090731-7.9865341113-.3180413924-11.9886522124-.1363100064-11.6888953213.5307722896-23.093022708,2.5639054615-34.1618222303,6.3825218063-6.7488221405,2.3282727596-13.2586438129,5.2012657125-19.4743961692,8.7254944193-.2553793501.1447968923-.5307124705.2544147669-.8947005984.4268211418Z"/><path class="cls-1" d="m214.1409161583,146.0762207331c-4.3367328539-25.637008291-18.9310862881-43.6606390678-42.6455900262-54.2505855736-4.871456945-2.17536325-9.9612518379-3.6051246499-15.1961728878-4.4432143064-4.4931651357,18.5262436205-6.9819953247,29.7434020239-8.9485196251,55.2820840998-1.617331861,21.0029336266-.0040776187,60.6271471917,3.0248517043,83.4170508853-4.0045922747-22.7013081596-6.1297730125-46.1806074361-6.1297730125-70.0255486367,0-31.6217014829,3.6696715008-62.3943315407,10.5966189728-91.9243072939.6555698822-2.6890505354,1.3285623172-5.3738381059,1.9997012891-8.059089042.0385520315-.1539301066.0720997128-.3003073513.0876688025-.4351467885.0876688025-.3378863148.1688504842-.6777187657.2598555202-1.0152807245-4.2132922146-.5238349957-8.5103609591-.797128123-12.8756371441-.797128123-18.0160315783,0-34.9396320326,4.6498754369-49.6492708687,12.8111366298-.1367855734.0745092148-.2759806488.142948338-.4123955295.2181526015-4.8117754347,2.6511008794-9.3568375359,5.7027814614-13.7235964914,9.0262724002-.5098876862.3880688269-.8607482423.9005513614-.9587964379,1.5823940824-.3508605561,2.4412888617-.7130272369,4.8812339627-1.1070734822,7.3158503574-.7982865374,4.9326675624-1.378235127,9.8946198411-2.0026668299,14.8502240088-.9943829285,7.8905165773-1.7422552708,15.8066572813-2.2953286462,23.7397571722-.3680977625,5.2809796069-.7871657591,10.5633029744-.9478610059,15.8522061358-.119548367,3.9401844335-.1783031458,7.8869486609-.2224155665,12.7678119309.013344934,3.7365351805-.1649582118,8.4158343434.3951583231,13.0723822473,2.1023831422,17.4792223413,9.4254156689,32.4204050495,22.433946114,44.2672775254,17.9672855,16.362974217,39.173497687,22.2593498943,62.9417518537,17.4061032238,37.1144855802-7.5785324087,61.687513405-43.3426774809,55.3755449743-80.6584028122Z"/></svg>