<?xml version="1.0" encoding="UTF-8"?><svg id="Ebene_1" xmlns="http://www.w3.org/2000/svg" viewBox="0 0 288 288"><defs><style>.cls-1,.cls-2{fill:#efefef;}.cls-2{fill-rule:evenodd;}</style></defs><path class="cls-1" d="m161.7319906834,127.9871878919h-27.8914338937c19.3554024341-12.5584306338,19.3554024341-46.0918605731-3.0533149112-57.5086341098h27.8914212334c10.885749037,16.9923915198,13.8196011603,39.4542189113,3.0533275715,57.5086341098Z"/><path class="cls-1" d="m191.4952277011,164.9058230547h-33.3608444448c4.1817166524-2.5355837485,8.1510311011-5.5358012739,11.8017485745-9.0272012691,33.2280883199-31.688162848,26.8825076008-94.9450130957-12.0141634385-122.0797459396h34.3432347051c18.9305727061,21.9573642451,29.4048106727,51.2692418323,24.8513743385,80.9926621407-2.9338521232,19.1960976163-12.3194797372,36.3477939539-25.6213497348,50.114285068Z"/><path class="cls-2" d="m14.3096847705,166.950211673c-1.0487493323-.7035846735-2.0311237671-1.513376779-2.9338457931-2.4160956399-3.6507079781-3.6374367967-5.6951060917-8.5891288454-5.6951060917-13.7399424212v-.0132806766c0-14.5231858338,5.7747585006-28.4622624423,16.0498464544-38.7373409009,4.7127348219-4.7127411521,10.1821643635-8.4696533971,16.1427763749-11.1645419635,20.8555111968,14.6957713282,50.6453032375,16.0365752731,69.9476082858.743414043,5.3499477631,2.6285231642,10.2750784586,6.133203836,14.563002543,10.4211279204,10.2750911189,10.2750784586,16.0498559497,24.2141550671,16.0498559497,38.7373409009v.0132806766c0,5.1508135758-2.0444012787,10.1025056244-5.6951060917,13.7399424212-.9027315212.9027188609-1.8850964608,1.7125109664-2.9338521233,2.4160956399-16.1958674306,11.854871281-36.1619404432,18.8642326246-57.7475850064,18.8642326246-21.5856572236,0-41.5517175758-7.0093613437-57.7475945016-18.8642326246Z"/><ellipse class="cls-1" cx="72.0572792721" cy="53.4065098534" rx="45.0563982476" ry="47.7911098534"/><path class="cls-2" d="m221.7885445496,221.9229622643h-30.3344510093v-30.3344510093c0-5.5392257833-4.5031854053-10.0424111886-10.0424111886-10.0424111886s-10.0424111886,4.5031854053-10.0424111886,10.0424111886v30.3344510093h-30.3344510093c-5.5392257833,0-10.0424111886,4.5031854053-10.0424111886,10.0424111886,0,5.5391789439,4.5031854053,10.0424111886,10.0424111886,10.0424111886h30.3344510093v30.3344510093c0,5.5391789439,4.5031854053,10.0423643492,10.0424111886,10.0423643492s10.0424111886-4.5031854053,10.0424111886-10.0423643492v-30.3344510093h30.3344510093c5.5391789439,0,10.0424111886-4.5032322447,10.0424111886-10.0424111886,0-5.5392257833-4.5032322447-10.0424111886-10.0424111886-10.0424111886Z"/><path class="cls-2" d="m282.3192671143,191.7819078989c0-5.5530251055-4.5032029701-10.0424155798-10.0562214888-10.0424155798h-55.2539879656c-5.5392126097,0-10.0424155798,4.4893904743-10.0424155798,10.0424155798,0,5.5392126097,4.5032029701,10.042408993,10.0424155798,10.042408993h55.2539879656c5.5530185187,0,10.0562214888-4.5031963833,10.0562214888-10.042408993Z"/><path class="cls-2" d="m282.3192671143,231.9653695403c0-5.5392126097-4.5032029701-10.0424155798-10.0562214888-10.0424155798h-13.8134969914c-5.5392126097,0-10.0424155798,4.5032029701-10.0424155798,10.0424155798s4.5032029701,10.0424155798,10.0424155798,10.0424155798h13.8134969914c5.5530185187,0,10.0562214888-4.5032029701,10.0562214888-10.0424155798Z"/><path class="cls-2" d="m282.3192671143,272.1488377684c0-5.5392126097-4.5032029701-10.0424155798-10.0562214888-10.0424155798h-55.2539879656c-5.5392126097,0-10.0424155798,4.5032029701-10.0424155798,10.0424155798,0,5.5530185187,4.5032029701,10.0424024062,10.0424155798,10.0424024062h55.2539879656c5.5530185187,0,10.0562214888-4.4893838875,10.0562214888-10.0424024062Z"/></svg>