<?xml version="1.0" encoding="UTF-8"?><svg id="Ebene_1" xmlns="http://www.w3.org/2000/svg" viewBox="0 0 288 288"><defs><style>.cls-1{fill-rule:evenodd;}.cls-1,.cls-2{fill:#dfdfdf;}</style></defs><path class="cls-2" d="M153.33,149.56c-.96,1.92-1.64,4.04-1.99,6.28v.04s-.01.04-.01.04c-.16,1.07-.24,2.17-.24,3.27v17.21c-1.29-2.93-3.12-5.6-5.45-7.93-4.97-4.97-11.59-7.71-18.62-7.71H54.84c-7.03,0-13.65,2.74-18.62,7.71-4.97,4.97-7.71,11.59-7.71,18.62v18.04c0,5.38-4.36,9.75-9.75,9.75s-9.76-4.36-9.76-9.75v-18.04c0-12.25,4.77-23.76,13.43-32.42,8.65-8.65,20.17-13.42,32.41-13.42h72.16c9.57,0,18.66,2.9,26.32,8.31Z"/><path class="cls-2" d="M90.92,33c-25.27,0-45.83,20.56-45.83,45.84s20.56,45.84,45.83,45.84,45.84-20.56,45.84-45.84-20.56-45.84-45.84-45.84ZM90.92,105.17c-14.52,0-26.34-11.82-26.34-26.34s11.82-26.34,26.34-26.34,26.34,11.82,26.34,26.34-11.81,26.34-26.34,26.34Z"/><path class="cls-2" d="M190.61,69.91c-3.8-3.82-9.98-3.84-13.8-.03-3.81,3.8-3.82,9.96-.03,13.78,6.95,6.99,10.79,16.31,10.79,26.2s-3.84,19.21-10.79,26.2c-.57.57-1.06,1.21-1.45,1.87,1.68.22,3.32.64,4.91,1.26,3.17,1.23,6.02,3.2,8.21,5.67,1.14,1.29,2.13,2.68,2.91,4.16,10.15-10.59,15.71-24.44,15.71-39.16s-5.84-29.28-16.47-39.96ZM223.48,36.87c-3.8-3.82-9.98-3.84-13.78-.03-3.82,3.79-3.84,9.96-.04,13.78,15.75,15.83,24.42,36.88,24.42,59.27,0,11.7-2.36,23.04-6.89,33.47h20.9c3.62-10.64,5.49-21.9,5.49-33.47,0-27.58-10.68-53.51-30.1-73.03ZM210.08,175.41c-.49,0-.92-.01-1.36-.05l-.31-.03c-.52-.05-1.03-.14-1.53-.23-.18,1.79.14,3.62.95,5.26h7.29c3.2,0,6.23.7,8.96,1.97,2.2-2.22,4.26-4.53,6.19-6.91h-20.2Z"/><path class="cls-1" d="M225.72,201.8c0,5.84-4.76,10.59-10.6,10.59h-32.02v32.02c0,5.84-4.74,10.6-10.6,10.6s-10.59-4.76-10.59-10.6v-32.02h-32.02c-5.84,0-10.6-4.74-10.6-10.59s4.76-10.6,10.6-10.6h32.02v-32.02c0-.56.04-1.11.12-1.65.8-5.06,5.18-8.95,10.46-8.95,1.36,0,2.64.26,3.82.72,1.57.61,2.97,1.57,4.07,2.81,1.69,1.88,2.71,4.36,2.71,7.07v32.02h32.02c5.84,0,10.6,4.74,10.6,10.6Z"/><path class="cls-1" d="M273.58,159.39c0,2.86-2.33,5.18-5.19,5.18h-58.31c-.16,0-.31,0-.47-.03h-.2c-2.53-.35-4.5-2.58-4.5-5.15,0-2.86,2.32-5.18,5.18-5.18h58.31c2.86,0,5.19,2.32,5.19,5.18Z"/><path class="cls-1" d="M279,201.8c0,5.84-4.76,10.59-10.61,10.59h-14.58c-5.84,0-10.6-4.74-10.6-10.59s4.76-10.6,10.6-10.6h14.58c5.86,0,10.61,4.74,10.61,10.6Z"/><path class="cls-1" d="M279,244.2c0,5.86-4.76,10.6-10.61,10.6h-58.31c-5.84,0-10.6-4.74-10.6-10.6s4.76-10.6,10.6-10.6h58.31c5.86,0,10.61,4.76,10.61,10.6Z"/></svg>