<?xml version="1.0" encoding="UTF-8"?><svg id="Ebene_1" xmlns="http://www.w3.org/2000/svg" xmlns:xlink="http://www.w3.org/1999/xlink" viewBox="0 0 288 288"><defs><style>.cls-1{fill:url(#Unbenannter_Verlauf_224);}.cls-2{fill:#16bcfb;fill-rule:evenodd;}.cls-3{fill:#e0e0e0;}</style><linearGradient id="Unbenannter_Verlauf_224" x1="0" y1="288" x2="288" y2="0" gradientUnits="userSpaceOnUse"><stop offset="0" stop-color="#3a6644"/><stop offset="1" stop-color="#5b8169"/></linearGradient></defs><rect class="cls-1" y="0" width="288" height="288"/><path class="cls-3" d="M150.88,148.11c-.71,1.42-1.21,2.98-1.47,4.63v.03s0,.03,0,.03c-.12.79-.18,1.6-.18,2.41v12.7c-.95-2.16-2.3-4.13-4.02-5.85-3.67-3.67-8.55-5.69-13.74-5.69h-53.24c-5.19,0-10.07,2.02-13.74,5.69-3.67,3.67-5.69,8.55-5.69,13.74v13.31c0,3.97-3.22,7.19-7.19,7.19s-7.2-3.22-7.2-7.19v-13.31c0-9.04,3.52-17.53,9.91-23.92,6.38-6.38,14.88-9.9,23.91-9.9h53.24c7.06,0,13.77,2.14,19.42,6.13Z"/><path class="cls-3" d="M104.84,62.11c-18.64,0-33.81,15.17-33.81,33.82s15.17,33.82,33.81,33.82,33.82-15.17,33.82-33.82-15.17-33.82-33.82-33.82ZM104.84,115.36c-10.71,0-19.43-8.72-19.43-19.43s8.72-19.43,19.43-19.43,19.43,8.72,19.43,19.43-8.71,19.43-19.43,19.43Z"/><path class="cls-3" d="M178.39,89.34c-2.8-2.82-7.36-2.83-10.18-.02-2.81,2.8-2.82,7.35-.02,10.17,5.13,5.16,7.96,12.03,7.96,19.33s-2.83,14.17-7.96,19.33c-.42.42-.78.89-1.07,1.38,1.24.16,2.45.47,3.62.93,2.34.91,4.44,2.36,6.06,4.18.84.95,1.57,1.98,2.15,3.07,7.49-7.81,11.59-18.03,11.59-28.89s-4.31-21.6-12.15-29.48ZM202.64,64.97c-2.8-2.82-7.36-2.83-10.17-.02-2.82,2.8-2.83,7.35-.03,10.17,11.62,11.68,18.02,27.21,18.02,43.73,0,8.63-1.74,17-5.08,24.69h15.42c2.67-7.85,4.05-16.16,4.05-24.69,0-20.35-7.88-39.48-22.21-53.88ZM192.75,167.18c-.36,0-.68-.01-1-.04l-.23-.02c-.38-.04-.76-.1-1.13-.17-.13,1.32.1,2.67.7,3.88h5.38c2.36,0,4.6.52,6.61,1.45,1.62-1.64,3.14-3.34,4.57-5.1h-14.9Z"/><path class="cls-2" d="M204.29,186.65c0,4.31-3.51,7.81-7.82,7.81h-23.62v23.62c0,4.31-3.5,7.82-7.82,7.82s-7.81-3.51-7.81-7.82v-23.62h-23.62c-4.31,0-7.82-3.5-7.82-7.81s3.51-7.82,7.82-7.82h23.62v-23.62c0-.41.03-.82.09-1.22.59-3.73,3.82-6.6,7.72-6.6,1,0,1.95.19,2.82.53,1.16.45,2.19,1.16,3,2.07,1.25,1.39,2,3.22,2,5.22v23.62h23.62c4.31,0,7.82,3.5,7.82,7.82Z"/><path class="cls-2" d="M239.6,155.36c0,2.11-1.72,3.82-3.83,3.82h-43.02c-.12,0-.23,0-.35-.02h-.15c-1.87-.26-3.32-1.9-3.32-3.8,0-2.11,1.71-3.82,3.82-3.82h43.02c2.11,0,3.83,1.71,3.83,3.82Z"/><path class="cls-2" d="M243.6,186.65c0,4.31-3.51,7.81-7.83,7.81h-10.76c-4.31,0-7.82-3.5-7.82-7.81s3.51-7.82,7.82-7.82h10.76c4.32,0,7.83,3.5,7.83,7.82Z"/><path class="cls-2" d="M243.6,217.93c0,4.32-3.51,7.82-7.83,7.82h-43.02c-4.31,0-7.82-3.5-7.82-7.82s3.51-7.82,7.82-7.82h43.02c4.32,0,7.83,3.51,7.83,7.82Z"/></svg>