<?xml version="1.0" encoding="UTF-8"?><svg id="Ebene_1" xmlns="http://www.w3.org/2000/svg" xmlns:xlink="http://www.w3.org/1999/xlink" viewBox="0 0 288 288"><defs><style>.cls-1{fill:#16bcfb;}.cls-1,.cls-2{fill-rule:evenodd;}.cls-3,.cls-2{fill:#e0e0e0;}.cls-4{fill:url(#Unbenannter_Verlauf_68);}</style><linearGradient id="Unbenannter_Verlauf_68" x1="0" y1="288" x2="288" y2="0" gradientUnits="userSpaceOnUse"><stop offset="0" stop-color="#1f3451"/><stop offset="1" stop-color="#1f477f"/></linearGradient></defs><rect class="cls-4" y="0" width="288" height="288"/><path class="cls-3" d="M172.82,133.95h-21.72c15.07-9.78,15.07-35.89-2.38-44.77h21.72c8.48,13.23,10.76,30.72,2.38,44.77Z"/><path class="cls-3" d="M196,162.69h-25.97c3.26-1.97,6.35-4.31,9.19-7.03,25.87-24.67,20.93-73.92-9.35-95.05h26.74c14.74,17.1,22.89,39.92,19.35,63.06-2.28,14.95-9.59,28.3-19.95,39.02Z"/><path class="cls-2" d="M58.05,164.29c-.82-.55-1.58-1.18-2.28-1.88-2.84-2.83-4.43-6.69-4.43-10.7h0c0-11.32,4.5-22.17,12.5-30.17,3.67-3.67,7.93-6.59,12.57-8.69,16.24,11.44,39.43,12.49,54.46.58,4.17,2.05,8,4.78,11.34,8.11,8,8,12.5,18.85,12.5,30.16h0c0,4.02-1.59,7.88-4.43,10.71-.7.7-1.47,1.33-2.28,1.88-12.61,9.23-28.15,14.69-44.96,14.69s-32.35-5.46-44.96-14.69Z"/><ellipse class="cls-3" cx="103.01" cy="75.88" rx="35.08" ry="37.21"/><path class="cls-1" d="M219.58,207.09h-23.62v-23.62c0-4.31-3.51-7.82-7.82-7.82s-7.82,3.51-7.82,7.82v23.62h-23.62c-4.31,0-7.82,3.51-7.82,7.82s3.51,7.82,7.82,7.82h23.62v23.62c0,4.31,3.51,7.82,7.82,7.82s7.82-3.51,7.82-7.82v-23.62h23.62c4.31,0,7.82-3.51,7.82-7.82s-3.51-7.82-7.82-7.82Z"/><path class="cls-1" d="M266.71,183.62c0-4.32-3.51-7.82-7.83-7.82h-43.02c-4.31,0-7.82,3.5-7.82,7.82s3.51,7.82,7.82,7.82h43.02c4.32,0,7.83-3.51,7.83-7.82Z"/><path class="cls-1" d="M266.71,214.91c0-4.31-3.51-7.82-7.83-7.82h-10.75c-4.31,0-7.82,3.51-7.82,7.82s3.51,7.82,7.82,7.82h10.75c4.32,0,7.83-3.51,7.83-7.82Z"/><path class="cls-1" d="M266.71,246.19c0-4.31-3.51-7.82-7.83-7.82h-43.02c-4.31,0-7.82,3.51-7.82,7.82s3.51,7.82,7.82,7.82h43.02c4.32,0,7.83-3.5,7.83-7.82Z"/></svg>